<svg width="214" height="66" viewBox="0 0 214 66" fill="none" xmlns="http://www.w3.org/2000/svg">
<rect x="0.5" y="0.5" width="213" height="65" rx="32.5" fill="white" stroke="#DFDFDF"/>
<path fill-rule="evenodd" clip-rule="evenodd" d="M49.7372 20.5701C50.4485 21.2814 50.4485 22.4347 49.7372 23.146L40.0965 32.7866L49.7372 42.4272C50.4485 43.1386 50.4485 44.2918 49.7372 45.0031C49.0259 45.7144 47.8726 45.7144 47.1613 45.0031L36.2327 34.0746C35.5214 33.3633 35.5214 32.21 36.2327 31.4987L47.1613 20.5701C47.8726 19.8588 49.0259 19.8588 49.7372 20.5701Z" fill="black"/>
<path d="M89.15 19.3095V46.2795H91.61V19.3095H89.15ZM77.42 21.3795C73.43 21.3795 70.58 25.0395 70.58 30.7695C70.58 36.4995 73.43 40.1595 77.42 40.1595C81.41 40.1595 84.26 36.4995 84.26 30.7695C84.26 25.0395 81.41 21.3795 77.42 21.3795ZM77.42 23.5995C80.03 23.5995 81.89 26.4195 81.89 30.7695C81.89 35.1495 80.03 37.9695 77.42 37.9695C74.78 37.9695 72.92 35.1495 72.92 30.7695C72.92 26.4195 74.78 23.5995 77.42 23.5995ZM110.868 26.7495V28.7595H116.268V39.0495H118.758V19.3395H116.268V26.7495H110.868ZM112.458 33.0795C108.558 31.6995 105.918 28.3395 105.918 24.8295V23.5095H111.828V21.4995H97.4577V23.5095H103.458V24.8595C103.458 28.6695 100.668 32.2395 96.6777 33.6795L97.9677 35.5995C101.118 34.4595 103.578 31.9695 104.748 28.9095C105.918 31.6695 108.228 33.9195 111.228 34.9995L112.458 33.0795ZM104.028 43.6095V37.3095H101.538V45.6195H119.508V43.6095H104.028ZM139.815 22.5795H133.035V19.3395H130.575V22.5795H123.735V24.5295H139.815V22.5795ZM127.785 31.0995C127.785 29.2395 129.405 28.0095 131.805 28.0095C134.205 28.0095 135.825 29.2395 135.825 31.0995C135.825 32.9595 134.205 34.1595 131.805 34.1595C129.405 34.1595 127.785 32.9595 127.785 31.0995ZM133.035 36.0195C136.125 35.6295 138.165 33.7695 138.165 31.0995C138.165 28.0695 135.555 26.1195 131.805 26.1195C128.055 26.1195 125.445 28.0695 125.445 31.0995C125.445 33.7695 127.485 35.6295 130.575 36.0195V38.9595C127.965 39.0495 125.445 39.0495 123.285 39.0495L123.615 41.1195C128.325 41.1195 134.655 41.0595 140.415 40.0395L140.265 38.2095C137.955 38.5695 135.465 38.7495 133.035 38.8695V36.0195ZM148.515 30.7395H144.315V19.3095H141.855V46.2195H144.315V32.8095H148.515V30.7395ZM161.683 32.2695H154.243V23.6295H161.683V32.2695ZM170.263 26.0595V29.8095H164.083V26.0595H170.263ZM164.083 31.8195H170.263V38.9595H172.753V19.3395H170.263V24.0495H164.083V21.6795H151.813V34.2195H164.083V31.8195ZM157.903 43.6095V37.2195H155.443V45.6195H173.383V43.6095H157.903Z" fill="black"/>
</svg>
