<svg width="553" height="139" viewBox="0 0 553 139" fill="none" xmlns="http://www.w3.org/2000/svg">
<g clip-path="url(#clip0_1209_616)">
<path d="M62.2335 91.2073C58.8766 91.0759 57.1982 93.1088 57.1982 97.3058L57.1982 103.807C57.1982 108.414 59.0735 110.715 62.8242 110.709C64.718 110.672 66.6027 110.468 68.4503 110.102C70.7228 109.611 73.0492 109.336 75.3891 109.281C76.8957 109.265 78.3811 109.594 79.6972 110.236C81.0133 110.879 82.1142 111.812 82.8904 112.942C84.7658 115.377 85.7035 118.627 85.7035 122.693C85.7035 127.158 84.4532 130.745 81.9528 133.454C80.8115 134.762 79.3333 135.815 77.6386 136.529C75.944 137.242 74.0808 137.594 72.201 137.558C66.9993 137.454 61.8072 137.117 56.6449 136.548C51.48 135.974 46.2846 135.634 41.0795 135.53C36.5719 135.491 32.0656 135.693 27.5864 136.138L18.3972 137.156C16.7182 137.364 15.0282 137.499 13.3337 137.558C11.4676 137.6 9.61706 137.249 7.93797 136.535C6.25888 135.821 4.80033 134.764 3.68508 133.454C1.22837 130.751 1.51846e-05 127.166 1.51846e-05 122.701C-0.134446 119.335 0.877331 116.009 2.90681 113.147C4.83842 110.581 7.24511 109.295 10.1269 109.289C11.7176 109.356 13.2926 109.596 14.8153 110.004C16.2167 110.385 17.6643 110.622 19.1286 110.709C22.5042 110.709 24.192 106.105 24.192 96.8954L24.192 40.6296C24.28 37.8483 24.1547 35.065 23.8169 32.2985C23.1887 28.7772 21.6322 27.0207 19.1286 27.0207C17.632 27.0968 16.1519 27.3339 14.7215 27.7266C13.2348 28.1371 11.6935 28.3771 10.1363 28.4407C7.25449 28.4407 4.84779 27.1548 2.91618 24.583C0.882369 21.7222 -0.132779 18.3963 1.51851e-05 15.0289C1.51852e-05 10.5637 1.25025 6.94125 3.75071 4.16148C4.87837 2.83853 6.35088 1.77064 8.04554 1.04677C9.7402 0.322899 11.6079 -0.0359833 13.4932 2.38609e-05L14.0651 2.38609e-05C14.2878 0.129428 14.548 0.200607 14.8153 0.205224C19.3968 0.314835 23.9675 0.651905 28.5053 1.21481C33.0985 1.78876 37.7259 2.1286 42.3642 2.2326C48.3653 2.2326 54.929 1.959 62.0553 1.4118C71.0507 0.744215 76.1736 0.407688 77.4238 0.402216C91.0388 0.402216 102.066 4.56914 110.505 12.903C118.944 21.2368 123.164 32.1808 123.164 45.735C123.164 59.8199 118.819 70.991 110.13 79.2482C101.441 87.5055 89.6011 91.6368 74.6108 91.6423C73.3605 91.6423 70.9851 91.5739 67.4845 91.4371L62.2335 91.2073ZM57.1982 56.8814C57.1982 60.6735 57.5107 63.0101 58.1358 63.891C58.761 64.772 60.4456 65.2782 63.1899 65.4095L66.1905 65.6147C80.9432 66.5669 88.3165 60.2741 88.3102 46.7363C88.3102 33.7349 81.6871 27.2341 68.4409 27.2341C66.1676 27.1305 63.8897 27.3382 61.6896 27.8497C59.4392 28.5228 58.0671 30.148 57.5732 32.7253C57.2758 34.7444 57.1504 36.7802 57.1982 38.8156L57.1982 56.8814Z" fill="#3E3B98"/>
<path d="M197.577 27.0208C193.583 27.0208 191.586 30.7445 191.586 38.1919L191.586 95.4755C191.586 100.761 191.773 104.08 192.148 105.432C193.142 108.956 195.264 110.986 198.515 111.522C199.444 111.679 200.384 111.783 201.328 111.834C202.453 111.9 203.7 111.933 205.079 111.933L214.268 111.933C224.389 111.933 229.449 108.545 229.449 101.771C229.43 99.5885 229.179 97.4122 228.699 95.2703C228.158 92.6546 227.845 90.0068 227.761 87.3496C227.616 83.3562 229.227 79.4663 232.262 76.4822C233.657 75.0768 235.388 73.957 237.333 73.2024C239.277 72.4478 241.387 72.0768 243.514 72.1156C253.516 72.1156 258.517 77.4645 258.517 88.1622C258.517 89.3852 258.451 90.8708 258.329 92.6356C258.207 94.4003 258.01 96.4277 257.767 98.7259C257.523 101.024 257.326 103.06 257.204 104.824C257.082 106.589 257.017 108.001 257.017 109.084C257.017 110.447 257.017 111.801 257.11 113.147C257.204 114.493 257.26 115.864 257.392 117.251C257.635 119.968 257.823 122.094 257.954 123.654C258.086 125.213 258.142 126.116 258.142 126.395C258.142 133.848 254.078 137.572 245.952 137.566C243.833 137.566 241.264 137.5 238.272 137.369C235.281 137.238 231.765 137.024 227.771 136.754C215.781 135.938 198.534 135.533 176.03 135.539C172.654 135.539 169.625 135.64 166.944 135.842C164.262 136.045 161.793 136.319 159.536 136.663C157.286 137.003 155.191 137.276 153.254 137.484C151.356 137.686 149.446 137.787 147.534 137.788C145.677 137.811 143.843 137.434 142.193 136.69C140.543 135.945 139.128 134.857 138.073 133.52C135.635 130.68 134.416 127.093 134.416 122.759C134.416 118.827 135.353 115.618 137.322 113.106C139.292 110.595 141.73 109.347 144.73 109.347C146.208 109.402 147.673 109.617 149.09 109.987C150.519 110.384 152 110.621 153.497 110.693C156.873 110.693 158.561 106.088 158.561 96.8791L158.561 40.6297C158.561 31.5626 156.873 27.0263 153.497 27.0208C152.001 27.097 150.521 27.334 149.09 27.7267C147.604 28.1372 146.062 28.3772 144.505 28.4408C141.629 28.4408 139.223 27.1549 137.285 24.5831C135.254 21.7214 134.243 18.3956 134.378 15.029C134.397 5.14654 139.029 0.205332 148.274 0.205332C150.031 0.205332 155.407 0.61026 164.402 1.42012C167.403 1.69372 170.244 1.89618 172.926 2.02751C175.617 2.16704 178.205 2.23271 180.709 2.23271C182.837 2.23271 184.891 2.16704 186.897 2.02751C188.904 1.88797 190.892 1.69098 192.898 1.42012C197.172 0.760227 201.492 0.354371 205.829 0.205332C207.708 0.144907 209.577 0.471404 211.285 1.15855C212.993 1.84569 214.494 2.8743 215.665 4.16159C218.091 6.80456 219.306 10.3614 219.313 14.832C219.459 18.2509 218.483 21.6348 216.5 24.5831C214.624 27.1494 212.249 28.4354 209.373 28.4408C207.382 28.371 205.404 28.1318 203.466 27.7267C201.533 27.3287 199.561 27.0923 197.577 27.0208Z" fill="#3E3B98"/>
<path d="M465.452 91.2071C462.089 91.0758 460.404 93.1086 460.398 97.3057L460.398 103.806C460.398 108.414 462.273 110.715 466.024 110.709C467.918 110.671 469.803 110.468 471.65 110.102C473.923 109.611 476.249 109.336 478.589 109.281C480.096 109.265 481.581 109.594 482.897 110.236C484.213 110.879 485.314 111.811 486.09 112.942C487.966 115.377 488.903 118.627 488.903 122.693C488.903 127.158 487.653 130.745 485.153 133.454C484.011 134.762 482.533 135.815 480.839 136.528C479.144 137.242 477.281 137.594 475.401 137.558C470.199 137.454 465.007 137.117 459.845 136.548C454.68 135.974 449.485 135.634 444.28 135.53C439.772 135.49 435.266 135.693 430.786 136.138L421.597 137.155C419.918 137.364 418.228 137.498 416.534 137.558C414.668 137.6 412.817 137.249 411.138 136.535C409.459 135.821 408 134.764 406.885 133.454C404.447 130.745 403.228 127.158 403.228 122.693C403.094 119.326 404.105 116.001 406.135 113.139C408.067 110.573 410.473 109.287 413.355 109.281C414.946 109.347 416.521 109.587 418.043 109.995C419.445 110.377 420.892 110.614 422.357 110.701C425.732 110.701 427.42 106.096 427.42 96.887L427.42 40.6295C427.508 37.8482 427.383 35.0649 427.045 32.2984C426.417 28.7771 424.86 27.0206 422.357 27.0206C420.86 27.0967 419.38 27.3338 417.95 27.7265C416.463 28.1369 414.922 28.377 413.364 28.4406C410.489 28.4406 408.082 27.1547 406.144 24.5828C404.101 21.7248 403.076 18.3987 403.2 15.0287C403.2 10.5636 404.45 6.94113 406.951 4.16135C408.08 2.83612 409.556 1.76682 411.254 1.04284C412.952 0.318867 414.824 -0.0387448 416.712 -9.95342e-05L417.275 -9.95342e-05C417.497 0.130573 417.757 0.201871 418.025 0.2051C422.606 0.314712 427.177 0.651781 431.715 1.21468C436.311 1.78896 440.942 2.12879 445.583 2.23247C451.584 2.23247 458.148 1.95887 465.274 1.41168C474.269 0.744092 479.392 0.407564 480.643 0.402092C494.258 0.402092 505.285 4.56902 513.724 12.9029C522.163 21.2367 526.382 32.1807 526.382 45.7348C526.382 59.8198 522.038 70.9908 513.349 79.2481C504.659 87.5053 492.82 91.6367 477.829 91.6421C476.579 91.6421 474.204 91.5737 470.703 91.4369L465.452 91.2071ZM460.398 56.8813C460.398 60.6734 460.711 63.0099 461.336 63.8909C461.961 64.7719 463.646 65.2781 466.39 65.4094L469.39 65.6146C484.143 66.5667 491.516 60.2739 491.51 46.7362C491.51 33.7347 484.887 27.234 471.641 27.234C469.368 27.1304 467.09 27.3381 464.89 27.8496C462.639 28.5227 461.267 30.1479 460.773 32.7252C460.476 34.7443 460.35 36.7801 460.398 38.8155L460.398 56.8813Z" fill="#3E3B98"/>
<path d="M247.78 50.3561L247.64 50.3561C246.857 50.4561 246.057 50.354 245.34 50.0625C244.622 49.7709 244.017 49.3025 243.598 48.7145C242.286 47.1468 241.554 45.1112 240.72 43.3301C239.748 41.3022 239.004 39.1966 238.497 37.0428C237.566 32.5896 237.535 28.028 238.404 23.5652C239.398 17.8197 241.826 12.1561 246.121 7.71561C250.415 3.27509 256.698 0.197092 263.346 0.000100382C266.122 -0.0820832 268.885 0.376748 271.434 1.34343C273.984 2.31011 276.256 3.76049 278.086 5.58974C282.259 9.9564 281.837 15.3326 278.611 20.2C276.164 23.91 272.451 26.8484 268.644 29.5407C264.837 32.2329 260.833 34.7692 257.57 37.9621C255.466 39.9015 253.608 42.0343 252.028 44.3233C250.847 46.1701 250.509 49.757 247.78 50.3561Z" fill="#3E3B98"/>
<path fill-rule="evenodd" clip-rule="evenodd" d="M379.938 18.0247C381.265 19.691 382.486 21.42 383.595 23.2039C388.527 31.1082 391.35 39.9482 393.291 48.7882C397.444 67.7159 397.651 87.9075 388.49 105.522C379.329 123.136 359.3 137.517 336.627 138.058C320.949 138.428 305.449 132.181 294.91 122.356C284.37 112.532 278.463 99.4398 277.094 86.1839C274.468 60.8048 287.455 32.7498 308.14 14.4378C318.605 5.17098 333.551 -1.39541 348.554 0.246185C361.41 1.64154 372.671 8.91382 379.938 18.0247ZM323.994 49.757C327.06 42.8295 332.273 33.2343 340.375 30.0579C341.341 29.6659 342.409 29.5072 343.469 29.5982C353.089 30.5175 353.146 51.2509 353.146 57.6039C353.145 57.9901 353.144 58.3763 353.143 58.7625C353.126 65.7142 353.108 72.666 352.939 79.6177C352.564 94.8025 347.567 112.294 335.321 112.179C323.075 112.064 320.852 98.6685 319.915 90.4605C318.367 76.9747 318.292 62.6025 323.994 49.757Z" fill="#3E3B98"/>
<path d="M535.712 138.067C529.364 138.067 524.019 134.595 518.393 132.411C514.399 130.86 509.954 129.128 509.954 124.318C509.954 119.205 515.252 117.276 519.509 115.724C524.695 113.828 529.899 110.562 535.675 110.562C544.836 110.562 552.262 116.718 552.262 124.318C552.262 131.919 544.873 138.067 535.712 138.067Z" fill="#3E3B98"/>
</g>
<defs>
<clipPath id="clip0_1209_616">
<rect width="552.3" height="138.067" fill="white"/>
</clipPath>
</defs>
</svg>
