<?xml version="1.0" encoding="UTF-8"?><svg xmlns="http://www.w3.org/2000/svg" viewBox="0 0 667.83 168.21"><defs><style>.d{fill:#dfdfdf;}</style></defs><g id="a"/><g id="b"><g id="c"><g><path class="d" d="M74.9,111.12c-4.06-.16-6.09,2.31-6.09,7.42v7.92c0,5.61,2.26,8.42,6.77,8.42,1.8,0,4.06-.25,6.77-.74,3.31-.66,6.09-.99,8.35-.99,3.76,0,6.77,1.48,9.02,4.45,2.26,2.97,3.38,6.93,3.38,11.88,0,5.44-1.5,9.82-4.51,13.12-3.01,3.3-6.92,4.95-11.73,4.95-4.21,0-10.45-.41-18.72-1.24-8.27-.82-14.52-1.24-18.72-1.24-6.47,0-11.88,.25-16.24,.74l-11.05,1.24c-3.01,.33-5.04,.49-6.09,.49-4.82,0-8.69-1.65-11.62-4.95-2.93-3.3-4.4-7.67-4.4-13.12,0-4.62,1.16-8.5,3.5-11.63,2.33-3.13,5.22-4.7,8.69-4.7,1.35,0,3.23,.29,5.64,.87,2.4,.58,4.13,.87,5.19,.87,4.06,0,6.09-5.61,6.09-16.83V49.5c0-5.28-.15-8.66-.45-10.15-.75-4.29-2.63-6.44-5.64-6.44-1.21,0-2.97,.29-5.3,.87-2.33,.58-4.17,.87-5.53,.87-3.46,0-6.36-1.57-8.69-4.7-2.33-3.13-3.5-7.01-3.5-11.63C0,12.87,1.5,8.46,4.51,5.07,7.52,1.69,11.43,0,16.24,0h.68c.3,.17,.6,.25,.9,.25,3.61,0,9.1,.41,16.47,1.24,7.37,.83,12.93,1.24,16.69,1.24,7.22,0,15.12-.33,23.69-.99,10.83-.82,16.99-1.24,18.5-1.24,16.39,0,29.67,5.07,39.82,15.22,10.15,10.15,15.23,23.47,15.23,39.97s-5.23,30.77-15.68,40.84c-10.45,10.07-24.7,15.1-42.75,15.1-1.5,0-4.36-.08-8.57-.25l-6.32-.25Zm-6.09-41.83c0,4.62,.37,7.47,1.13,8.54,.75,1.08,2.78,1.69,6.09,1.86l3.61,.25c17.74,1.16,26.62-6.52,26.62-23.02s-7.97-23.76-23.91-23.76c-3.91,0-6.62,.25-8.12,.74-2.71,.83-4.36,2.81-4.96,5.94-.3,1.65-.45,4.13-.45,7.42v22.03Z"/><path class="d" d="M237.78,32.92c-4.81,0-7.22,4.54-7.22,13.61V116.32c0,6.44,.23,10.48,.68,12.13,1.2,4.29,3.76,6.77,7.67,7.42,.9,.17,2.03,.29,3.38,.37,1.35,.08,2.85,.12,4.51,.12h11.05c12.18,0,18.27-4.12,18.27-12.37,0-2.48-.3-5.11-.9-7.92-.75-4.12-1.13-7.34-1.13-9.65,0-5.28,1.81-9.69,5.41-13.24,3.61-3.55,8.12-5.32,13.54-5.32,12.03,0,18.05,6.52,18.05,19.55,0,1.48-.08,3.3-.23,5.44-.15,2.15-.38,4.62-.68,7.42-.3,2.81-.53,5.28-.68,7.42-.15,2.15-.23,3.88-.23,5.2,0,1.65,.03,3.3,.11,4.95,.07,1.65,.19,3.3,.34,4.95,.3,3.3,.53,5.9,.68,7.8,.15,1.9,.23,3.01,.23,3.34,0,9.08-4.89,13.61-14.66,13.61-2.56,0-5.64-.08-9.25-.25-3.61-.17-7.82-.41-12.63-.74-14.44-.99-35.19-1.48-62.27-1.48-4.06,0-7.71,.12-10.94,.37-3.24,.25-6.2,.58-8.91,.99-2.71,.41-5.23,.74-7.56,.99-2.33,.25-4.62,.37-6.88,.37-4.66,0-8.46-1.73-11.39-5.2s-4.4-7.83-4.4-13.12c0-4.78,1.16-8.7,3.5-11.76,2.33-3.05,5.3-4.58,8.91-4.58,1.2,0,2.97,.29,5.3,.87,2.33,.58,4.1,.87,5.3,.87,4.06,0,6.09-5.61,6.09-16.83V49.5c0-11.05-2.03-16.58-6.09-16.58-1.21,0-2.97,.29-5.3,.87-2.33,.58-4.17,.87-5.53,.87-3.46,0-6.36-1.57-8.69-4.7-2.33-3.13-3.5-7.01-3.5-11.63,0-12.04,5.56-18.07,16.69-18.07,2.1,0,8.57,.49,19.4,1.48,3.61,.33,7.03,.58,10.27,.74,3.23,.17,6.35,.25,9.36,.25,2.56,0,5.04-.08,7.44-.25,2.4-.16,4.81-.41,7.22-.74,7.22-.99,12.41-1.48,15.57-1.48,4.96,0,8.91,1.61,11.84,4.83,2.93,3.22,4.4,7.55,4.4,12.99,0,4.79-1.13,8.75-3.38,11.88-2.26,3.14-5.11,4.7-8.57,4.7-1.66,0-4.03-.29-7.11-.87-3.08-.58-5.45-.87-7.11-.87Z"/><path class="d" d="M563.32,111.12c-4.06-.16-6.09,2.31-6.09,7.42v7.92c0,5.61,2.26,8.42,6.77,8.42,1.81,0,4.06-.25,6.77-.74,3.31-.66,6.09-.99,8.35-.99,3.76,0,6.77,1.48,9.02,4.45,2.26,2.97,3.38,6.93,3.38,11.88,0,5.44-1.51,9.82-4.51,13.12-3.01,3.3-6.92,4.95-11.73,4.95-4.21,0-10.46-.41-18.73-1.24-8.27-.82-14.52-1.24-18.72-1.24-6.47,0-11.88,.25-16.24,.74l-11.05,1.24c-3.01,.33-5.04,.49-6.09,.49-4.81,0-8.69-1.65-11.62-4.95-2.93-3.3-4.4-7.67-4.4-13.12,0-4.62,1.16-8.5,3.5-11.63,2.33-3.13,5.22-4.7,8.69-4.7,1.35,0,3.23,.29,5.64,.87,2.4,.58,4.13,.87,5.19,.87,4.06,0,6.09-5.61,6.09-16.83V49.5c0-5.28-.15-8.66-.45-10.15-.75-4.29-2.63-6.44-5.64-6.44-1.21,0-2.97,.29-5.3,.87-2.33,.58-4.17,.87-5.53,.87-3.46,0-6.36-1.57-8.69-4.7-2.33-3.13-3.5-7.01-3.5-11.63,0-5.44,1.5-9.86,4.51-13.24C495.94,1.69,499.85,0,504.66,0h.68c.3,.17,.6,.25,.9,.25,3.61,0,9.1,.41,16.47,1.24,7.37,.83,12.93,1.24,16.69,1.24,7.22,0,15.12-.33,23.69-.99,10.83-.82,16.99-1.24,18.5-1.24,16.39,0,29.67,5.07,39.82,15.22,10.15,10.15,15.23,23.47,15.23,39.97s-5.23,30.77-15.68,40.84c-10.46,10.07-24.7,15.1-42.75,15.1-1.5,0-4.36-.08-8.57-.25l-6.32-.25Zm-6.09-41.83c0,4.62,.37,7.47,1.13,8.54,.75,1.08,2.78,1.69,6.09,1.86l3.61,.25c17.74,1.16,26.62-6.52,26.62-23.02s-7.97-23.76-23.91-23.76c-3.91,0-6.62,.25-8.12,.74-2.71,.83-4.36,2.81-4.96,5.94-.3,1.65-.45,4.13-.45,7.42v22.03Z"/><path class="d" d="M298.19,61.35c-.05,.01-.11,.02-.16,.03-1.97,.38-3.74-.63-4.86-1.99-1.58-1.92-2.46-4.39-3.47-6.57-1.15-2.47-2.07-5.04-2.67-7.66-1.24-5.42-1.06-10.97-.12-16.41,1.2-7.01,4.12-13.9,9.29-19.31C301.36,4.03,308.93,.24,316.92,.01c6.62-.19,13.46,2.28,17.74,6.81,5.03,5.32,4.49,11.87,.63,17.8-2.94,4.52-7.41,8.1-12,11.38s-9.39,6.37-13.32,10.27c-2.44,2.42-4.87,4.89-6.67,7.73-1.43,2.26-1.83,6.63-5.12,7.36Z"/><path class="d" d="M475.42,59.44c-1.53-10.24-5.52-21.32-11.81-31.11-9.24-14.38-23.43-25.98-42.03-28.02-18.06-1.98-36.04,6-48.63,17.29-24.89,22.31-40.52,56.49-37.36,87.37,1.65,16.15,8.76,32.1,21.49,44.07s31.29,19.62,50.15,19.17c27.11-.65,47.88-13.81,59.77-34.94,12.6-22.39,12.03-49.6,8.42-73.82Zm-48.31,10.69c-.02,8.94-.04,17.88-.25,26.82-.44,18.55-6.35,39.81-21.19,39.67-14.73-.14-17.41-16.5-18.54-26.45-1.87-16.43-1.95-33.94,4.91-49.59,3.68-8.39,9.96-20.08,19.71-23.95,1.25-.49,2.5-.74,3.72-.62,11.58,1.14,11.66,26.38,11.64,34.12Z"/><path class="d" d="M647.87,168.21c-7.64,0-14.07-4.23-20.84-6.9-4.81-1.89-10.11-4.02-10.11-9.86,0-6.23,6.38-8.58,11.5-10.47,6.24-2.31,12.5-6.29,19.45-6.29,11.02,0,19.96,7.5,19.96,16.76s-8.94,16.76-19.96,16.76Z"/></g></g></g></svg>