<?xml version="1.0" encoding="UTF-8"?><svg xmlns="http://www.w3.org/2000/svg" viewBox="0 0 395.52 236.36"><defs><style>.d{fill:#fbf1b9;}.e{fill:#242278;}.f,.g{fill:#242273;}.g{opacity:0;}</style></defs><g id="a"/><g id="b"><g id="c"><g><path class="e" d="M125.79,222.44c1.21,2.79,4.06,5.72,7.36,4.59,3.02-1.03,4.31-3.77,4.86-6.7s.58-5.98,1.02-8.94c.51-3.42,1.16-6.83,1.37-10.28h-5c-.22,4.08-.28,8.17-.16,12.25,.1,3.67-.2,8,1.67,11.29,.91,1.6,2.29,3.08,4.07,3.67s3.85,.09,5.19-1.24c1.05-1.05,1.61-2.51,1.91-3.93,.4-1.86,.68-3.76,1.01-5.64l2.43-13.68-4.91-.66c-.27,4.16-.28,8.32-.16,12.48,.11,3.54-.26,7.52,1.26,10.81,.73,1.59,1.98,2.81,3.74,3.13,2.3,.42,4.43-.83,5.77-2.64,1.04-1.41,1.56-3.15,2.08-4.8,.58-1.86,1.09-3.74,1.53-5.64,1.04-4.54,1.65-9.18,2.07-13.82h-5c-.19,5.12-1.35,10.06-.76,15.21,.41,3.55,.97,8.14,4.15,10.37,2.08,1.46,4.85,1.15,6.7-.55,1.99-1.83,2.94-4.69,3.56-7.24,1.4-5.76,2.29-11.8,2.64-17.71,.28-4.72-.68-9.67-3.01-13.82-2.57-4.59-6.94-7.67-12.06-8.78-5.47-1.19-11.29-.66-16.76,.23s-10.76,2.7-14.7,6.53c-2.19,2.12-3.85,4.85-4.7,7.78-.95,3.28-.85,6.53-.37,9.87,.2,1.42,.25,2.86,.49,4.29s.56,2.88,.84,4.32c.55,2.89,.65,5.87,1.63,8.67,.44,1.27,1.71,2.12,3.08,1.75,1.24-.34,2.19-1.79,1.75-3.08-.78-2.24-1.01-4.58-1.34-6.91s-.92-4.43-1.22-6.67c-.58-4.24-1.29-8.9,.74-12.88,4.25-8.32,15.64-9.57,23.97-9.57,4.31,0,8.89,.78,12.07,3.92,2.6,2.57,3.99,6.21,4.47,9.79,.28,2.04,.22,4.12,0,6.16-.3,2.69-.55,5.38-.97,8.05-.38,2.46-.87,4.93-1.5,7.33-.4,1.51-.97,3.44-2.12,4.47,.02-.01-.62,.08-.12,.03-.43,.04,.17,.14-.18-.06,0,0-.36-.32-.22-.15-.25-.31-.44-.69-.62-1.05-.13-.25-.11-.23-.28-.75-.27-.83-.47-1.68-.63-2.53-.08-.43-.15-.87-.21-1.3,.06,.39-.07-.56-.09-.74-.57-5.06,.6-9.94,.78-14.99,.05-1.35-1.18-2.5-2.5-2.5-1.45,0-2.38,1.15-2.5,2.5-.37,4.2-.94,8.37-1.89,12.49-.49,2.11-1.06,4.21-1.73,6.27-.39,1.2-.72,2.74-2,3.26,.11-.04,.14,.05,.22,.1-.05-.03-.33-.54-.41-.73-.17-.4-.34-1.13-.41-1.68,.06,.48-.01-.86-.02-1-.02-.55-.04-1.1-.06-1.65-.04-1.14-.09-2.28-.12-3.43-.14-4.39-.15-8.77,.13-13.15,.18-2.78-4.41-3.45-4.91-.66l-2.3,12.96c-.36,2.02-.69,4.04-1.08,6.06-.12,.6-.25,1.29-.48,1.72-.06,.11-.16,.38-.3,.4,.13-.02,.07-.06,0-.07-1.12-.28-1.81-2.31-1.95-3.29-.27-1.95-.26-3.98-.33-5.95-.16-4.41-.1-8.83,.13-13.24,.17-3.22-4.8-3.2-5,0-.32,5.18-1.49,10.28-1.93,15.45-.07,.88-.15,1.75-.32,2.61-.14,.7-.44,2.13-.7,2.48-.11,.14-.51,.36-.74,.56-.3,.27-.26-.01,.03,.11,.4,.17,.02-.04,.03,.02-.01-.1-.65-.73-.75-.85-.35-.5-.68-1-.92-1.56-.54-1.24-2.36-1.52-3.42-.9-1.28,.75-1.43,2.18-.9,3.42Z"/><path class="d" d="M186.88,48.88c2.23-4.28,4.85-9.61,8.62-12.59,7.86-6.22,17.07-10.85,26.93-12.83,12.01-2.41,24.97-.72,35.47,5.57,11.32,6.77,19.46,19.06,19.92,32.32,.07,1.95-.41,3.92-1.54,5.51-2.78,3.91-7.24,2.92-11.07,1.94-13.51-3.46-27.28-3.88-41.16-5.23-12.65-1.23-25.14-1.01-37.78-1-1.77,0-3.08-1.66-2.67-3.38,.75-3.18,1.98-7.81,3.28-10.3Z"/><g><path class="f" d="M183.68,66.35s-.58-2.4-1.76-2.55c.01-.53-2.89,1.21-2.86,.69-3.38,9.37-4.68,19.38-5.83,29.23-1.27,10.8-2.26,21.71-5.32,32.19-.44,1.5-.92,3.02-1.46,4.52-25.48-.93-51.18,1.08-76.14,6.33-3.03,.64-6.05,1.33-9.06,2.07-2.71,.67-5.41,1.34-7.98,2.46-5.21,2.28-9.94,6.97-8.97,13.08,.78,4.96,5.04,7.47,9.56,8.53,2.44,.57,4.94,.85,7.39,1.34,2.55,.5,5.48,.93,7.71,2.33,1.3,.81,2,1.75,2.31,3.13-.04-.1,.04,.67,.04,.82,0,.06,0,.09,0,.14-.03,.19-.08,.38-.13,.57-.12,.51-.48,1.14-.84,1.53-1.39,1.46-3.24,1.99-5.38,2.46-2.98,.65-6.01,1-9.06,1.2-10.7,.73-21.39,.32-32.1,.63-10.12,.3-26.01,2.63-27.23,14.95-.54,5.5,3.03,10.47,7.55,13.24,2.47,1.52,5.38,2.43,8.13,3.27,3.07,.94,6.21,1.64,9.38,2.18,12.52,2.12,25.33,2.05,37.98,2.22,11.13,.15,22.21,.29,33.35,.52,3.2,.06,8.2,.29,11.3,.05,1.35-.1,.89-.9,.89-2.32,0-1.27-.86-2.89-2.42-2.86-6.19,.1-12.47-.32-18.64-.22,.11-.48,.16-.6,.28-1.02,5.86-20.26,21.65-35.77,38.69-47.29,4.56-3.08,9.41-5.73,13.93-8.86,4.92-3.42,8.91-7.59,11.64-12.96,4.97-9.76,6.74-20.94,8.13-31.69,1.68-13.02,2.45-27.28,6.92-39.89Z"/><path class="f" d="M374.17,172.16c-10.81-8.67-25.15-9.75-38.43-10.74-1.59-.12-3.17-.24-4.76-.37-1.56-.13-3.51-.03-4.96-.7-1.13-.53-1.38-1.85-.69-2.63,1.16-1.32,2.62-2.39,3.82-4.02,2.59-3.53,2.09-6.74,.18-10.05-1.67-2.89-4.57-4.67-7.6-5.85-3.4-1.32-7.14-1.72-10.73-2.23-4.48-.64-8.99-1.14-13.5-1.48-8.58-.64-17.31-.94-25.91-.42-.14,0-.28,.02-.42,.03,.61-.78,1.21-1.57,1.81-2.38,3.83-5.14,8-10.3,10.96-16.01,1.85-3.56,3.33-8.78,.05-12-2.07-2.03-5.19-2.27-7.89-1.76-.08,.02-.16,.05-.23,.07,2.01-7.97,3.74-16.04,3.84-24.21-.36-.28-2.38-1.37-2.75-.76-1.48,.45-1.28,.62-2.25,1.62-.13,5.07-.93,10.16-2.02,15.14-.69,3.13-1.46,6.24-2.26,9.34-.12,.48-.1,.91,0,1.29-1.08,.64-2.14,1.32-3.19,1.96-2.82,1.71-5.62,3.45-8.33,5.33-5.28,3.66-10.37,7.77-15.27,11.93-4.69,3.99-9.45,8.4-12.49,13.82-2.94,5.24-3.96,11.15-2.91,17.07,1.07,6.04,3.92,11.98,7.01,17.23,3.18,5.39,7.06,10.3,11.17,15,5.04,5.77,9.76,11.86,14.8,17.64-4.35-.55-8.72-.82-13.09-.15-5.19,.8-13.07,4.26-10.41,10.92,1.46,3.66,9.07,8.64,3.8,12.65-1.82,1.38-4.43,2.09-6.6,2.66-3.07,.81-6.23,1.07-9.4,1.17-5.94,.17-12.02,.27-17.95-.25-2.57-.22-5.6-.5-7.92-1.7-1.89-.97-2.07-2.72-.62-4.2,1.41-1.44,3.41-1.54,5.31-1.71,2.36-.21,4.72-.39,6.91-1.39,5.32-2.44,6.56-9.55,3.01-13.99-2.15-2.69-5.57-3.59-8.87-3.74-3.58-.16-7.24,.24-10.81,.53-7.66,.63-15.3,1.66-22.83,3.2-1.32,.27-2.09,1.84-1.75,3.08,.38,1.38,1.75,2.02,3.08,1.75,6.63-1.36,13.33-2.3,20.07-2.9,3.28-.29,6.56-.53,9.85-.65,2.31-.08,5.19-.19,7.03,1.48,1.45,1.32,1.71,3.67,.66,5.31-.95,1.48-2.63,1.91-4.24,2.12-2.25,.29-4.56,.26-6.75,.92-2.56,.77-4.85,2.52-5.98,4.99-1.27,2.78-.76,5.93,1.45,8.09,2.01,1.98,4.94,2.71,7.64,3.2,5.92,1.08,11.97,.91,17.96,.92,6.33,0,12.6-.24,18.61-2.4,2.42-.87,4.92-1.89,6.63-3.89,1.98-2.31,2.86-5.58,1.98-8.53-.93-3.08-3.32-5.01-5.08-7.56-.63-.92-.97-1.72-.24-2.59,.78-.93,2.04-1.43,3.16-1.8,6.3-2.07,13.23-.89,19.62,.09,.31,.05,.63,.05,.93,.02,1.95,2.01,3.95,3.97,6.08,5.82,9.16,7.95,20.99,15.08,33.57,14.05,3.11-.25,6.18-.88,9.19-1.68,2.81-.75,5.49-1.63,7.7-3.59,1.95-1.72,3.12-4.18,3.22-6.78,.11-2.99-1.28-5.85-2.96-8.25,15.44,.93,31.3,.3,46.01-4.68,3.45-1.17,6.91-2.73,9.51-5.35,2.53-2.56,3.9-5.9,4.14-9.47,.46-6.92-3.39-13.39-8.63-17.59Zm-54.58,48.38c-1.67,1.59-4.01,2.07-6.17,2.64-5.36,1.4-10.82,2.07-16.27,.73-5.67-1.39-10.94-4.28-15.68-7.61-9.97-7-17.63-16.71-25.31-26.03-3.76-4.56-7.83-8.9-11.39-13.62-3.45-4.57-6.5-9.48-8.8-14.74-2.12-4.83-3.89-10.26-2.93-15.59,.99-5.46,4.16-9.87,7.95-13.78,4.23-4.35,9.02-8.11,13.78-11.85,4.81-3.76,9.76-7.18,14.98-10.35,2.43-1.48,4.87-3.28,7.68-3.95,.55-.1,1.13-.14,1.69-.05,.49,.08,.79,.21,1.05,.33,.37,.18,.65,.52,.73,1.06,0,.03,.01,.1,.02,.15,.02,.2,.02,.41,.02,.61,0,.17-.01,.33-.03,.5,0,.05,0,.08,0,.11,0,.02-.01,.05-.02,.11-.17,.88-.43,1.75-.77,2.58-.05,.1-.2,.45-.2,.44-.07,.15-.15,.3-.22,.45-.22,.42-.45,.83-.7,1.25-.86,1.47-1.78,2.9-2.72,4.32-1.72,2.58-3.54,5.08-5.38,7.57-1.67,2.26-3.28,4.6-5.12,6.73-1.61,1.86-3.32,3.62-4.8,5.58-3.2,4.22-4.42,9.56-2.46,14.61,2.12,5.45,6.48,9.08,10.9,12.64,4.7,3.78,9.39,7.57,14.02,11.42,9.33,7.77,18.44,15.86,26.71,24.77,2.12,2.29,4.19,4.62,6.18,7.02,1.65,1.98,3.56,4.08,4.39,6.56,.69,2.05,.44,3.87-1.12,5.37Z"/></g><path class="f" d="M283.68,62.29c-.29-4.95-.96-9.94-2.39-14.7-2.94-9.84-9.15-17.96-17.76-23.53-10.79-6.98-24.19-10.12-36.97-9.12-6.53,.51-12.88,2.05-18.87,4.7-5.74,2.54-10.65,6.24-15.14,10.59-9.28,9.01-16.01,20.67-16.36,33.84-.04,1.31,.77,2.08,1.75,2.32,.24,.08,.49,.15,.75,.18,2.53,.31,5.1,.32,7.65,.36,2.73,.05,5.47,.16,8.21,.09,7.12-.17,14.24-.09,21.34,.36,6.37,.41,12.72,1.11,19.03,2.1,7.03,1.1,13.96,2.61,20.94,3.97,3.98,.78,7.98,1.42,11.78,2.86,3.36,1.28,6.61,2.74,10.15,3.5,1.09,.23,2.24-.15,2.82-1.15,2.91-4.95,3.39-10.77,3.07-16.38Zm-23.84,6.86c-7.17-1.4-14.31-2.96-21.52-4.15-13.54-2.23-27.19-3.23-40.91-3.03-3.34,.05-6.65,.04-9.98-.02-2.02-.03-4.06-.04-6.08-.16,.87-9.51,5.53-18.12,11.95-25.14,3.68-4.03,7.79-7.78,12.55-10.49,5.19-2.96,10.92-4.83,16.81-5.77,19.91-3.18,44.92,5.17,52.69,25.21,1.79,4.63,2.76,9.54,3.18,14.46,.41,4.82,.58,9.93-1.39,14.42-2.48-.71-4.86-1.68-7.27-2.64-3.27-1.3-6.58-2.02-10.03-2.69Z"/><path class="f" d="M281.72,87.7c-.53-1.81-1.83-3.13-3.56-3.61-1.33-.37-2.7,.41-3.07,1.74-.37,1.33,.41,2.71,1.74,3.08,.21,.21,.22,1.2-.13,1.58-.27,.3-1.78,.35-2.43,.38-.27,0-.54,.02-.78,.04-2.02,.12-4.06,.14-6.09,.05-1.17-.05-2.35-.18-3.6-.32-.63-.07-1.27-.14-1.92-.2-.05-.34-.11-.68-.2-1.02-.93-3.4-4.44-4.95-7.57-5.72-1.33-.33-2.69-.55-4.05-.71-1.96-.23-3.94-.33-5.91-.42-2.9-.14-5.82-.37-8.37,1.34-.26,.18-.52,.37-.75,.59-1.06,1.02-1.78,2.32-2.3,3.7l-12.98-1.11s-.06,0-.09,0c-.03-1.27-.31-2.53-.86-3.68-.9-1.91-2.06-3.53-4.05-4.25-3.12-1.14-6.29-1.28-9.59-1.69-1.27-.16-2.66-.32-4.06-.41-1.79-.11-3.61-.1-5.23,.19-1.08,.2-2.18,.63-3,1.38-.91,.83-1.36,2.46-1.78,3.58-.32,.84-.6,1.75-.82,2.68-3.58-.29-7.17-.85-10.68-1.67-1.06-.25-2.16-.53-3.04-1.01-.14-.08-.22-.13-.27-.17,0-.05-.02-.13-.04-.25-.06-.57,.02-.8,0-.8,.16-.16,.63-.38,.85-.4,1.38-.04,2.46-1.19,2.42-2.57-.04-1.38-1.22-2.47-2.57-2.43-1.78,.05-3.83,1.13-4.78,2.52-.76,1.11-1.06,2.51-.89,4.18,.06,.58,.19,1.46,.69,2.3,.46,.79,1.17,1.44,2.17,1.99,1.44,.8,2.99,1.2,4.33,1.51,3.74,.87,7.58,1.47,11.4,1.78,.02,0,.04,0,.06,0,.27,2.15,1.2,4.12,3.22,5.44,1.36,.89,2.99,1.23,4.59,1.5,3.44,.58,6.93,.9,10.42,.94,2.51,.03,5.19-.13,7.21-1.61,1.45-1.06,2.35-2.66,3.1-4.32,.26,.12,.54,.21,.85,.24l12.33,1.05c-.07,1.38,.1,2.77,.64,4.03,1.51,3.56,6.67,4.73,10.07,5.54,3.34,.79,6.81,1.25,10.24,.95,2.88-.25,6.41-.75,7.91-3.54,.76-1.42,1.01-3.06,1.2-4.66,.5,.05,1,.1,1.51,.16,1.28,.14,2.59,.29,3.94,.35,.92,.04,1.84,.06,2.76,.06,1.29,0,2.57-.04,3.85-.12,.21-.01,.43-.02,.67-.03,1.71-.06,4.28-.16,5.97-2.04,1.39-1.55,1.91-4.01,1.29-6.12Z"/><rect class="g" x="0" y="144.63" width="15" height="80" rx="7.5" ry="7.5"/><rect class="g" x="380.52" y="144.63" width="15" height="80" rx="7.5" ry="7.5"/><rect class="g" x="202.53" y="0" width="62.54" height="14.76" rx="7.11" ry="7.11"/></g></g></g></svg>