<?xml version="1.0" encoding="UTF-8"?><svg xmlns="http://www.w3.org/2000/svg" viewBox="0 0 667.83 168.21"><defs><style>.d{fill:none;}.e{fill:#f3e9f4;}.f{fill:#0047a7;}.g{fill:#006942;}.h{fill:#ffa700;}.i{fill:#f00000;}.j{fill:#722e79;}</style></defs><g id="a"/><g id="b"><g id="c"><g><path class="d" d="M565.5,67.07c-2.56,2.4-5.27,4.58-8.12,6.55,.17,2.12,.5,3.53,.98,4.21,.75,1.08,2.78,1.69,6.09,1.86l3.61,.25c17.74,1.16,26.62-6.52,26.62-23.02,0-10.16-3.3-17.04-9.86-20.68-3.73,11.66-10.25,22.32-19.32,30.83Z"/><path class="d" d="M427.11,68.61c-.03-9.07-.73-31.53-11.64-32.61-1.22-.12-2.47,.12-3.72,.62-8.04,3.18-13.71,11.68-17.52,19.27,3.86,.03,7.81,.45,11.85,1.36,6.84,1.53,13.95,4.97,21.03,11.37Z"/><path class="d" d="M387.12,110.16c1.13,9.95,3.81,26.31,18.54,26.45,14.85,.14,20.75-21.12,21.19-39.67,.21-8.93,.23-17.88,.25-26.82,0-.45,0-.96,0-1.52-7.08-6.4-14.19-9.84-21.03-11.37-4.04-.9-7.99-1.32-11.85-1.36-.81,1.62-1.55,3.2-2.2,4.68-6.87,15.65-6.78,33.16-4.91,49.59Z"/><path class="d" d="M69.94,77.84c.75,1.08,2.78,1.69,6.09,1.86l3.61,.25c8.85,.58,15.49-1.04,19.93-4.86-10.82-6.1-21.02-13.33-30.76-19.11v13.33c0,4.62,.37,7.47,1.13,8.54Z"/><path class="d" d="M106.26,56.92c0-15.84-7.97-23.76-23.91-23.76-3.91,0-6.62,.25-8.12,.74-2.71,.83-4.36,2.81-4.96,5.94-.3,1.65-.45,4.13-.45,7.42v8.7c9.73,5.79,19.93,13.01,30.76,19.11,4.46-3.83,6.69-9.89,6.69-18.16Z"/><path class="d" d="M562.64,33.91c-2.71,.83-4.36,2.81-4.96,5.94-.3,1.65-.45,4.13-.45,7.42v22.03c0,1.68,.05,3.12,.15,4.33,2.85-1.97,5.57-4.16,8.12-6.55,9.07-8.51,15.59-19.17,19.32-30.83-3.67-2.04-8.34-3.07-14.06-3.07-3.91,0-6.62,.25-8.12,.74Z"/><path class="i" d="M99.56,75.08c-4.44,3.81-11.08,5.44-19.93,4.86l-3.61-.25c-3.31-.16-5.34-.78-6.09-1.86-.75-1.07-1.13-3.92-1.13-8.54v-13.33c-14.05-8.35-27.13-13.69-39.71-8.27,0,.58,0,1.17,0,1.8V118.05c0,11.22-2.03,16.83-6.09,16.83-1.05,0-2.78-.29-5.19-.87-2.41-.58-4.29-.87-5.64-.87-3.46,0-6.36,1.57-8.69,4.7-2.33,3.14-3.5,7.02-3.5,11.63,0,5.44,1.47,9.82,4.4,13.12,2.93,3.3,6.8,4.95,11.62,4.95,1.05,0,3.08-.17,6.09-.49l11.05-1.24c4.36-.49,9.77-.74,16.24-.74,4.21,0,10.45,.41,18.72,1.24,8.27,.82,14.51,1.24,18.72,1.24,4.81,0,8.72-1.65,11.73-4.95,3.01-3.3,4.51-7.67,4.51-13.12,0-4.95-1.13-8.91-3.38-11.88-2.26-2.97-5.27-4.45-9.02-4.45-2.26,0-5.04,.33-8.35,.99-2.71,.5-4.96,.74-6.77,.74-4.51,0-6.77-2.8-6.77-8.42v-7.92c0-5.11,2.03-7.59,6.09-7.42l6.32,.25c4.21,.17,7.07,.25,8.57,.25,18.05,0,32.3-5.03,42.75-15.1,2.77-2.67,5.16-5.59,7.2-8.76-1.11-.03-2.24-.08-3.38-.16-13.09-.85-25.29-6.05-36.79-12.53Z"/><path class="g" d="M132.99,15.72C122.84,5.57,109.56,.49,93.17,.49c-1.51,0-7.67,.41-18.5,1.24-8.57,.66-16.47,.99-23.69,.99-3.76,0-9.33-.41-16.69-1.24C26.92,.66,21.43,.25,17.82,.25c-.3,0-.6-.08-.9-.25h-.68C11.43,0,7.52,1.69,4.51,5.07,1.5,8.46,0,12.87,0,18.31c0,4.62,1.16,8.5,3.5,11.63,2.33,3.14,5.22,4.7,8.69,4.7,1.35,0,3.19-.29,5.53-.87,2.33-.58,4.1-.87,5.3-.87,3.01,0,4.89,2.15,5.64,6.44,.26,1.31,.41,4.09,.44,8.34,12.58-5.41,25.66-.08,39.71,8.27v-8.7c0-3.3,.15-5.77,.45-7.42,.6-3.13,2.26-5.11,4.96-5.94,1.5-.49,4.21-.74,8.12-.74,15.94,0,23.91,7.92,23.91,23.76,0,8.27-2.23,14.32-6.69,18.16,11.5,6.48,23.7,11.68,36.79,12.53,1.15,.07,2.27,.12,3.38,.16,5.65-8.78,8.48-19.47,8.48-32.08,0-16.5-5.08-29.82-15.23-39.97Z"/><path class="h" d="M293.05,87.86c-5.41,0-9.93,1.77-13.54,5.32-3.61,3.55-5.41,7.96-5.41,13.24,0,2.31,.37,5.53,1.13,9.65,.6,2.81,.9,5.44,.9,7.92,0,8.25-6.09,12.37-18.27,12.37h-11.05c-1.66,0-3.16-.04-4.51-.12-1.35-.08-2.48-.21-3.38-.37-3.91-.66-6.47-3.13-7.67-7.42-.45-1.65-.68-5.69-.68-12.13V46.53c0-9.07,2.4-13.61,7.22-13.61,1.65,0,4.02,.29,7.11,.87,3.08,.58,5.45,.87,7.11,.87,3.46,0,6.32-1.57,8.57-4.7,2.26-3.13,3.38-7.09,3.38-11.88,0-5.44-1.47-9.78-4.4-12.99-2.93-3.22-6.88-4.83-11.84-4.83-3.16,0-8.35,.49-15.57,1.48-2.41,.33-4.82,.58-7.22,.74-2.41,.17-4.89,.25-7.45,.25-2.16,0-4.39-.06-6.67-.14-2.56,15.75-5.56,42.97-19.95,62.42v53.06c0,11.22-2.03,16.83-6.09,16.83-1.21,0-2.97-.29-5.3-.87-2.33-.58-4.1-.87-5.3-.87-3.61,0-6.58,1.53-8.91,4.58-2.33,3.06-3.5,6.97-3.5,11.76,0,5.28,1.47,9.65,4.4,13.12,2.93,3.46,6.73,5.2,11.39,5.2,2.26,0,4.55-.12,6.88-.37,2.33-.25,4.85-.58,7.56-.99,2.71-.41,5.68-.74,8.91-.99,3.23-.25,6.88-.37,10.94-.37,27.07,0,47.83,.49,62.27,1.48,4.81,.33,9.02,.58,12.63,.74,3.61,.16,6.69,.25,9.25,.25,9.77,0,14.66-4.54,14.66-13.61,0-.33-.08-1.44-.23-3.34-.15-1.9-.38-4.49-.68-7.8-.15-1.65-.26-3.3-.34-4.95-.08-1.65-.11-3.3-.11-4.95,0-1.32,.07-3.05,.23-5.2,.15-2.14,.37-4.62,.68-7.42,.3-2.8,.53-5.28,.68-7.42,.15-2.14,.23-3.96,.23-5.44,0-13.03-6.02-19.55-18.05-19.55Z"/><path class="g" d="M208.11,2.47c-3.24-.16-6.66-.41-10.27-.74-10.83-.99-17.3-1.48-19.4-1.48-11.13,0-16.69,6.02-16.69,18.07,0,4.62,1.16,8.5,3.5,11.63,2.33,3.14,5.22,4.7,8.69,4.7,1.35,0,3.19-.29,5.53-.87,2.33-.58,4.1-.87,5.3-.87,4.06,0,6.09,5.53,6.09,16.58v15.5c14.39-19.45,17.4-46.67,19.95-62.42-.9-.03-1.78-.06-2.7-.11Z"/><path class="j" d="M579.11,133.15c-2.26,0-5.04,.33-8.35,.99-2.71,.5-4.96,.74-6.77,.74-4.51,0-6.77-2.8-6.77-8.42v-7.92c0-5.11,2.03-7.59,6.09-7.42l6.32,.25c4.21,.17,7.07,.25,8.57,.25,18.05,0,32.3-5.03,42.75-15.1,10.45-10.06,15.68-23.67,15.68-40.84s-5.08-29.82-15.23-39.97c-8.88-8.88-20.15-13.87-33.81-14.98,1.8,12.08,.82,24.26-2.78,35.5,6.56,3.64,9.86,10.53,9.86,20.68,0,16.5-8.88,24.17-26.62,23.02l-3.61-.25c-3.31-.16-5.34-.78-6.09-1.86-.48-.68-.8-2.09-.98-4.21-11.65,8.06-25.52,12.5-39.86,13.03v31.39c0,11.22-2.03,16.83-6.09,16.83-1.05,0-2.78-.29-5.19-.87-2.41-.58-4.29-.87-5.64-.87-3.46,0-6.36,1.57-8.69,4.7-2.33,3.14-3.5,7.02-3.5,11.63,0,5.44,1.47,9.82,4.4,13.12,2.93,3.3,6.8,4.95,11.62,4.95,1.05,0,3.08-.17,6.09-.49l11.05-1.24c4.36-.49,9.77-.74,16.24-.74,4.21,0,10.45,.41,18.72,1.24,8.27,.82,14.51,1.24,18.73,1.24,4.81,0,8.72-1.65,11.73-4.95,3.01-3.3,4.51-7.67,4.51-13.12,0-4.95-1.13-8.91-3.38-11.88-2.26-2.97-5.27-4.45-9.02-4.45Z"/><path d="M557.23,69.3v-22.03c0-3.3,.15-5.77,.45-7.42,.6-3.13,2.26-5.11,4.96-5.94,1.5-.49,4.21-.74,8.12-.74,5.72,0,10.39,1.04,14.06,3.07,3.6-11.25,4.59-23.43,2.78-35.5-1.96-.16-3.96-.24-6.01-.24-1.5,0-7.67,.41-18.5,1.24-8.57,.66-16.47,.99-23.69,.99-3.76,0-9.33-.41-16.69-1.24-7.37-.82-12.86-1.24-16.47-1.24-.3,0-.6-.08-.9-.25h-.68c-4.81,0-8.72,1.69-11.73,5.07-3.01,3.38-4.51,7.8-4.51,13.24,0,4.62,1.16,8.5,3.5,11.63,2.33,3.14,5.22,4.7,8.69,4.7,1.35,0,3.19-.29,5.53-.87,2.33-.58,4.1-.87,5.3-.87,3.01,0,4.89,2.15,5.64,6.44,.3,1.48,.45,4.87,.45,10.15v37.16c14.34-.53,28.21-4.98,39.86-13.03-.1-1.21-.15-2.65-.15-4.33Z"/><path class="f" d="M289.69,52.83c1.01,2.18,1.89,4.65,3.47,6.57,1.12,1.37,2.89,2.37,4.86,1.99,.05-.01,.11-.02,.16-.03,3.28-.73,3.69-5.1,5.12-7.36,1.8-2.84,4.23-5.31,6.67-7.73,3.93-3.89,8.74-6.99,13.32-10.27,4.58-3.28,9.06-6.85,12-11.38,3.85-5.92,4.39-12.47-.63-17.8C330.38,2.29,323.54-.18,316.92,.01c-7.99,.23-15.56,4.02-20.73,9.43-5.17,5.41-8.09,12.3-9.29,19.31-.93,5.44-1.12,11,.12,16.41,.6,2.63,1.51,5.19,2.67,7.66Z"/><path class="f" d="M475.42,59.44c-1.53-10.24-5.52-21.32-11.81-31.11-9.24-14.38-23.43-25.98-42.03-28.02-18.05-1.98-36.04,6-48.63,17.29-17,15.24-29.68,36.02-35,57.5,16.76-8.07,35.25-19.39,56.29-19.2,3.81-7.59,9.48-16.08,17.52-19.27,1.25-.49,2.5-.74,3.72-.62,10.91,1.08,11.61,23.54,11.64,32.61,12.81,11.58,25.55,32.86,36.52,70.06,1.19-1.74,2.31-3.54,3.37-5.41,12.6-22.39,12.03-49.6,8.42-73.82Z"/><path class="e" d="M427.11,68.61c0,.56,0,1.07,0,1.52-.02,8.94-.04,17.88-.25,26.82-.44,18.55-6.35,39.81-21.19,39.67-14.73-.14-17.41-16.5-18.54-26.45-1.87-16.43-1.95-33.94,4.91-49.59,.65-1.48,1.38-3.06,2.2-4.68-21.04-.19-39.53,11.13-56.29,19.2-2.47,9.97-3.36,20.08-2.36,29.87,1.65,16.15,8.76,32.1,21.49,44.07s31.29,19.62,50.15,19.17c24.71-.6,44.15-11.58,56.41-29.52-10.97-37.2-23.71-58.48-36.52-70.06Z"/><path class="j" d="M647.87,134.7c-6.95,0-13.21,3.98-19.45,6.29-5.12,1.89-11.5,4.24-11.5,10.47,0,5.84,5.3,7.97,10.11,9.86,6.77,2.66,13.2,6.9,20.84,6.9,11.02,0,19.96-7.5,19.96-16.76s-8.94-16.76-19.96-16.76Z"/></g></g></g></svg>