<svg width="170" height="170" viewBox="0 0 170 170" fill="none" xmlns="http://www.w3.org/2000/svg">
<path d="M106.25 42.5H95.625C95.625 35.4552 92.8265 28.6989 87.845 23.7175C82.8636 18.736 76.1073 15.9375 69.0625 15.9375C62.0177 15.9375 55.2614 18.736 50.28 23.7175C45.2985 28.6989 42.5 35.4552 42.5 42.5H31.875C31.875 32.6373 35.793 23.1785 42.767 16.2045C49.741 9.23046 59.1998 5.3125 69.0625 5.3125C78.9252 5.3125 88.384 9.23046 95.358 16.2045C102.332 23.1785 106.25 32.6373 106.25 42.5Z" fill="white"/>
<path d="M132.813 79.6875C130.068 79.6974 127.375 80.4303 125.003 81.8125C123.571 79.5408 121.588 77.6679 119.238 76.3676C116.889 75.0673 114.248 74.3819 111.563 74.375C108.818 74.3849 106.125 75.1178 103.753 76.5C101.821 73.4587 98.9142 71.1622 95.5084 69.9852C92.1026 68.8081 88.3985 68.8199 85.0003 70.0188V42.5C85.0003 38.2731 83.3212 34.2193 80.3323 31.2305C77.3434 28.2416 73.2897 26.5625 69.0628 26.5625C64.8359 26.5625 60.7821 28.2416 57.7933 31.2305C54.8044 34.2193 53.1253 38.2731 53.1253 42.5V101.469L41.2784 93.3938C38.5626 91.3712 35.2614 90.2895 31.8753 90.3125C28.7142 90.3047 25.6223 91.2371 22.9925 92.9911C20.3627 94.7451 18.3139 97.2416 17.1066 100.163C15.8993 103.084 15.5881 106.299 16.2124 109.398C16.8367 112.496 18.3684 115.34 20.6128 117.566L63.1128 156.347C69.1297 161.732 76.9253 164.703 85.0003 164.688H111.563C121.426 164.688 130.884 160.77 137.858 153.796C144.832 146.822 148.75 137.363 148.75 127.5V95.625C148.75 91.3981 147.071 87.3443 144.082 84.3555C141.093 81.3666 137.04 79.6875 132.813 79.6875ZM138.125 127.5C138.125 134.545 135.327 141.301 130.345 146.283C125.364 151.264 118.608 154.063 111.563 154.063H85.0003C79.6304 154.127 74.4198 152.24 70.3378 148.75L28.1034 109.969C27.122 108.979 26.5686 107.644 26.5628 106.25C26.5628 105.263 26.8375 104.296 27.3562 103.457C27.8749 102.618 28.617 101.94 29.4995 101.498C30.3819 101.057 31.3698 100.87 32.3524 100.959C33.335 101.048 34.2735 101.408 35.0628 102L63.7503 121.656V42.5C63.7503 41.091 64.31 39.7398 65.3063 38.7435C66.3026 37.7472 67.6538 37.1875 69.0628 37.1875C70.4717 37.1875 71.823 37.7472 72.8193 38.7435C73.8156 39.7398 74.3753 41.091 74.3753 42.5V100.938H85.0003V85C85.0003 83.591 85.56 82.2398 86.5563 81.2435C87.5526 80.2472 88.9038 79.6875 90.3128 79.6875C91.7217 79.6875 93.073 80.2472 94.0693 81.2435C95.0656 82.2398 95.6253 83.591 95.6253 85V100.938H106.25V90.3125C106.25 88.9035 106.81 87.5523 107.806 86.556C108.803 85.5597 110.154 85 111.563 85C112.972 85 114.323 85.5597 115.319 86.556C116.316 87.5523 116.875 88.9035 116.875 90.3125V100.938H127.5V95.625C127.5 94.216 128.06 92.8648 129.056 91.8685C130.053 90.8722 131.404 90.3125 132.813 90.3125C134.222 90.3125 135.573 90.8722 136.569 91.8685C137.566 92.8648 138.125 94.216 138.125 95.625V127.5Z" fill="white"/>
</svg>
