<svg width="559" height="558" viewBox="0 0 559 558" fill="none" xmlns="http://www.w3.org/2000/svg">
<g clip-path="url(#clip0_1806_2027)">
<path d="M306.619 114.368C328.453 110.436 350.937 109.913 371.774 117C397.966 125.909 420.672 149.309 421.813 176.958C422.542 194.239 417.297 212.01 407.457 226.231C399.63 237.551 391.469 248.268 383.673 258.145L386.003 255.18C346.089 258.446 317.172 258.937 277.178 257.003L283.992 244.653C299.235 203.37 291.344 165.322 289.95 121.344L306.635 114.368H306.619Z" fill="#FFF4C0"/>
<path d="M530.701 339.806C527.785 336.35 524.315 333.386 520.813 330.532C517.28 327.662 513.715 324.888 509.817 322.542C505.38 319.878 500.516 317.421 495.429 316.28C489.931 315.043 484.401 313.965 478.887 312.839C467.954 310.604 457.005 308.416 446.04 306.228C422.938 301.631 399.852 296.97 376.845 291.897C372.345 290.898 367.86 289.883 363.376 288.853C367.48 284.255 371.6 279.689 375.64 275.06C387.904 261.046 400.295 246.904 410.864 231.542C422.859 214.119 429.054 190.608 424.364 169.681C420.197 151.132 407.109 135.517 391.375 125.418C372.836 113.512 350.256 109.897 328.549 111.086C306.524 112.291 284.8 117.84 263.948 124.799C242.969 131.807 222.687 140.78 203.388 151.529C203.943 146.551 203.911 141.509 202.738 136.658C201.296 130.665 197.24 123.42 190.633 122.215C183.328 120.884 178.606 127.257 176.34 133.329C174.946 137.038 174.328 141.097 172.411 144.601C171.603 146.075 170.636 147.423 169.432 148.58C168.988 149.008 168.862 149.071 168.386 149.373C168.069 149.579 167.879 149.642 167.705 149.674C167.641 149.674 167.42 149.674 167.245 149.674C167.214 149.674 167.182 149.658 167.119 149.642C167.071 149.626 166.976 149.595 166.897 149.563C166.754 149.499 166.612 149.42 166.501 149.341C165.898 148.96 165.154 148.247 164.52 147.423C163.332 145.885 161.842 142.984 161.177 141.287C158.467 134.391 157.295 126.829 156.502 119.504C154.633 102.113 155.298 84.3728 151.083 67.2826C149.309 60.1009 146.235 53.1411 140.483 48.2265C135.745 44.168 130.089 42.2021 123.893 42.0277C115.828 41.8058 108.381 45.0716 102.36 50.2875C95.9898 55.8045 91.363 63.3033 87.7662 70.8496C83.5355 79.6959 80.4299 89.0496 77.9422 98.5142C73.2521 116.286 70.5742 134.565 68.7362 152.845C65.9158 180.842 64.87 209.077 65.5196 237.202C65.8365 250.899 66.5971 264.597 67.8489 278.263C67.8489 278.358 67.8489 278.469 67.8806 278.564C69.7978 299.395 72.8876 320.132 77.451 340.536C78.3859 344.753 79.4 348.938 80.4616 353.123C81.4123 356.865 82.2996 360.622 83.9317 364.142C86.9422 370.658 93.9933 375.445 100.965 371.26C107.541 367.328 108.872 358.656 109.854 351.712C110.678 345.847 111.027 337.65 115.194 333.291C116.588 331.832 118.664 330.912 120.486 330.706C123.275 330.389 125.604 330.833 128.266 331.848C133.86 334.004 137.266 338.681 139.722 344.134C142.115 349.445 142.147 354.851 142.574 360.638C143.034 366.71 143.034 372.845 144.032 378.854C144.951 384.418 147.265 389.777 151.812 393.296C157.39 397.609 165.011 398.639 171.825 397.466C179.129 396.214 185.673 391.901 190.126 386.036C194.214 380.629 197.684 374.098 199.601 367.582C201.138 362.398 201.534 356.944 201.772 351.538C211.469 350.603 221.15 349.334 230.8 347.717C238.992 346.338 247.152 344.753 255.297 343.025C256.517 342.771 257.293 342.121 257.737 341.297C259.923 344.689 262.554 347.781 265.659 350.301C272.6 355.945 281.029 359.259 289.681 361.272C309.82 365.965 331.147 365.22 351.698 365.267C378.477 365.331 405.255 364.617 432.001 363.603C446.31 363.064 460.634 362.588 474.942 362.128C491.072 361.605 507.218 361.098 523.349 360.559C528.387 360.384 532.824 358.308 534.662 353.298C536.563 348.177 533.933 343.627 530.701 339.79V339.806ZM374.214 125.449C390.487 131.87 404.954 144.284 412.655 160.106C421.116 177.481 418.723 198.725 410.737 215.847C406.903 224.091 401.5 231.415 395.938 238.549C391.707 243.987 387.334 249.298 382.897 254.561C382.866 254.561 382.85 254.561 382.834 254.561C355.866 256.765 328.897 257.954 301.85 257.304C295.702 257.161 289.538 256.924 283.39 256.654C289.791 247.839 296.494 239.263 303.529 230.955C307.475 226.294 311.515 221.729 315.651 217.242C319.105 213.501 313.512 207.888 310.042 211.63C301.755 220.603 293.848 229.972 286.321 239.627C293.737 211.011 297.381 181.397 296.938 151.83C296.795 142.556 296.225 133.313 295.29 124.086C299.742 123.056 304.211 122.136 308.695 121.343C330.355 117.554 353.457 117.269 374.198 125.449H374.214ZM75.8348 161.96C76.3894 155.27 77.0707 148.58 77.8947 141.921C78.0214 140.907 78.1482 139.892 78.275 138.893C78.37 138.212 78.4493 137.593 78.6394 136.262C78.9405 134.09 79.2732 131.934 79.606 129.762C80.3348 125.148 81.1429 120.535 82.0619 115.953C83.9317 106.6 86.2292 97.3093 89.2715 88.2728C92.0761 79.9337 95.1342 72.546 100.157 64.9679C100.664 64.207 101.187 63.446 101.742 62.7009C101.821 62.5899 102.185 62.0984 102.28 61.9716C102.581 61.5911 102.882 61.2106 103.183 60.846C104.356 59.435 105.592 58.1033 106.939 56.8509C107.588 56.2484 108.254 55.6936 108.935 55.1228C109.046 55.0277 109.11 54.9801 109.141 54.9484C109.189 54.9167 109.284 54.8533 109.474 54.7265C109.838 54.457 110.203 54.2033 110.583 53.9497C111.28 53.4899 112.009 53.046 112.754 52.6338C113.103 52.4436 113.451 52.2692 113.8 52.0948C113.942 52.0155 114.513 51.7777 114.719 51.6826C116.176 51.096 117.698 50.6362 119.235 50.3192C119.504 50.2716 119.757 50.2241 120.027 50.1765C120.154 50.1765 120.676 50.0814 120.851 50.0655C121.77 49.9863 122.705 49.9545 123.624 49.9704C124.479 49.9704 125.319 50.0497 126.175 50.1289C126.428 50.1606 126.555 50.1606 126.618 50.1606C126.666 50.1606 126.745 50.1923 126.919 50.2241C127.648 50.3667 128.361 50.4936 129.074 50.6997C131.99 51.5241 134.493 53.2521 136.585 55.4082C141.576 60.5606 143.256 67.5521 144.571 74.4008C146.124 82.4703 146.662 90.6984 147.138 98.8788C147.645 107.408 148.073 115.953 149.214 124.435C150.164 131.506 151.479 138.592 154.3 145.187C156.328 149.943 159.386 155.334 164.552 157.125C171.175 159.424 176.863 153.368 179.573 148.009C181.395 144.426 182.266 140.526 183.534 136.737C184.025 135.279 184.596 133.899 185.42 132.584C185.721 132.108 185.974 131.759 186.323 131.379C186.893 130.745 187.147 130.57 187.511 130.348C187.67 130.253 187.828 130.174 188.002 130.095C188.097 130.063 188.272 130.015 188.319 129.999C188.494 129.968 188.731 129.904 188.906 129.92C189.27 129.952 190.173 130.317 190.522 130.586C192.803 132.282 194.15 135.231 194.895 137.895C196.59 143.951 195.877 150.546 194.562 156.649C182.758 163.657 171.333 171.314 160.384 179.605C128.694 203.576 100.918 232.255 77.1658 264.074C76.4211 265.088 75.6764 266.103 74.9316 267.117C74.7415 264.486 74.5355 261.854 74.3771 259.222C72.4598 226.833 73.1411 194.286 75.8507 161.96H75.8348ZM191.742 366.171C190.839 369.009 189.571 371.672 188.129 374.272C186.45 377.3 184.738 380.487 182.362 383.023C178.178 387.526 172.316 390.157 166.152 390.015C163.3 389.951 160.353 389.317 157.897 387.89C155.869 386.717 154.696 385.433 153.571 383.293C151.495 379.329 151.242 374.114 150.988 369.247C150.719 363.951 150.465 358.609 149.879 353.329C164.552 353.71 179.193 353.329 193.786 352.204C193.58 356.944 193.168 361.542 191.726 366.139L191.742 366.171ZM253.173 335.383C225.951 341.154 198.46 345.038 170.604 345.577C163.236 345.72 155.853 345.64 148.485 345.419C145.633 335.272 138.613 326.188 128.044 323.493C122.293 322.019 115.939 322.573 111.154 326.331C105.782 330.548 103.976 337.777 102.978 344.214C102.455 347.606 102.09 351.015 101.456 354.392C100.902 357.261 100.3 360.876 98.3666 363.206C96.893 364.998 94.944 365.394 93.518 364.221C91.4264 362.525 90.4282 359.56 89.6993 357.055C85.1359 341.312 82.0303 325.031 79.5267 308.844C78.0056 299.015 76.8331 289.138 75.8982 279.246C97.7962 248.061 123.576 219.588 153.032 195.38C182.235 171.377 215.208 151.735 250.464 138.085C262.538 133.408 274.945 129.27 287.541 125.989C290.758 159.709 288.651 193.842 281.251 226.897C279.048 236.694 276.387 246.397 273.313 255.957C273.154 256.448 273.107 256.908 273.122 257.336C271.348 259.841 269.605 262.361 267.878 264.898C256.2 282.099 247.184 304.152 251.272 325.253C251.937 328.677 253.015 332.07 254.457 335.32C254.045 335.272 253.617 335.288 253.158 335.383H253.173ZM526.882 351.3C526.327 352.125 525.519 352.521 524.347 352.6C522.794 352.711 521.241 352.711 519.688 352.759C516.123 352.87 512.542 352.997 508.977 353.108C500.769 353.377 492.577 353.631 484.37 353.9C447.007 355.105 409.644 356.817 372.249 357.245C360.112 357.388 347.991 357.356 335.853 357.229C326.204 357.134 316.554 356.96 306.952 356.025C290.996 354.471 272.489 350.634 263.821 336.097C253.506 318.8 259.052 297.445 267.735 280.72C270.698 274.997 274.2 269.607 277.892 264.343C304.67 265.611 331.432 265.817 358.211 264.248C364.026 263.899 369.841 263.487 375.64 263.043C365.167 275.139 354.408 286.982 344.013 299.126C342.112 301.345 340.226 303.597 338.388 305.88C337.042 307.544 336.756 309.859 338.388 311.492C339.783 312.887 342.651 313.172 343.998 311.492C348.323 306.102 352.839 300.854 357.403 295.67C401.008 305.673 444.994 313.822 488.774 322.986C493.528 323.984 497.885 325.11 502.211 327.377C506.283 329.501 510.134 332.022 513.699 334.923C516.836 337.476 519.989 340.044 522.826 342.93C524.236 344.372 525.614 345.847 526.66 347.575C527.563 349.049 527.69 350.175 526.914 351.316L526.882 351.3Z" fill="#242273"/>
<path d="M171.666 106.822C174.677 109.897 179.874 108.232 183.249 106.726C190.855 103.302 197.145 95.9935 201.788 89.2557C206.383 82.5813 209.726 74.9874 211.913 67.1875C214.163 59.1338 215.193 50.668 215.129 42.3131C215.05 33.8631 214.083 24.9217 211.358 16.8839C208.458 8.30709 201.867 0.126625 192.059 -0.000203503C183.344 -0.111179 177.877 7.11807 175.802 14.8229C174.613 19.262 174.312 23.8754 174.011 28.4412C173.615 34.5607 173.203 40.6643 172.807 46.7838C171.999 59.007 171.191 71.246 170.398 83.4691C170.018 88.6374 169.004 93.7423 169.226 98.9581C169.337 101.653 169.685 104.792 171.666 106.822ZM182.124 25.7144C182.504 20.34 183.201 13.3961 187.289 9.70221C189.286 7.91076 192.249 7.51441 195.053 8.52905C198.333 9.73392 200.647 12.4449 202.231 15.4729C205.543 21.7668 206.494 29.6936 206.985 36.7009C207.476 43.7875 207.191 50.9533 205.907 57.9448C203.372 71.7057 197.303 84.8325 186.957 94.4557C184.247 96.9606 181.031 99.735 177.291 100.448C177.291 100.401 177.259 100.337 177.259 100.29C177.259 100.131 177.164 99.1801 177.149 98.974C176.927 93.774 177.957 88.6533 178.321 83.485C179.589 64.2228 180.793 44.9765 182.124 25.7144Z" fill="#242273"/>
<path d="M51.56 274.363C50.8311 270.399 49.6744 266.325 47.2343 263.043C42.5124 256.702 34.1462 256.02 27.824 260.491C20.9631 265.326 17.9842 273.523 16.6057 281.513C15.5599 287.553 14.9578 293.831 15.0053 299.951C15.0528 305.404 15.2113 310.858 15.5282 316.296C15.9243 323.081 16.3521 330.072 18.0476 336.683C20.2183 344.753 23.831 354.313 32.4032 357.42C36.3804 358.863 40.6902 358.086 43.9702 355.438C47.0124 352.981 48.7554 349.255 49.9279 345.593C51.2748 341.392 51.8452 336.969 52.4156 332.609C53.0494 327.821 53.5248 323.033 53.81 318.214C54.3963 308.305 54.2537 298.349 53.3663 288.473C52.9385 283.764 52.4156 279.024 51.5758 274.363H51.56ZM44.6357 331.483C44.1128 335.51 43.5265 339.6 42.2747 343.485C41.4983 345.91 40.1515 349.446 37.4261 350.127C34.5899 350.841 31.8645 348.209 30.3909 346.053C28.0458 342.581 26.7465 338.586 25.6691 334.575C24.4015 329.66 24.0687 325.396 23.6884 320.259C23.3081 315.122 23.1022 309.97 22.9754 304.818C22.7536 294.766 22.8169 283.891 26.6673 274.49C27.7765 271.779 29.3768 269.131 31.7536 267.34C32.5458 266.737 33.5282 266.198 34.3363 265.913C34.9068 265.707 35.5406 265.516 36.1427 265.453C35.7941 265.501 37.6004 265.485 37.1726 265.437C39.5177 265.738 41.1181 267.657 42.1638 270.098C43.5582 273.332 44.0336 277.01 44.4931 280.482C46.7748 297.351 46.7748 314.615 44.5881 331.499L44.6357 331.483Z" fill="#242273"/>
</g>
<defs>
<clipPath id="clip0_1806_2027">
<rect width="559" height="558" fill="white"/>
</clipPath>
</defs>
</svg>
