<svg width="467" height="466" viewBox="0 0 467 466" fill="none" xmlns="http://www.w3.org/2000/svg">
<g clip-path="url(#clip0_1813_1873)">
<path d="M442.908 289.501C440.34 284.695 433.072 279.147 430.544 277.069C426.083 273.388 418.339 268.754 412.687 267.549C375.742 259.724 341.523 253.7 297.932 243.665L297.562 243.016C311.104 227.684 329.384 207.388 340.08 191.937C348.301 180.061 352.682 165.219 352.073 150.788C351.107 127.684 332.151 108.156 310.27 100.715C288.388 93.2741 264.31 95.8823 241.912 101.549C214.471 108.487 188.857 119.211 165.202 133.099V132.887C166.671 126.546 167.558 118.032 164.752 111.902C160.847 103.336 153.685 103.019 150.204 112.445C148.814 116.192 148.178 120.27 146.008 123.62C138.052 135.866 131.764 122.19 129.858 115.173C124.457 95.2203 127.661 73.944 121.942 54.3227C119.837 47.1203 114.384 40.3812 106.997 39.0308C69.4825 32.1726 61.5401 113.266 59.6339 136.542C57.0924 167.682 56.7482 200.357 59.7134 232.49L59.6869 232.53H59.7134C61.8048 255.157 65.5245 277.519 71.3093 298.861C72.4741 303.138 74.8569 308.222 79.2914 308.288C81.9521 308.328 84.2951 306.328 85.4732 303.945C89.3517 296.094 87.5912 284.88 92.4625 277.598C97.8236 269.588 111.379 273.004 116.554 281.133C121.73 289.262 121.399 292.93 122.167 302.529C123.041 313.465 121.558 325.884 134.597 328.783C143.188 330.69 152.044 326.744 156.783 319.33C163.997 308.036 164.593 303.27 165.016 291.262V290.043C182.397 288.097 199.725 284.959 216.563 281.438C217.198 282.589 217.886 283.715 218.667 284.827C230.674 301.946 260.762 301.681 285.529 301.92C312.202 302.171 338.862 301.43 365.509 300.384C375.834 299.973 419.862 298.61 437.983 298.001C442.259 297.855 444.893 293.274 442.881 289.501H442.908Z" fill="white"/>
<path d="M146.445 87.5281C150.244 87.5413 153.685 85.3435 156.584 82.8809C173.925 68.1848 179.167 42.685 174.468 20.4422C173.541 16.0334 172.191 11.5583 169.266 8.12922C166.354 4.70012 161.509 2.56852 157.233 3.97193C150.575 6.15649 148.986 14.6961 148.523 21.7L145.346 69.9457C145.134 73.2424 142.632 87.5281 146.431 87.5413L146.445 87.5281Z" fill="white"/>
<path d="M36.3099 221.567C31.8092 215.834 23.827 218.999 20.1603 225.711C16.4936 232.424 15.9641 241.228 15.5537 249.543C15.5537 249.543 15.5405 271.256 17.9761 280.524C19.1807 285.092 20.8619 289.62 23.6417 292.705C26.4216 295.789 30.5119 297.14 33.7418 294.969C37.4218 292.493 38.8779 286.548 39.7119 281.133C42.1608 265.298 42.2534 248.828 40.0031 232.94C39.4206 228.809 38.5734 224.467 36.2966 221.581L36.3099 221.567Z" fill="white"/>
<path d="M256.156 95.5116C274.397 92.2282 293.18 91.7913 310.587 97.7094C332.469 105.15 351.438 124.692 352.391 147.782C353 162.214 348.618 177.055 340.398 188.931C333.859 198.385 327.041 207.335 320.529 215.583L322.475 213.107C289.13 215.835 264.972 216.245 231.561 214.63L237.253 204.316C249.987 169.84 243.395 138.064 242.23 101.337L256.169 95.5116H256.156Z" fill="#FFF4C0"/>
<path d="M52.38 426.069C49.534 425.95 48.1176 427.684 48.1176 431.259V436.793C48.1176 440.712 49.6929 442.685 52.8566 442.685C54.1141 442.685 55.7026 442.513 57.5955 442.168C59.9121 441.705 61.858 441.48 63.4332 441.48C66.0674 441.48 68.1722 442.513 69.7474 444.591C71.3227 446.67 72.1169 449.437 72.1169 452.906C72.1169 456.719 71.0712 459.777 68.9664 462.081C66.8617 464.385 64.1216 465.536 60.7593 465.536C57.8073 465.536 53.4523 465.245 47.6675 464.676C41.8828 464.093 37.5145 463.815 34.5758 463.815C30.0486 463.815 26.2628 463.987 23.2182 464.332L15.4876 465.192C13.3828 465.417 11.9664 465.536 11.2252 465.536C7.86287 465.536 5.14922 464.385 3.09743 462.081C1.04564 459.777 0.0263672 456.719 0.0263672 452.906C0.0263672 449.675 0.833845 446.961 2.47527 444.777C4.10347 442.592 6.12878 441.493 8.55121 441.493C9.49106 441.493 10.8148 441.692 12.4959 442.102C14.1771 442.513 15.3817 442.711 16.123 442.711C18.969 442.711 20.3854 438.792 20.3854 430.941V382.987C20.3854 379.293 20.2795 376.923 20.0677 375.89C19.5382 372.885 18.2277 371.389 16.123 371.389C15.2758 371.389 14.0447 371.587 12.4165 371.998C10.7883 372.408 9.5043 372.607 8.55121 372.607C6.12878 372.607 4.10347 371.508 2.47527 369.323C0.847082 367.139 0.0263672 364.424 0.0263672 361.194C0.0263672 357.381 1.07212 354.296 3.17685 351.939C5.28159 349.569 8.00848 348.391 11.384 348.391H11.8605C12.0723 348.51 12.2841 348.563 12.4959 348.563C15.0243 348.563 18.8631 348.855 24.0124 349.424C29.1617 350.006 33.0535 350.284 35.6878 350.284C40.7312 350.284 46.2511 350.059 52.2477 349.596C59.8194 349.013 64.1348 348.735 65.1805 348.735C76.6441 348.735 85.9234 352.284 93.0187 359.38C100.114 366.477 103.661 375.797 103.661 387.329C103.661 398.861 100.008 408.857 92.701 415.887C85.394 422.931 75.4262 426.453 62.8111 426.453C61.7653 426.453 59.7532 426.4 56.8145 426.281L52.3933 426.108L52.38 426.069ZM48.1176 396.809C48.1176 400.039 48.3824 402.025 48.9119 402.78C49.4413 403.535 50.8577 403.958 53.1743 404.078L55.7026 404.25C68.106 405.057 74.3143 399.695 74.3143 388.15C74.3143 376.605 68.7414 371.534 57.5955 371.534C54.8554 371.534 52.9625 371.706 51.9167 372.051C50.0238 372.633 48.8589 374.01 48.4485 376.208C48.2367 377.36 48.1308 379.094 48.1308 381.398V396.809H48.1176Z" fill="#242273"/>
<path d="M166.274 371.362C162.912 371.362 161.231 374.54 161.231 380.882V429.697C161.231 434.198 161.389 437.032 161.707 438.183C162.554 441.189 164.341 442.923 167.068 443.373C167.704 443.493 168.485 443.572 169.438 443.638C170.378 443.691 171.437 443.731 172.588 443.731H180.319C188.844 443.731 193.093 440.845 193.093 435.072C193.093 433.338 192.881 431.497 192.457 429.538C191.928 426.652 191.663 424.401 191.663 422.786C191.663 419.092 192.921 416.007 195.449 413.531C197.977 411.055 201.128 409.811 204.914 409.811C213.333 409.811 217.529 414.365 217.529 423.487C217.529 424.52 217.476 425.791 217.37 427.3C217.264 428.796 217.105 430.531 216.894 432.49C216.682 434.45 216.523 436.184 216.417 437.68C216.311 439.176 216.258 440.394 216.258 441.321C216.258 442.473 216.285 443.625 216.338 444.777C216.391 445.929 216.47 447.081 216.576 448.246C216.788 450.549 216.947 452.376 217.052 453.7C217.158 455.024 217.211 455.806 217.211 456.044C217.211 462.386 213.796 465.563 206.952 465.563C205.165 465.563 203.008 465.51 200.479 465.391C197.951 465.272 195.012 465.1 191.65 464.875C181.55 464.186 167.042 463.842 148.112 463.842C145.266 463.842 142.725 463.935 140.461 464.107C138.198 464.279 136.119 464.517 134.226 464.795C132.333 465.087 130.573 465.312 128.945 465.484C127.317 465.656 125.715 465.749 124.14 465.749C120.883 465.749 118.222 464.531 116.171 462.108C114.119 459.685 113.1 456.626 113.1 452.933C113.1 449.583 113.907 446.842 115.549 444.711C117.177 442.579 119.255 441.507 121.783 441.507C122.617 441.507 123.862 441.705 125.49 442.116C127.118 442.526 128.349 442.725 129.196 442.725C132.042 442.725 133.459 438.806 133.459 430.954V383C133.459 375.268 132.042 371.402 129.196 371.402C128.349 371.402 127.118 371.601 125.49 372.011C123.862 372.421 122.578 372.62 121.624 372.62C119.202 372.62 117.177 371.521 115.549 369.337C113.92 367.152 113.1 364.438 113.1 361.207C113.1 352.787 116.991 348.577 124.775 348.577C126.244 348.577 130.771 348.921 138.343 349.609C140.872 349.848 143.254 350.02 145.518 350.126C147.781 350.245 149.966 350.298 152.07 350.298C153.857 350.298 155.591 350.245 157.273 350.126C158.954 350.007 160.635 349.834 162.316 349.609C167.359 348.921 170.986 348.577 173.197 348.577C176.665 348.577 179.432 349.702 181.484 351.953C183.535 354.204 184.555 357.235 184.555 361.035C184.555 364.385 183.761 367.152 182.185 369.35C180.61 371.548 178.611 372.633 176.189 372.633C175.024 372.633 173.369 372.435 171.225 372.024C169.067 371.627 167.412 371.415 166.261 371.415L166.274 371.362Z" fill="#242273"/>
<path d="M393.917 426.069C391.084 425.95 389.654 427.684 389.654 431.259V436.793C389.654 440.712 391.23 442.685 394.38 442.685C395.638 442.685 397.226 442.513 399.119 442.168C401.436 441.705 403.381 441.48 404.957 441.48C407.591 441.48 409.696 442.513 411.271 444.591C412.846 446.67 413.64 449.437 413.64 452.906C413.64 456.719 412.581 459.777 410.49 462.081C408.385 464.385 405.645 465.536 402.283 465.536C399.331 465.536 394.976 465.245 389.191 464.676C383.406 464.093 379.038 463.815 376.099 463.815C371.572 463.815 367.786 463.987 364.742 464.332L357.011 465.192C354.906 465.417 353.49 465.536 352.749 465.536C349.386 465.536 346.673 464.385 344.621 462.081C342.569 459.777 341.55 456.719 341.55 452.906C341.55 449.675 342.357 446.961 343.999 444.777C345.627 442.592 347.652 441.493 350.075 441.493C351.015 441.493 352.338 441.692 354.019 442.102C355.701 442.513 356.905 442.711 357.646 442.711C360.492 442.711 361.909 438.792 361.909 430.941V382.987C361.909 379.293 361.803 376.923 361.591 375.89C361.062 372.885 359.751 371.389 357.646 371.389C356.799 371.389 355.568 371.587 353.94 371.998C352.312 372.408 351.028 372.607 350.075 372.607C347.652 372.607 345.627 371.508 343.999 369.323C342.371 367.139 341.55 364.424 341.55 361.194C341.55 357.381 342.596 354.296 344.7 351.939C346.805 349.569 349.532 348.391 352.907 348.391H353.384C353.596 348.51 353.808 348.563 354.019 348.563C356.548 348.563 360.387 348.855 365.536 349.424C370.685 350.006 374.577 350.284 377.211 350.284C382.255 350.284 387.775 350.059 393.771 349.596C401.343 349.013 405.658 348.735 406.704 348.735C418.168 348.735 427.447 352.284 434.555 359.38C441.651 366.477 445.198 375.797 445.198 387.329C445.198 398.861 441.545 408.857 434.238 415.887C426.931 422.931 416.963 426.453 404.348 426.453C403.302 426.453 401.29 426.4 398.351 426.281L393.93 426.108L393.917 426.069ZM389.654 396.809C389.654 400.039 389.919 402.025 390.449 402.78C390.978 403.535 392.394 403.958 394.711 404.078L397.239 404.25C409.643 405.057 415.851 399.695 415.851 388.15C415.851 376.605 410.278 371.534 399.132 371.534C396.392 371.534 394.499 371.706 393.453 372.051C391.56 372.633 390.409 374.01 389.985 376.208C389.773 377.36 389.668 379.094 389.668 381.398V396.809H389.654Z" fill="#242273"/>
<path d="M208.515 391.248C208.515 391.248 208.435 391.261 208.395 391.275C207.019 391.54 205.774 390.838 204.993 389.885C203.895 388.547 203.273 386.813 202.558 385.29C201.75 383.556 201.115 381.769 200.691 379.928C199.831 376.142 199.95 372.249 200.612 368.449C201.459 363.551 203.498 358.731 207.111 354.945C210.725 351.158 216.02 348.51 221.606 348.351C226.239 348.219 231.018 349.94 234.01 353.118C237.531 356.838 237.147 361.419 234.446 365.563C232.395 368.727 229.257 371.23 226.054 373.52C222.851 375.811 219.488 377.982 216.735 380.696C215.027 382.391 213.333 384.112 212.075 386.098C211.069 387.673 210.791 390.732 208.501 391.248H208.515Z" fill="#242273"/>
<path d="M332.455 389.911C331.383 382.748 328.59 375.003 324.195 368.158C317.735 358.096 307.807 349.993 294.795 348.563C282.167 347.173 269.591 352.76 260.788 360.651C243.381 376.261 232.447 400.159 234.658 421.753C235.81 433.046 240.787 444.207 249.682 452.575C258.578 460.942 271.564 466.291 284.748 465.973C303.704 465.51 318.225 456.322 326.552 441.533C335.368 425.87 334.97 406.845 332.442 389.898L332.455 389.911ZM298.899 397.378C299.336 406.924 299.203 416.973 297.496 426.042C296.159 433.205 292.664 443.969 283.676 443.889C273.377 443.797 271.497 432.344 270.716 425.394C269.591 415.477 269.644 405.282 272.49 395.644C274.86 387.62 279.599 377.267 287.938 373.957C288.812 373.613 289.686 373.441 290.533 373.52C297.31 374.195 298.104 385.131 298.462 390.163C298.634 392.519 298.78 394.942 298.899 397.378V397.378Z" fill="#242273"/>
<path d="M453.048 466C447.7 466 443.212 463.034 438.474 461.181C435.111 459.857 431.405 458.374 431.405 454.283C431.405 449.927 435.866 448.285 439.453 446.961C443.821 445.346 448.19 442.565 453.048 442.565C460.752 442.565 467 447.808 467 454.283C467 460.757 460.752 466 453.048 466V466Z" fill="#242273"/>
<path d="M443.358 283.781C440.923 280.895 438.024 278.419 435.098 276.036C432.146 273.64 429.168 271.323 425.912 269.363C422.205 267.139 418.141 265.087 413.892 264.133C409.299 263.101 404.679 262.2 400.072 261.26C390.938 259.394 381.791 257.566 372.631 255.739C353.331 251.9 334.044 248.007 314.824 243.771C311.064 242.937 307.318 242.089 303.572 241.229C307.001 237.389 310.442 233.576 313.818 229.71C324.063 218.006 334.415 206.196 343.244 193.367C353.265 178.816 358.441 159.182 354.523 141.705C351.041 126.215 340.107 113.174 326.962 104.74C311.475 94.7968 292.612 91.7782 274.476 92.7711C256.076 93.7774 237.928 98.4113 220.508 104.224C202.982 110.076 186.038 117.569 169.915 126.546C170.378 122.388 170.351 118.178 169.372 114.127C168.167 109.122 164.779 103.072 159.259 102.065C153.156 100.953 149.211 106.276 147.319 111.347C146.154 114.445 145.637 117.834 144.036 120.76C143.361 121.991 142.553 123.117 141.547 124.083C141.176 124.441 141.07 124.494 140.673 124.745C140.409 124.917 140.25 124.97 140.104 124.997C140.051 124.997 139.866 124.997 139.72 124.997C139.694 124.997 139.667 124.983 139.614 124.97C139.575 124.957 139.495 124.931 139.429 124.904C139.31 124.851 139.191 124.785 139.098 124.719C138.595 124.401 137.973 123.805 137.443 123.117C136.451 121.832 135.206 119.41 134.65 117.993C132.387 112.234 131.407 105.918 130.745 99.8015C129.183 85.2774 129.739 70.4621 126.218 56.1897C124.736 50.1921 122.168 44.3798 117.362 40.2755C113.404 36.8861 108.679 35.2444 103.503 35.0987C96.7651 34.9134 90.5436 37.6408 85.5134 41.9966C80.192 46.6041 76.3267 52.8665 73.3218 59.1686C69.7874 66.5564 67.1929 74.3679 65.1146 82.272C61.1964 97.1138 58.9593 112.379 57.4237 127.645C55.0675 151.026 54.1938 174.606 54.7366 198.093C55.0013 209.533 55.6367 220.972 56.6825 232.384C56.6825 232.464 56.6825 232.557 56.7089 232.636C58.3106 250.033 60.8919 267.351 64.7043 284.39C65.4853 287.912 66.3325 291.407 67.2194 294.903C68.0136 298.027 68.7549 301.165 70.1184 304.104C72.6334 309.546 78.5241 313.544 84.3485 310.049C89.842 306.765 90.9539 299.523 91.7746 293.724C92.463 288.826 92.7542 281.981 96.2356 278.34C97.4005 277.122 99.1346 276.354 100.657 276.182C102.987 275.917 104.933 276.288 107.156 277.135C111.829 278.935 114.675 282.841 116.727 287.396C118.726 291.831 118.752 296.346 119.11 301.178C119.494 306.249 119.494 311.373 120.328 316.391C121.095 321.038 123.028 325.513 126.827 328.452C131.487 332.053 137.854 332.914 143.546 331.934C149.648 330.888 155.115 327.287 158.835 322.388C162.25 317.874 165.149 312.419 166.751 306.977C168.035 302.648 168.366 298.093 168.564 293.579C176.666 292.798 184.754 291.738 192.815 290.388C199.659 289.236 206.476 287.912 213.28 286.469C214.299 286.257 214.948 285.714 215.319 285.026C217.145 287.859 219.343 290.441 221.937 292.546C227.735 297.259 234.778 300.026 242.005 301.708C258.83 305.627 276.647 305.005 293.816 305.044C316.187 305.097 338.558 304.501 360.903 303.654C372.856 303.204 384.823 302.807 396.776 302.423C410.252 301.986 423.741 301.562 437.216 301.112C441.426 300.966 445.132 299.232 446.668 295.048C448.256 290.772 446.059 286.972 443.358 283.768V283.781ZM312.626 104.766C326.221 110.128 338.307 120.495 344.74 133.708C351.809 148.219 349.81 165.961 343.138 180.259C339.935 187.144 335.421 193.261 330.775 199.219C327.24 203.76 323.587 208.195 319.88 212.591C319.854 212.591 319.841 212.591 319.827 212.591C297.298 214.431 274.768 215.424 252.171 214.881C247.035 214.762 241.886 214.564 236.75 214.339C242.098 206.977 247.697 199.815 253.575 192.877C256.871 188.984 260.246 185.171 263.701 181.425C266.587 178.3 261.914 173.613 259.015 176.738C252.092 184.231 245.487 192.056 239.199 200.119C245.394 176.221 248.439 151.489 248.068 126.797C247.949 119.052 247.472 111.333 246.691 103.628C250.411 102.767 254.144 101.999 257.89 101.337C275.985 98.173 295.285 97.9346 312.613 104.766H312.626ZM63.3541 135.258C63.8174 129.67 64.3866 124.083 65.0749 118.522C65.1808 117.675 65.2867 116.828 65.3926 115.994C65.472 115.424 65.5382 114.908 65.6971 113.796C65.9486 111.982 66.2266 110.181 66.5046 108.368C67.1135 104.515 67.7886 100.662 68.5563 96.8357C70.1184 89.0243 72.0378 81.2658 74.5793 73.7191C76.9223 66.755 79.4771 60.5853 83.6734 54.2567C84.097 53.6212 84.5338 52.9857 84.9971 52.3634C85.0633 52.2707 85.3678 51.8603 85.4472 51.7544C85.6987 51.4366 85.9502 51.1188 86.2017 50.8143C87.1813 49.636 88.2138 48.5239 89.339 47.4779C89.8817 46.9748 90.4377 46.5114 91.0069 46.0348C91.0995 45.9553 91.1525 45.9156 91.179 45.8891C91.2187 45.8627 91.2981 45.8097 91.4569 45.7038C91.7614 45.4787 92.0659 45.2669 92.3836 45.055C92.966 44.6711 93.5749 44.3004 94.1971 43.9561C94.4883 43.7973 94.7795 43.6516 95.0707 43.506C95.1899 43.4398 95.6664 43.2412 95.8385 43.1617C97.0563 42.6719 98.3271 42.2879 99.6111 42.0231C99.8362 41.9834 100.048 41.9437 100.273 41.904C100.379 41.904 100.816 41.8245 100.961 41.8113C101.729 41.7451 102.51 41.7186 103.278 41.7319C103.993 41.7319 104.694 41.7981 105.409 41.8643C105.621 41.8907 105.727 41.8907 105.78 41.8907C105.819 41.8907 105.886 41.9172 106.031 41.9437C106.64 42.0628 107.236 42.1688 107.832 42.3409C110.267 43.0293 112.359 44.4725 114.106 46.2731C118.276 50.576 119.679 56.4148 120.778 62.1343C122.075 68.8734 122.525 75.7448 122.922 82.5765C123.346 89.6995 123.703 96.8357 124.656 103.919C125.45 109.824 126.549 115.742 128.905 121.25C130.6 125.222 133.155 129.723 137.47 131.219C143.003 133.139 147.755 128.082 150.019 123.607C151.541 120.614 152.269 117.357 153.328 114.193C153.739 112.975 154.215 111.823 154.903 110.724C155.155 110.327 155.367 110.036 155.658 109.718C156.135 109.188 156.346 109.043 156.651 108.857C156.783 108.778 156.916 108.712 157.061 108.646C157.141 108.619 157.286 108.579 157.326 108.566C157.472 108.54 157.67 108.487 157.816 108.5C158.12 108.526 158.875 108.831 159.166 109.056C161.072 110.473 162.197 112.935 162.819 115.16C164.236 120.217 163.64 125.725 162.541 130.822C152.68 136.674 143.136 143.069 133.989 149.993C107.514 170.012 84.3088 193.963 64.466 220.535C63.8439 221.382 63.2217 222.23 62.5995 223.077C62.4407 220.879 62.2686 218.681 62.1362 216.483C60.5345 189.435 61.1037 162.253 63.3673 135.258H63.3541ZM160.185 305.799C159.431 308.169 158.372 310.393 157.167 312.564C155.764 315.093 154.334 317.754 152.349 319.873C148.854 323.633 143.956 325.831 138.807 325.712C136.424 325.659 133.962 325.129 131.91 323.937C130.216 322.958 129.236 321.885 128.296 320.098C126.562 316.788 126.351 312.432 126.139 308.367C125.914 303.945 125.702 299.484 125.212 295.075C137.47 295.392 149.701 295.075 161.893 294.135C161.721 298.093 161.377 301.933 160.172 305.772L160.185 305.799ZM211.506 280.087C188.765 284.907 165.798 288.15 142.527 288.6C136.371 288.72 130.203 288.653 124.047 288.468C121.665 279.995 115.8 272.408 106.971 270.158C102.166 268.926 96.8578 269.39 92.8601 272.527C88.3726 276.049 86.8636 282.087 86.0296 287.462C85.5928 290.295 85.2883 293.142 84.7588 295.962C84.2955 298.358 83.7925 301.377 82.1776 303.323C80.9465 304.819 79.3183 305.15 78.1269 304.17C76.3796 302.754 75.5457 300.278 74.9367 298.186C71.1244 285.039 68.5299 271.442 66.4384 257.924C65.1676 249.715 64.188 241.467 63.407 233.205C81.701 207.163 103.238 183.384 127.846 163.167C152.243 143.122 179.79 126.718 209.243 115.318C219.33 111.413 229.694 107.957 240.218 105.217C242.905 133.378 241.145 161.883 234.963 189.488C233.123 197.67 230.899 205.773 228.331 213.756C228.199 214.167 228.159 214.551 228.172 214.908C226.69 217 225.233 219.105 223.791 221.223C214.035 235.588 206.503 254.005 209.918 271.627C210.474 274.487 211.374 277.32 212.579 280.034C212.234 279.995 211.877 280.008 211.493 280.087H211.506ZM440.168 293.38C439.705 294.069 439.03 294.4 438.05 294.466C436.753 294.558 435.456 294.558 434.158 294.598C431.18 294.691 428.188 294.797 425.21 294.889C418.353 295.114 411.509 295.326 404.652 295.551C373.439 296.558 342.225 297.987 310.985 298.345C300.845 298.464 290.719 298.438 280.579 298.332C272.517 298.252 264.456 298.107 256.434 297.326C243.104 296.028 227.643 292.824 220.402 280.683C211.784 266.239 216.417 248.405 223.671 234.437C226.147 229.657 229.072 225.156 232.157 220.76C254.528 221.819 276.886 221.991 299.257 220.681C304.115 220.389 308.973 220.045 313.818 219.674C305.068 229.776 296.08 239.666 287.396 249.808C285.808 251.662 284.232 253.542 282.697 255.448C281.572 256.838 281.333 258.771 282.697 260.135C283.862 261.3 286.258 261.538 287.383 260.135C290.997 255.633 294.769 251.251 298.582 246.922C335.011 255.276 371.758 262.081 408.332 269.734C412.304 270.568 415.944 271.508 419.558 273.401C422.96 275.175 426.176 277.28 429.155 279.703C431.776 281.835 434.41 283.98 436.779 286.389C437.957 287.594 439.109 288.826 439.983 290.269C440.737 291.5 440.843 292.44 440.195 293.393L440.168 293.38Z" fill="#242273"/>
<path d="M143.413 89.2096C145.928 91.7781 150.27 90.3879 153.09 89.1302C159.444 86.2704 164.699 80.1668 168.578 74.5399C172.416 68.966 175.209 62.6242 177.036 56.1102C178.916 49.3844 179.776 42.3144 179.723 35.337C179.657 28.2802 178.85 20.813 176.573 14.1004C174.15 6.93771 168.644 0.105995 160.45 7.68156e-05C153.169 -0.0926015 148.602 5.94473 146.868 12.3793C145.876 16.0864 145.624 19.9392 145.373 23.7522C145.042 28.8628 144.697 33.9601 144.366 39.0706C143.691 49.2785 143.016 59.4996 142.354 69.7074C142.037 74.0236 141.19 78.2868 141.375 82.6427C141.468 84.8934 141.759 87.5149 143.413 89.2096ZM152.15 21.475C152.468 16.9867 153.05 11.1877 156.465 8.10281C158.133 6.60672 160.609 6.27573 162.952 7.12307C165.692 8.12929 167.624 10.3933 168.948 12.9221C171.715 18.1783 172.509 24.7982 172.919 30.6501C173.33 36.5683 173.092 42.5527 172.019 48.3914C169.901 59.8835 164.831 70.8461 156.187 78.8826C153.924 80.9745 151.237 83.2914 148.113 83.8872C148.113 83.8475 148.086 83.7945 148.086 83.7548C148.086 83.6224 148.007 82.828 147.994 82.6559C147.808 78.3133 148.669 74.0368 148.973 69.7207C150.032 53.6344 151.038 37.5613 152.15 21.475Z" fill="#242273"/>
<path d="M43.0744 229.127C42.4655 225.818 41.4992 222.415 39.4606 219.674C35.5159 214.378 28.5266 213.809 23.2449 217.543C17.5131 221.581 15.0245 228.426 13.8728 235.099C12.9992 240.143 12.4962 245.386 12.5359 250.496C12.5756 255.051 12.708 259.605 12.9727 264.147C13.3036 269.813 13.6611 275.652 15.0774 281.173C16.891 287.912 19.9091 295.896 27.0705 298.491C30.393 299.695 33.9936 299.047 36.7337 296.836C39.2753 294.783 40.7314 291.672 41.711 288.614C42.8361 285.105 43.3127 281.411 43.7892 277.77C44.3187 273.772 44.7158 269.774 44.9541 265.749C45.4439 257.474 45.3248 249.159 44.5835 240.911C44.2261 236.979 43.7892 233.02 43.0877 229.127H43.0744ZM37.2897 276.83C36.8529 280.193 36.3631 283.609 35.3173 286.853C34.6687 288.879 33.5435 291.831 31.2667 292.4C28.8972 292.996 26.6204 290.798 25.3893 288.998C23.4302 286.098 22.3447 282.762 21.4446 279.412C20.3856 275.308 20.1076 271.746 19.7899 267.457C19.4722 263.167 19.3002 258.864 19.1943 254.561C19.0089 246.167 19.0619 237.085 22.2786 229.233C23.2052 226.969 24.5421 224.758 26.5277 223.262C27.1896 222.759 28.0103 222.309 28.6854 222.071C29.162 221.899 29.6915 221.74 30.1945 221.687C29.9033 221.726 31.4123 221.713 31.0549 221.673C33.014 221.925 34.351 223.527 35.2247 225.566C36.3896 228.267 36.7867 231.339 37.1706 234.238C39.0767 248.325 39.0767 262.743 37.25 276.844L37.2897 276.83Z" fill="#242273"/>
</g>
<defs>
<clipPath id="clip0_1813_1873">
<rect width="467" height="466" fill="white"/>
</clipPath>
</defs>
</svg>
