<svg width="395" height="350" viewBox="0 0 395 350" fill="none" xmlns="http://www.w3.org/2000/svg">
<g clip-path="url(#clip0_2208_2139)">
<path d="M222.931 78.8541C228.001 77.3341 233.691 77.0641 238.751 76.9641C247.031 76.8041 255.361 78.3941 262.881 81.7541C272.581 86.0941 281.041 93.3841 285.691 102.704C290.281 111.884 290.911 123.104 286.291 132.274C282.001 140.774 275.401 149.764 267.021 154.634C258.691 159.484 248.011 160.634 238.311 161.244C231.711 161.664 225.011 160.394 219.051 157.604C216.251 156.294 213.461 154.474 212.331 151.674C211.231 148.954 211.921 145.894 212.541 143.034C215.581 129.034 216.591 114.634 215.571 100.364C215.311 96.7641 214.921 93.1641 214.401 89.5941C213.871 85.8941 214.111 83.1041 217.811 80.9941C219.391 80.0941 221.111 79.3941 222.911 78.8541H222.931Z" fill="#FBF1B9"/>
<path d="M358.159 211.331C356.869 209.841 355.409 208.511 353.909 207.241C353.839 207.061 353.749 206.871 353.629 206.681C350.339 201.781 346.949 196.731 342.319 192.981C337.299 188.921 331.269 187.031 325.139 185.341C311.739 181.651 298.249 178.321 284.839 174.661C278.519 172.941 272.229 171.131 265.979 169.201C272.369 162.751 278.659 156.161 284.219 149.001C288.289 143.751 291.609 138.131 293.769 131.811C296.009 125.281 297.099 118.101 296.509 111.201C295.449 98.7911 288.199 88.0111 278.479 80.5611C255.379 62.8611 223.539 68.3711 197.869 76.5611C184.879 80.7011 172.399 86.1411 160.539 92.7211C160.819 89.0811 160.369 85.5211 158.749 82.0111C157.129 78.5211 153.729 75.0311 149.519 76.0711C144.999 77.1911 143.379 82.1911 142.209 86.1111C141.549 88.3311 140.819 90.5511 139.189 92.2811C139.039 92.4411 138.559 92.8911 138.509 92.9311C138.369 93.0411 138.209 93.1311 138.049 93.2111C138.009 93.2311 137.989 93.2511 137.949 93.2611C137.979 93.2411 137.969 93.2411 137.859 93.2811C137.829 93.2911 137.759 93.3111 137.689 93.3211C137.629 93.3211 137.539 93.3211 137.469 93.3211C137.389 93.2711 137.069 93.1611 137.279 93.2711C136.559 92.8911 136.639 92.9211 136.039 92.2611C135.629 91.8111 135.289 91.2811 134.859 90.5511C133.989 89.0511 133.509 87.8611 132.989 86.2511C131.469 81.5111 130.839 76.4611 130.419 71.5111C129.499 60.7211 129.789 54.6011 126.669 44.1211C125.379 39.7711 122.809 35.8211 119.089 33.1711C116.269 31.1611 112.749 30.3611 109.319 30.4211C104.339 30.5211 99.809 32.6511 96.149 35.9611C86.889 44.3311 82.449 58.0311 79.159 69.8111C75.609 82.5111 75.329 94.7311 74.459 107.721C73.579 120.741 72.979 133.781 73.229 146.901C73.649 168.571 75.759 190.281 80.299 211.481C81.359 216.451 82.359 221.591 83.999 226.411C85.399 230.531 88.469 234.891 93.419 233.951C98.289 233.021 100.059 227.641 100.829 223.401C101.569 219.311 101.529 214.661 103.459 210.891C104.929 208.031 107.509 207.031 110.499 207.581C113.919 208.211 116.749 210.151 118.519 213.091C120.259 215.981 121.229 218.941 121.729 222.101C121.709 222.401 121.759 222.701 121.859 223.001C121.979 223.931 122.069 224.871 122.119 225.841C122.299 229.391 122.339 233.081 123.409 236.501C124.499 240.001 126.749 242.941 130.139 244.461C134.239 246.291 139.099 246.421 143.299 244.831C152.739 241.251 156.839 230.981 158.719 221.761C159.519 217.801 159.939 213.771 160.149 209.741C164.019 208.431 167.929 207.211 171.879 206.111C176.029 204.951 180.219 203.891 184.409 202.871C185.109 206.411 186.439 209.821 188.429 212.851C191.559 217.621 196.079 220.941 201.299 223.101C206.299 225.181 211.689 226.101 217.059 226.631C223.959 227.321 230.919 227.491 237.849 227.471C252.109 227.431 266.379 226.881 280.629 226.501C294.969 226.111 309.319 225.691 323.659 225.241C330.789 225.021 337.919 224.791 345.049 224.551C346.819 224.491 348.589 224.431 350.359 224.371C352.119 224.311 353.939 224.391 355.679 224.111C358.319 223.681 360.519 221.571 361.049 218.951C361.659 215.951 360.049 213.501 358.179 211.341L358.159 211.331ZM300.209 183.911C306.659 185.591 313.119 187.261 319.549 189.001C325.449 190.591 331.769 191.891 336.979 195.241C338.609 196.291 340.059 197.541 341.419 198.911C340.549 198.531 339.679 198.171 338.769 197.881C335.989 196.971 332.979 196.561 330.119 195.991C327.079 195.391 324.029 194.801 320.979 194.241C314.799 193.091 308.609 192.001 302.409 190.911C289.249 188.591 276.089 186.241 263.009 183.471C259.909 182.811 256.829 182.121 253.739 181.421C256.059 179.111 258.379 176.801 260.689 174.491C261.119 174.061 261.549 173.631 261.979 173.201C274.599 177.181 287.389 180.581 300.199 183.911H300.209ZM227.249 74.7411C240.699 72.9411 255.259 73.4511 267.599 79.6411C277.609 84.6611 286.439 93.2311 289.979 104.051C293.979 116.261 290.599 130.471 283.809 141.041C281.059 145.321 277.799 149.141 274.409 152.961C272.419 155.201 270.389 157.391 268.329 159.561C251.699 160.891 235.059 161.611 218.369 161.201C214.079 161.101 209.789 160.931 205.499 160.741C205.699 160.091 205.909 159.441 206.099 158.791C209.429 154.341 212.889 149.981 216.489 145.751C218.679 143.181 220.929 140.651 223.219 138.171C225.399 135.811 221.869 132.271 219.679 134.631C216.159 138.441 212.759 142.371 209.479 146.391C213.549 129.481 215.529 112.061 215.269 94.6611C215.179 88.8011 214.819 82.9611 214.229 77.1311C218.539 76.1411 222.869 75.3111 227.229 74.7211L227.249 74.7411ZM183.779 196.321C183.779 196.831 183.799 197.341 183.809 197.851C167.699 201.751 151.959 206.631 136.839 213.481C133.249 215.111 129.709 216.821 126.189 218.601C125.209 214.521 123.219 210.121 120.209 207.181C117.459 204.491 113.769 202.841 109.949 202.511C106.189 202.181 102.449 203.611 100.169 206.661C97.599 210.091 97.059 214.551 96.489 218.671C96.199 220.781 95.909 222.911 95.309 224.961C94.889 226.391 94.279 228.371 92.729 228.961C91.419 229.461 90.499 228.471 89.789 227.271C88.799 225.601 88.369 223.701 87.879 221.841C85.799 213.921 84.099 205.911 82.749 197.841C78.309 171.461 98.239 148.371 116.129 131.721C137.479 111.851 161.679 95.2211 189.079 84.8811C195.689 82.3911 202.479 80.1511 209.369 78.3411C211.399 99.6111 210.079 121.151 205.399 142.011C204.299 146.901 203.019 151.751 201.569 156.551C199.609 159.191 197.689 161.861 195.809 164.551C189.349 173.851 183.919 184.731 183.779 196.301V196.321ZM355.199 219.091C354.349 219.471 352.439 219.291 351.299 219.331C344.519 219.561 337.729 219.781 330.949 220.001C303.479 220.881 276.009 221.671 248.529 222.301C241.889 222.451 235.239 222.551 228.589 222.341C222.819 222.151 216.959 221.901 211.279 220.811C206.439 219.881 201.629 218.361 197.589 215.441C193.459 212.451 190.709 207.871 189.499 202.961C186.919 192.501 191.279 181.371 196.589 172.481C198.089 169.971 199.739 167.551 201.439 165.161C201.799 165.421 202.249 165.601 202.799 165.621C219.849 166.441 236.889 166.581 253.939 165.581C256.999 165.401 260.049 165.191 263.099 164.961C262.919 165.151 262.739 165.331 262.549 165.521C255.219 172.971 247.579 180.151 240.489 187.831C239.289 189.131 238.109 190.451 236.999 191.831C236.149 192.881 235.969 194.341 236.999 195.371C237.879 196.251 239.679 196.431 240.539 195.371C243.159 192.111 246.109 189.121 249.039 186.141C249.329 185.851 249.619 185.561 249.909 185.261C250.199 185.581 250.599 185.831 251.139 185.951C275.879 191.641 300.969 195.411 325.879 200.241C331.299 201.291 336.869 201.971 341.769 204.651C345.829 206.871 349.569 209.821 352.889 213.041C353.699 213.831 354.519 214.651 355.189 215.551C355.489 215.951 355.829 216.401 356.029 216.871C356.149 217.151 356.209 217.621 356.209 217.611C356.129 218.311 355.789 218.821 355.199 219.081V219.091Z" fill="#242273"/>
<path d="M140.599 67.3708C142.499 69.3108 145.779 68.2608 147.909 67.3108C152.709 65.1508 156.679 60.5408 159.609 56.2908C162.509 52.0808 164.619 47.2908 165.999 42.3708C167.419 37.2908 168.069 31.9508 168.029 26.6808C167.979 21.3508 167.369 15.7108 165.649 10.6408C163.819 5.23078 159.659 0.0707956 153.469 0.000795616C147.969 -0.0692044 144.519 4.4908 143.209 9.3508C142.459 12.1508 142.269 15.0608 142.079 17.9408C141.829 21.8008 141.569 25.6508 141.319 29.5108C140.809 37.2208 140.309 44.9408 139.799 52.6508C139.559 55.9108 138.919 59.1308 139.059 62.4208C139.129 64.1208 139.349 66.1008 140.599 67.3808V67.3708Z" fill="#242273"/>
<path d="M64.4095 171.97C63.9495 169.47 63.2195 166.9 61.6795 164.83C58.6995 160.83 53.4195 160.4 49.4295 163.22C45.0995 166.27 43.2195 171.44 42.3495 176.48C41.6895 180.29 41.3095 184.25 41.3395 188.11C41.3695 191.55 41.4695 194.99 41.6695 198.42C41.9195 202.7 42.1895 207.11 43.2595 211.28C44.6295 216.37 46.9095 222.4 52.3195 224.36C54.8295 225.27 57.5495 224.78 59.6195 223.11C61.5395 221.56 62.6395 219.21 63.3795 216.9C64.2295 214.25 64.5895 211.46 64.9495 208.71C65.3495 205.69 65.6495 202.67 65.8295 199.63C66.1995 193.38 66.1095 187.1 65.5495 180.87C65.2795 177.9 64.9495 174.91 64.4195 171.97H64.4095Z" fill="#242273"/>
<path d="M57.6761 317.41C55.363 317.32 54.2015 318.731 54.2015 321.651V326.17C54.2015 329.37 55.4832 330.97 58.0566 330.97C59.0879 330.97 60.3696 330.83 61.9116 330.55C63.7941 330.17 65.3862 329.99 66.6679 329.99C68.8107 329.99 70.523 330.84 71.8046 332.53C73.0863 334.23 73.7372 336.49 73.7372 339.31C73.7372 342.42 72.876 344.91 71.1638 346.8C69.4515 348.68 67.2186 349.62 64.475 349.62C62.0719 349.62 58.5172 349.38 53.811 348.91C49.0948 348.44 45.5401 348.201 43.147 348.201C39.4621 348.201 36.3781 348.34 33.8948 348.62L27.5966 349.331C25.8843 349.521 24.7228 349.61 24.122 349.61C21.3784 349.61 19.1755 348.67 17.5033 346.79C15.8311 344.91 15 342.41 15 339.3C15 336.66 15.6609 334.45 16.9926 332.66C18.3244 330.87 19.9665 329.98 21.9391 329.98C22.7101 329.98 23.7815 330.15 25.1533 330.47C26.5251 330.8 27.5064 330.961 28.1072 330.961C30.4203 330.961 31.5818 327.76 31.5818 321.36V282.24C31.5818 279.23 31.4917 277.301 31.3214 276.451C30.8909 274.001 29.8195 272.78 28.1072 272.78C27.4163 272.78 26.415 272.951 25.0832 273.271C23.7515 273.601 22.7101 273.76 21.9391 273.76C19.9665 273.76 18.3144 272.871 16.9926 271.081C15.6609 269.291 15 267.08 15 264.44C15 261.33 15.8511 258.81 17.5734 256.88C19.2856 254.95 21.5186 253.98 24.2622 253.98H24.6527C24.8229 254.07 24.9931 254.12 25.1634 254.12C27.2161 254.12 30.3502 254.361 34.5457 254.831C38.7412 255.301 41.9154 255.54 44.0582 255.54C48.1736 255.54 52.6695 255.35 57.5559 254.98C63.724 254.51 67.2386 254.271 68.0998 254.271C77.442 254.271 85.002 257.171 90.7896 262.961C96.5772 268.751 99.471 276.361 99.471 285.771C99.471 295.181 96.4971 303.331 90.5393 309.081C84.5814 314.821 76.4608 317.701 66.1772 317.701C65.3161 317.701 63.694 317.65 61.2908 317.56L57.6961 317.42L57.6761 317.41ZM54.2015 293.54C54.2015 296.18 54.4118 297.8 54.8424 298.41C55.2729 299.02 56.4244 299.38 58.3169 299.47L60.3696 299.61C70.4829 300.27 75.5395 295.89 75.5395 286.47C75.5395 277.05 70.9936 272.91 61.9116 272.91C59.6787 272.91 58.1367 273.051 57.2856 273.331C55.7435 273.801 54.8023 274.93 54.4619 276.72C54.2916 277.66 54.2015 279.071 54.2015 280.961V293.53V293.54Z" fill="#242278"/>
<path d="M150.477 272.781C147.733 272.781 146.362 275.371 146.362 280.551V320.381C146.362 324.051 146.492 326.361 146.752 327.301C147.433 329.751 148.895 331.161 151.118 331.541C151.629 331.641 152.279 331.711 153.05 331.751C153.821 331.801 154.673 331.821 155.624 331.821H161.922C168.861 331.821 172.336 329.471 172.336 324.761C172.336 323.351 172.166 321.841 171.825 320.241C171.395 317.891 171.184 316.051 171.184 314.731C171.184 311.721 172.216 309.201 174.268 307.171C176.321 305.151 178.894 304.131 181.978 304.131C188.837 304.131 192.262 307.851 192.262 315.291C192.262 316.141 192.222 317.171 192.132 318.401C192.042 319.621 191.922 321.041 191.741 322.641C191.571 324.241 191.441 325.651 191.351 326.881C191.261 328.101 191.221 329.091 191.221 329.851C191.221 330.791 191.241 331.731 191.281 332.671C191.321 333.611 191.391 334.551 191.471 335.501C191.641 337.381 191.771 338.871 191.861 339.951C191.942 341.031 191.992 341.671 191.992 341.861C191.992 347.041 189.208 349.631 183.641 349.631C182.179 349.631 180.426 349.581 178.374 349.491C176.321 349.401 173.918 349.251 171.174 349.071C162.943 348.501 151.118 348.221 135.698 348.221C133.385 348.221 131.302 348.291 129.459 348.431C127.617 348.571 125.925 348.761 124.383 348.991C122.841 349.221 121.409 349.411 120.077 349.561C118.745 349.701 117.444 349.771 116.152 349.771C113.498 349.771 111.336 348.781 109.663 346.801C107.991 344.821 107.16 342.331 107.16 339.311C107.16 336.581 107.821 334.341 109.153 332.601C110.485 330.861 112.177 329.991 114.229 329.991C114.91 329.991 115.922 330.161 117.253 330.481C118.585 330.811 119.586 330.971 120.277 330.971C122.59 330.971 123.752 327.771 123.752 321.371V282.251C123.752 275.941 122.59 272.791 120.277 272.791C119.586 272.791 118.585 272.961 117.253 273.281C115.922 273.611 114.88 273.771 114.109 273.771C112.137 273.771 110.485 272.881 109.163 271.091C107.831 269.301 107.17 267.091 107.17 264.451C107.17 257.581 110.344 254.141 116.683 254.141C117.884 254.141 121.569 254.421 127.737 254.991C129.79 255.181 131.742 255.321 133.585 255.411C135.427 255.511 137.2 255.551 138.922 255.551C140.374 255.551 141.796 255.501 143.167 255.411C144.539 255.321 145.911 255.181 147.283 254.991C151.398 254.421 154.352 254.141 156.155 254.141C158.978 254.141 161.231 255.061 162.903 256.891C164.576 258.731 165.407 261.201 165.407 264.311C165.407 267.041 164.766 269.301 163.474 271.091C162.192 272.881 160.56 273.771 158.588 273.771C157.646 273.771 156.295 273.611 154.542 273.281C152.78 272.951 151.438 272.791 150.497 272.791L150.477 272.781Z" fill="#242278"/>
<path d="M335.951 317.41C333.638 317.32 332.477 318.731 332.477 321.651V326.17C332.477 329.37 333.759 330.97 336.332 330.97C337.363 330.97 338.645 330.83 340.187 330.55C342.07 330.17 343.662 329.99 344.943 329.99C347.086 329.99 348.798 330.84 350.08 332.53C351.362 334.23 352.013 336.49 352.013 339.31C352.013 342.42 351.151 344.91 349.439 346.8C347.727 348.68 345.494 349.62 342.76 349.62C340.357 349.62 336.803 349.38 332.086 348.91C327.37 348.44 323.816 348.201 321.422 348.201C317.738 348.201 314.653 348.34 312.17 348.62L305.872 349.331C304.16 349.521 302.998 349.61 302.397 349.61C299.654 349.61 297.451 348.67 295.779 346.79C294.106 344.91 293.275 342.41 293.275 339.3C293.275 336.66 293.936 334.45 295.268 332.66C296.6 330.87 298.242 329.98 300.215 329.98C300.986 329.98 302.057 330.15 303.429 330.47C304.801 330.8 305.782 330.961 306.383 330.961C308.696 330.961 309.857 327.76 309.857 321.36V282.24C309.857 279.23 309.767 277.301 309.597 276.451C309.166 274.001 308.095 272.78 306.383 272.78C305.692 272.78 304.69 272.951 303.359 273.271C302.027 273.601 300.986 273.76 300.215 273.76C298.242 273.76 296.59 272.871 295.268 271.081C293.936 269.291 293.275 267.08 293.275 264.44C293.275 261.33 294.137 258.81 295.849 256.88C297.561 254.95 299.794 253.98 302.528 253.98H302.918C303.088 254.07 303.258 254.12 303.429 254.12C305.481 254.12 308.616 254.361 312.811 254.831C317.007 255.301 320.181 255.54 322.324 255.54C326.439 255.54 330.935 255.35 335.821 254.98C341.989 254.51 345.504 254.271 346.365 254.271C355.707 254.271 363.267 257.171 369.055 262.961C374.843 268.751 377.726 276.361 377.726 285.771C377.726 295.181 374.752 303.331 368.795 309.081C362.837 314.821 354.716 317.701 344.433 317.701C343.571 317.701 341.949 317.65 339.546 317.56L335.951 317.42V317.41ZM332.477 293.54C332.477 296.18 332.687 297.8 333.118 298.41C333.548 299.02 334.7 299.38 336.592 299.47L338.645 299.61C348.758 300.27 353.815 295.89 353.815 286.47C353.815 277.05 349.269 272.91 340.187 272.91C337.954 272.91 336.412 273.051 335.561 273.331C334.019 273.801 333.078 274.93 332.737 276.72C332.567 277.66 332.477 279.071 332.477 280.961V293.53V293.54Z" fill="#242278"/>
<path d="M184.893 289.012C184.893 289.012 184.833 289.022 184.803 289.032C183.681 289.242 182.67 288.672 182.029 287.892C181.128 286.802 180.627 285.382 180.046 284.142C179.385 282.732 178.865 281.272 178.524 279.772C177.823 276.682 177.924 273.512 178.454 270.402C179.135 266.402 180.807 262.472 183.751 259.382C186.695 256.292 191.011 254.132 195.557 254.002C199.332 253.892 203.227 255.302 205.66 257.892C208.524 260.932 208.213 264.672 206.02 268.052C204.348 270.632 201.795 272.672 199.181 274.542C196.568 276.412 193.834 278.182 191.591 280.402C190.2 281.782 188.818 283.192 187.797 284.812C186.985 286.102 186.755 288.602 184.883 289.012H184.893Z" fill="#242278"/>
<path d="M285.874 287.909C285.003 282.069 282.73 275.739 279.145 270.159C273.878 261.949 265.798 255.329 255.194 254.169C244.91 253.039 234.667 257.589 227.487 264.039C213.309 276.769 204.397 296.279 206.2 313.899C207.141 323.119 211.186 332.219 218.446 339.049C225.695 345.879 236.269 350.249 247.023 349.989C262.473 349.619 274.299 342.109 281.078 330.049C288.257 317.269 287.937 301.749 285.874 287.919V287.909ZM258.348 294.009C258.338 299.109 258.328 304.219 258.208 309.309C257.958 319.899 254.593 332.029 246.132 331.949C237.741 331.869 236.209 322.529 235.568 316.849C234.507 307.469 234.457 297.479 238.372 288.549C240.475 283.759 244.049 277.089 249.607 274.879C250.317 274.599 251.028 274.459 251.719 274.529C258.318 275.179 258.358 289.589 258.358 293.999L258.348 294.009Z" fill="#242278"/>
<path d="M384.125 349.992C379.77 349.992 376.115 347.572 372.25 346.052C369.506 344.972 366.492 343.762 366.492 340.422C366.492 336.872 370.127 335.532 373.041 334.442C376.595 333.122 380.16 330.852 384.125 330.852C390.404 330.852 395.5 335.132 395.5 340.412C395.5 345.692 390.404 349.972 384.125 349.972V349.992Z" fill="#242278"/>
</g>
<defs>
<clipPath id="clip0_2208_2139">
<rect width="395" height="350" fill="white"/>
</clipPath>
</defs>
</svg>
