<svg width="395" height="350" viewBox="0 0 395 350" fill="none" xmlns="http://www.w3.org/2000/svg">
<g clip-path="url(#clip0_2208_2177)">
<path d="M125.79 222.941C127 225.731 129.85 228.661 133.15 227.531C136.17 226.501 137.46 223.761 138.01 220.831C138.56 217.901 138.59 214.851 139.03 211.891C139.54 208.471 140.19 205.061 140.4 201.611H135.4C135.18 205.691 135.12 209.781 135.24 213.861C135.34 217.531 135.04 221.861 136.91 225.151C137.82 226.751 139.2 228.231 140.98 228.821C142.76 229.411 144.83 228.911 146.17 227.581C147.22 226.531 147.78 225.071 148.08 223.651C148.48 221.791 148.76 219.891 149.09 218.011L151.52 204.331L146.61 203.671C146.34 207.831 146.33 211.991 146.45 216.151C146.56 219.691 146.19 223.671 147.71 226.961C148.44 228.551 149.69 229.771 151.45 230.091C153.75 230.511 155.88 229.261 157.22 227.451C158.26 226.041 158.78 224.301 159.3 222.651C159.88 220.791 160.39 218.911 160.83 217.011C161.87 212.471 162.48 207.831 162.9 203.191H157.9C157.71 208.311 156.55 213.251 157.14 218.401C157.55 221.951 158.11 226.541 161.29 228.771C163.37 230.231 166.14 229.921 167.99 228.221C169.98 226.391 170.93 223.531 171.55 220.981C172.95 215.221 173.84 209.181 174.19 203.271C174.47 198.551 173.51 193.601 171.18 189.451C168.61 184.861 164.24 181.781 159.12 180.671C153.65 179.481 147.83 180.011 142.36 180.901C136.89 181.791 131.6 183.601 127.66 187.431C125.47 189.551 123.81 192.281 122.96 195.211C122.01 198.491 122.11 201.741 122.59 205.081C122.79 206.501 122.84 207.941 123.08 209.371C123.32 210.801 123.64 212.251 123.92 213.691C124.47 216.581 124.57 219.561 125.55 222.361C125.99 223.631 127.26 224.481 128.63 224.111C129.87 223.771 130.82 222.321 130.38 221.031C129.6 218.791 129.37 216.451 129.04 214.121C128.71 211.791 128.12 209.691 127.82 207.451C127.24 203.211 126.53 198.551 128.56 194.571C132.81 186.251 144.2 185.001 152.53 185.001C156.84 185.001 161.42 185.781 164.6 188.921C167.2 191.491 168.59 195.131 169.07 198.711C169.35 200.751 169.29 202.831 169.07 204.871C168.77 207.561 168.52 210.251 168.1 212.921C167.72 215.381 167.23 217.851 166.6 220.251C166.2 221.761 165.63 223.691 164.48 224.721C164.5 224.711 163.86 224.801 164.36 224.751C163.93 224.791 164.53 224.891 164.18 224.691C164.18 224.691 163.82 224.371 163.96 224.541C163.71 224.231 163.52 223.851 163.34 223.491C163.21 223.241 163.23 223.261 163.06 222.741C162.79 221.911 162.59 221.061 162.43 220.211C162.35 219.781 162.28 219.341 162.22 218.911C162.28 219.301 162.15 218.351 162.13 218.171C161.56 213.111 162.73 208.231 162.91 203.181C162.96 201.831 161.73 200.681 160.41 200.681C158.96 200.681 158.03 201.831 157.91 203.181C157.54 207.381 156.97 211.551 156.02 215.671C155.53 217.781 154.96 219.881 154.29 221.941C153.9 223.141 153.57 224.681 152.29 225.201C152.4 225.161 152.43 225.251 152.51 225.301C152.46 225.271 152.18 224.761 152.1 224.571C151.93 224.171 151.76 223.441 151.69 222.891C151.75 223.371 151.68 222.031 151.67 221.891C151.65 221.341 151.63 220.791 151.61 220.241C151.57 219.101 151.52 217.961 151.49 216.811C151.35 212.421 151.34 208.041 151.62 203.661C151.8 200.881 147.21 200.211 146.71 203.001L144.41 215.961C144.05 217.981 143.72 220.001 143.33 222.021C143.21 222.621 143.08 223.311 142.85 223.741C142.79 223.851 142.69 224.121 142.55 224.141C142.68 224.121 142.62 224.081 142.55 224.071C141.43 223.791 140.74 221.761 140.6 220.781C140.33 218.831 140.34 216.801 140.27 214.831C140.11 210.421 140.17 206.001 140.4 201.591C140.57 198.371 135.6 198.391 135.4 201.591C135.08 206.771 133.91 211.871 133.47 217.041C133.4 217.921 133.32 218.791 133.15 219.651C133.01 220.351 132.71 221.781 132.45 222.131C132.34 222.271 131.94 222.491 131.71 222.691C131.41 222.961 131.45 222.681 131.74 222.801C132.14 222.971 131.76 222.761 131.77 222.821C131.76 222.721 131.12 222.091 131.02 221.971C130.67 221.471 130.34 220.971 130.1 220.411C129.56 219.171 127.74 218.891 126.68 219.511C125.4 220.261 125.25 221.691 125.78 222.931L125.79 222.941Z" fill="#242278"/>
<path d="M186.879 49.3803C189.109 45.1003 191.729 39.7703 195.499 36.7903C203.359 30.5703 212.569 25.9402 222.429 23.9602C234.439 21.5502 247.399 23.2403 257.899 29.5303C269.219 36.3003 277.359 48.5903 277.819 61.8503C277.889 63.8003 277.409 65.7703 276.279 67.3603C273.499 71.2703 269.039 70.2803 265.209 69.3003C251.699 65.8403 237.929 65.4203 224.049 64.0703C211.399 62.8403 198.909 63.0603 186.269 63.0703C184.499 63.0703 183.189 61.4103 183.599 59.6903C184.349 56.5103 185.579 51.8802 186.879 49.3902V49.3803Z" fill="#FBF1B9"/>
<path d="M183.68 66.8509C183.68 66.8509 183.1 64.4509 181.92 64.3009C181.93 63.7709 179.03 65.5109 179.06 64.9909C175.68 74.3609 174.38 84.3709 173.23 94.2209C171.96 105.021 170.97 115.931 167.91 126.411C167.47 127.911 166.99 129.431 166.45 130.931C140.97 130.001 115.27 132.011 90.3098 137.261C87.2798 137.901 84.2598 138.591 81.2498 139.331C78.5398 140.001 75.8398 140.671 73.2698 141.791C68.0598 144.071 63.3298 148.761 64.2998 154.871C65.0798 159.831 69.3398 162.341 73.8598 163.401C76.2998 163.971 78.7998 164.251 81.2498 164.741C83.7998 165.241 86.7298 165.671 88.9598 167.071C90.2598 167.881 90.9598 168.821 91.2698 170.201C91.2298 170.101 91.3098 170.871 91.3098 171.021C91.3098 171.081 91.3098 171.111 91.3098 171.161C91.2798 171.351 91.2298 171.541 91.1798 171.731C91.0598 172.241 90.6998 172.871 90.3398 173.261C88.9498 174.721 87.0998 175.251 84.9598 175.721C81.9798 176.371 78.9498 176.721 75.8998 176.921C65.1998 177.651 54.5098 177.241 43.7998 177.551C33.6798 177.851 17.7898 180.181 16.5698 192.501C16.0298 198.001 19.5998 202.971 24.1198 205.741C26.5898 207.261 29.4998 208.171 32.2498 209.011C35.3198 209.951 38.4598 210.651 41.6298 211.191C54.1498 213.311 66.9598 213.241 79.6098 213.411C90.7398 213.561 101.82 213.701 112.96 213.931C116.16 213.991 121.16 214.221 124.26 213.981C125.61 213.881 125.15 213.081 125.15 211.661C125.15 210.391 124.29 208.771 122.73 208.801C116.54 208.901 110.26 208.481 104.09 208.581C104.2 208.101 104.25 207.981 104.37 207.561C110.23 187.301 126.02 171.791 143.06 160.271C147.62 157.191 152.47 154.541 156.99 151.411C161.91 147.991 165.9 143.821 168.63 138.451C173.6 128.691 175.37 117.511 176.76 106.761C178.44 93.7409 179.21 79.4809 183.68 66.8709V66.8509Z" fill="#242273"/>
<path d="M374.17 172.661C363.36 163.991 349.02 162.911 335.74 161.921C334.15 161.801 332.57 161.681 330.98 161.551C329.42 161.421 327.47 161.521 326.02 160.851C324.89 160.321 324.64 159.001 325.33 158.221C326.49 156.901 327.95 155.831 329.15 154.201C331.74 150.671 331.24 147.461 329.33 144.151C327.66 141.261 324.76 139.481 321.73 138.301C318.33 136.981 314.59 136.581 311 136.071C306.52 135.431 302.01 134.931 297.5 134.591C288.92 133.951 280.19 133.651 271.59 134.171C271.45 134.171 271.31 134.191 271.17 134.201C271.78 133.421 272.38 132.631 272.98 131.821C276.81 126.681 280.98 121.521 283.94 115.811C285.79 112.251 287.27 107.031 283.99 103.811C281.92 101.781 278.8 101.541 276.1 102.051C276.02 102.071 275.94 102.101 275.87 102.121C277.88 94.1514 279.61 86.0814 279.71 77.9114C279.35 77.6314 277.33 76.5414 276.96 77.1514C275.48 77.6014 275.68 77.7714 274.71 78.7714C274.58 83.8414 273.78 88.9314 272.69 93.9114C272 97.0414 271.23 100.151 270.43 103.251C270.31 103.731 270.33 104.161 270.43 104.541C269.35 105.181 268.29 105.861 267.24 106.501C264.42 108.211 261.62 109.951 258.91 111.831C253.63 115.491 248.54 119.601 243.64 123.761C238.95 127.751 234.19 132.161 231.15 137.581C228.21 142.821 227.19 148.731 228.24 154.651C229.31 160.691 232.16 166.631 235.25 171.881C238.43 177.271 242.31 182.181 246.42 186.881C251.46 192.651 256.18 198.741 261.22 204.521C256.87 203.971 252.5 203.701 248.13 204.371C242.94 205.171 235.06 208.631 237.72 215.291C239.18 218.951 246.79 223.931 241.52 227.941C239.7 229.321 237.09 230.031 234.92 230.601C231.85 231.411 228.69 231.671 225.52 231.771C219.58 231.941 213.5 232.041 207.57 231.521C205 231.301 201.97 231.021 199.65 229.821C197.76 228.851 197.58 227.101 199.03 225.621C200.44 224.181 202.44 224.081 204.34 223.911C206.7 223.701 209.06 223.521 211.25 222.521C216.57 220.081 217.81 212.971 214.26 208.531C212.11 205.841 208.69 204.941 205.39 204.791C201.81 204.631 198.15 205.031 194.58 205.321C186.92 205.951 179.28 206.981 171.75 208.521C170.43 208.791 169.66 210.361 170 211.601C170.38 212.981 171.75 213.621 173.08 213.351C179.71 211.991 186.41 211.051 193.15 210.451C196.43 210.161 199.71 209.921 203 209.801C205.31 209.721 208.19 209.611 210.03 211.281C211.48 212.601 211.74 214.951 210.69 216.591C209.74 218.071 208.06 218.501 206.45 218.711C204.2 219.001 201.89 218.971 199.7 219.631C197.14 220.401 194.85 222.151 193.72 224.621C192.45 227.401 192.96 230.551 195.17 232.711C197.18 234.691 200.11 235.421 202.81 235.911C208.73 236.991 214.78 236.821 220.77 236.831C227.1 236.831 233.37 236.591 239.38 234.431C241.8 233.561 244.3 232.541 246.01 230.541C247.99 228.231 248.87 224.961 247.99 222.011C247.06 218.931 244.67 217.001 242.91 214.451C242.28 213.531 241.94 212.731 242.67 211.861C243.45 210.931 244.71 210.431 245.83 210.061C252.13 207.991 259.06 209.171 265.45 210.151C265.76 210.201 266.08 210.201 266.38 210.171C268.33 212.181 270.33 214.141 272.46 215.991C281.62 223.941 293.45 231.071 306.03 230.041C309.14 229.791 312.21 229.161 315.22 228.361C318.03 227.611 320.71 226.731 322.92 224.771C324.87 223.051 326.04 220.591 326.14 217.991C326.25 215.001 324.86 212.141 323.18 209.741C338.62 210.671 354.48 210.041 369.19 205.061C372.64 203.891 376.1 202.331 378.7 199.711C381.23 197.151 382.6 193.811 382.84 190.241C383.3 183.321 379.45 176.851 374.21 172.651L374.17 172.661ZM319.59 221.041C317.92 222.631 315.58 223.111 313.42 223.681C308.06 225.081 302.6 225.751 297.15 224.411C291.48 223.021 286.21 220.131 281.47 216.801C271.5 209.801 263.84 200.091 256.16 190.771C252.4 186.211 248.33 181.871 244.77 177.151C241.32 172.581 238.27 167.671 235.97 162.411C233.85 157.581 232.08 152.151 233.04 146.821C234.03 141.361 237.2 136.951 240.99 133.041C245.22 128.691 250.01 124.931 254.77 121.191C259.58 117.431 264.53 114.011 269.75 110.841C272.18 109.361 274.62 107.561 277.43 106.891C277.98 106.791 278.56 106.751 279.12 106.841C279.61 106.921 279.91 107.051 280.17 107.171C280.54 107.351 280.82 107.691 280.9 108.231C280.9 108.261 280.91 108.331 280.92 108.381C280.94 108.581 280.94 108.791 280.94 108.991C280.94 109.161 280.93 109.321 280.91 109.491C280.91 109.541 280.91 109.571 280.91 109.601C280.91 109.621 280.9 109.651 280.89 109.711C280.72 110.591 280.46 111.461 280.12 112.291C280.07 112.391 279.92 112.741 279.92 112.731C279.85 112.881 279.77 113.031 279.7 113.181C279.48 113.601 279.25 114.011 279 114.431C278.14 115.901 277.22 117.331 276.28 118.751C274.56 121.331 272.74 123.831 270.9 126.321C269.23 128.581 267.62 130.921 265.78 133.051C264.17 134.911 262.46 136.671 260.98 138.631C257.78 142.851 256.56 148.191 258.52 153.241C260.64 158.691 265 162.321 269.42 165.881C274.12 169.661 278.81 173.451 283.44 177.301C292.77 185.071 301.88 193.161 310.15 202.071C312.27 204.361 314.34 206.691 316.33 209.091C317.98 211.071 319.89 213.171 320.72 215.651C321.41 217.701 321.16 219.521 319.6 221.021L319.59 221.041Z" fill="#242273"/>
<path d="M283.681 62.7895C283.391 57.8395 282.721 52.8495 281.291 48.0895C278.351 38.2495 272.141 30.1295 263.531 24.5595C252.741 17.5795 239.341 14.4395 226.561 15.4395C220.031 15.9495 213.681 17.4895 207.691 20.1395C201.951 22.6795 197.041 26.3795 192.551 30.7295C183.271 39.7395 176.541 51.3995 176.191 64.5695C176.151 65.8795 176.961 66.6495 177.941 66.8895C178.181 66.9695 178.431 67.0395 178.691 67.0695C181.221 67.3795 183.791 67.3895 186.341 67.4295C189.071 67.4795 191.811 67.5895 194.551 67.5195C201.671 67.3495 208.791 67.4295 215.891 67.8795C222.261 68.2895 228.611 68.9895 234.921 69.9795C241.951 71.0795 248.881 72.5895 255.861 73.9495C259.841 74.7295 263.841 75.3695 267.641 76.8095C271.001 78.0895 274.251 79.5495 277.791 80.3095C278.881 80.5395 280.031 80.1595 280.611 79.1595C283.521 74.2095 284.001 68.3895 283.681 62.7795V62.7895ZM259.841 69.6495C252.671 68.2495 245.531 66.6895 238.321 65.4995C224.781 63.2695 211.131 62.2695 197.411 62.4695C194.071 62.5195 190.761 62.5095 187.431 62.4495C185.411 62.4195 183.371 62.4095 181.351 62.2895C182.221 52.7795 186.881 44.1695 193.301 37.1495C196.981 33.1195 201.091 29.3695 205.851 26.6595C211.041 23.6995 216.771 21.8295 222.661 20.8895C242.571 17.7095 267.581 26.0595 275.351 46.0995C277.141 50.7295 278.111 55.6395 278.531 60.5595C278.941 65.3795 279.111 70.4895 277.141 74.9795C274.661 74.2695 272.281 73.2995 269.871 72.3395C266.601 71.0395 263.291 70.3195 259.841 69.6495V69.6495Z" fill="#242273"/>
<path d="M281.721 88.2009C281.191 86.3909 279.891 85.0709 278.161 84.5909C276.831 84.2209 275.461 85.0009 275.091 86.3309C274.721 87.6609 275.501 89.0409 276.831 89.4109C277.041 89.6209 277.051 90.6109 276.701 90.9909C276.431 91.2909 274.921 91.3409 274.271 91.3709C274.001 91.3709 273.731 91.3909 273.491 91.4109C271.471 91.5309 269.431 91.5509 267.401 91.4609C266.231 91.4109 265.051 91.2809 263.801 91.1409C263.171 91.0709 262.531 91.0009 261.881 90.9409C261.831 90.6009 261.771 90.2609 261.681 89.9209C260.751 86.5209 257.241 84.9709 254.111 84.2009C252.781 83.8709 251.421 83.6509 250.061 83.4909C248.101 83.2609 246.121 83.1609 244.151 83.0709C241.251 82.9309 238.331 82.7009 235.781 84.4109C235.521 84.5909 235.261 84.7809 235.031 85.0009C233.971 86.0209 233.251 87.3209 232.731 88.7009L219.751 87.5909C219.751 87.5909 219.691 87.5909 219.661 87.5909C219.631 86.3209 219.351 85.0609 218.801 83.9109C217.901 82.0009 216.741 80.3809 214.751 79.6609C211.631 78.5209 208.461 78.3809 205.161 77.9709C203.891 77.8109 202.501 77.6509 201.101 77.5609C199.311 77.4509 197.491 77.4609 195.871 77.7509C194.791 77.9509 193.691 78.3809 192.871 79.1309C191.961 79.9609 191.511 81.5909 191.091 82.7109C190.771 83.5509 190.491 84.4609 190.271 85.3909C186.691 85.1009 183.101 84.5409 179.591 83.7209C178.531 83.4709 177.431 83.1909 176.551 82.7109C176.411 82.6309 176.331 82.5809 176.281 82.5409C176.281 82.4909 176.261 82.4109 176.241 82.2909C176.181 81.7209 176.261 81.4909 176.241 81.4909C176.401 81.3309 176.871 81.1109 177.091 81.0909C178.471 81.0509 179.551 79.9009 179.511 78.5209C179.471 77.1409 178.291 76.0509 176.941 76.0909C175.161 76.1409 173.111 77.2209 172.161 78.6109C171.401 79.7209 171.101 81.1209 171.271 82.7909C171.331 83.3709 171.461 84.2509 171.961 85.0909C172.421 85.8809 173.131 86.5309 174.131 87.0809C175.571 87.8809 177.121 88.2809 178.461 88.5909C182.201 89.4609 186.041 90.0609 189.861 90.3709C189.881 90.3709 189.901 90.3709 189.921 90.3709C190.191 92.5209 191.121 94.4909 193.141 95.8109C194.501 96.7009 196.131 97.0409 197.731 97.3109C201.171 97.8909 204.661 98.2109 208.151 98.2509C210.661 98.2809 213.341 98.1209 215.361 96.6409C216.811 95.5809 217.711 93.9809 218.461 92.3209C218.721 92.4409 219.001 92.5309 219.311 92.5609L231.641 93.6109C231.571 94.9909 231.741 96.3809 232.281 97.6409C233.791 101.201 238.951 102.371 242.351 103.181C245.691 103.971 249.161 104.431 252.591 104.131C255.471 103.881 259.001 103.381 260.501 100.591C261.261 99.1709 261.511 97.5309 261.701 95.9309C262.201 95.9809 262.701 96.0309 263.211 96.0909C264.491 96.2309 265.801 96.3809 267.151 96.4409C268.071 96.4809 268.991 96.5009 269.911 96.5009C271.201 96.5009 272.481 96.4609 273.761 96.3809C273.971 96.3709 274.191 96.3609 274.431 96.3509C276.141 96.2909 278.711 96.1909 280.401 94.3109C281.791 92.7609 282.311 90.3009 281.691 88.1909L281.721 88.2009Z" fill="#242273"/>
<path d="M57.62 317.918C55.31 317.828 54.15 319.238 54.15 322.158V326.678C54.15 329.878 55.43 331.478 58 331.478C59.03 331.478 60.31 331.338 61.85 331.058C63.73 330.678 65.32 330.498 66.6 330.498C68.74 330.498 70.45 331.348 71.73 333.038C73.01 334.738 73.66 336.998 73.66 339.818C73.66 342.928 72.8 345.418 71.09 347.308C69.38 349.188 67.15 350.128 64.41 350.128C62.01 350.128 58.46 349.888 53.76 349.418C49.05 348.948 45.5 348.708 43.11 348.708C39.43 348.708 36.35 348.848 33.87 349.128L27.58 349.838C25.87 350.028 24.71 350.118 24.11 350.118C21.37 350.118 19.17 349.178 17.5 347.298C15.83 345.418 15 342.918 15 339.808C15 337.168 15.66 334.958 16.99 333.168C18.32 331.378 19.96 330.488 21.93 330.488C22.7 330.488 23.77 330.658 25.14 330.978C26.51 331.308 27.49 331.468 28.09 331.468C30.4 331.468 31.56 328.268 31.56 321.868V282.748C31.56 279.738 31.47 277.808 31.3 276.958C30.87 274.508 29.8 273.288 28.09 273.288C27.4 273.288 26.4 273.458 25.07 273.778C23.74 274.108 22.7 274.268 21.93 274.268C19.96 274.268 18.31 273.378 16.99 271.588C15.66 269.798 15 267.588 15 264.948C15 261.838 15.85 259.318 17.57 257.388C19.28 255.458 21.51 254.488 24.25 254.488H24.64C24.81 254.578 24.98 254.628 25.15 254.628C27.2 254.628 30.33 254.868 34.52 255.338C38.71 255.808 41.88 256.048 44.02 256.048C48.13 256.048 52.62 255.858 57.5 255.488C63.66 255.018 67.17 254.778 68.03 254.778C77.36 254.778 84.91 257.678 90.69 263.468C96.47 269.258 99.36 276.868 99.36 286.278C99.36 295.688 96.39 303.838 90.44 309.588C84.49 315.328 76.38 318.208 66.11 318.208C65.25 318.208 63.63 318.158 61.23 318.068L57.64 317.928L57.62 317.918ZM54.15 294.048C54.15 296.688 54.36 298.308 54.79 298.918C55.22 299.528 56.37 299.888 58.26 299.978L60.31 300.118C70.41 300.778 75.46 296.398 75.46 286.978C75.46 277.558 70.92 273.418 61.85 273.418C59.62 273.418 58.08 273.558 57.23 273.838C55.69 274.308 54.75 275.438 54.41 277.228C54.24 278.168 54.15 279.578 54.15 281.468V294.038V294.048Z" fill="#242278"/>
<path d="M150.299 273.288C147.559 273.288 146.189 275.878 146.189 281.058V320.888C146.189 324.558 146.319 326.868 146.579 327.808C147.259 330.258 148.719 331.668 150.939 332.048C151.449 332.148 152.099 332.218 152.869 332.258C153.639 332.308 154.489 332.328 155.439 332.328H161.729C168.659 332.328 172.129 329.978 172.129 325.268C172.129 323.858 171.959 322.348 171.619 320.748C171.189 318.398 170.979 316.558 170.979 315.238C170.979 312.228 172.009 309.708 174.059 307.678C176.109 305.658 178.679 304.638 181.759 304.638C188.609 304.638 192.029 308.358 192.029 315.798C192.029 316.648 191.989 317.678 191.899 318.908C191.809 320.128 191.689 321.548 191.509 323.148C191.339 324.748 191.209 326.158 191.119 327.388C191.029 328.608 190.989 329.598 190.989 330.358C190.989 331.298 191.009 332.238 191.049 333.178C191.089 334.118 191.159 335.058 191.239 336.008C191.409 337.888 191.539 339.378 191.629 340.458C191.709 341.538 191.759 342.178 191.759 342.368C191.759 347.548 188.979 350.138 183.419 350.138C181.959 350.138 180.209 350.088 178.159 349.998C176.109 349.908 173.709 349.758 170.969 349.578C162.749 349.008 150.939 348.728 135.539 348.728C133.229 348.728 131.149 348.798 129.309 348.938C127.469 349.078 125.779 349.268 124.239 349.498C122.699 349.728 121.269 349.918 119.939 350.068C118.609 350.208 117.309 350.278 116.019 350.278C113.369 350.278 111.209 349.288 109.539 347.308C107.869 345.328 107.039 342.838 107.039 339.818C107.039 337.088 107.699 334.848 109.029 333.108C110.359 331.368 112.049 330.498 114.099 330.498C114.779 330.498 115.789 330.668 117.119 330.988C118.449 331.318 119.449 331.478 120.139 331.478C122.449 331.478 123.609 328.278 123.609 321.878V282.758C123.609 276.448 122.449 273.298 120.139 273.298C119.449 273.298 118.449 273.468 117.119 273.788C115.789 274.118 114.749 274.278 113.979 274.278C112.009 274.278 110.359 273.388 109.039 271.598C107.709 269.808 107.049 267.598 107.049 264.958C107.049 258.088 110.219 254.648 116.549 254.648C117.749 254.648 121.429 254.928 127.589 255.498C129.639 255.688 131.589 255.828 133.429 255.918C135.269 256.018 137.039 256.058 138.759 256.058C140.209 256.058 141.629 256.008 142.999 255.918C144.369 255.828 145.739 255.688 147.109 255.498C151.219 254.928 154.169 254.648 155.969 254.648C158.789 254.648 161.039 255.568 162.709 257.398C164.379 259.238 165.209 261.708 165.209 264.818C165.209 267.548 164.569 269.808 163.279 271.598C161.999 273.388 160.369 274.278 158.399 274.278C157.459 274.278 156.109 274.118 154.359 273.788C152.599 273.458 151.259 273.298 150.319 273.298L150.299 273.288Z" fill="#242278"/>
<path d="M335.53 317.918C333.22 317.828 332.06 319.238 332.06 322.158V326.678C332.06 329.878 333.34 331.478 335.91 331.478C336.94 331.478 338.22 331.338 339.76 331.058C341.64 330.678 343.23 330.498 344.51 330.498C346.65 330.498 348.36 331.348 349.64 333.038C350.92 334.738 351.57 336.998 351.57 339.818C351.57 342.928 350.71 345.418 349 347.308C347.29 349.188 345.06 350.128 342.33 350.128C339.93 350.128 336.38 349.888 331.67 349.418C326.96 348.948 323.41 348.708 321.02 348.708C317.34 348.708 314.26 348.848 311.78 349.128L305.49 349.838C303.78 350.028 302.62 350.118 302.02 350.118C299.28 350.118 297.08 349.178 295.41 347.298C293.74 345.418 292.91 342.918 292.91 339.808C292.91 337.168 293.57 334.958 294.9 333.168C296.23 331.378 297.87 330.488 299.84 330.488C300.61 330.488 301.68 330.658 303.05 330.978C304.42 331.308 305.4 331.468 306 331.468C308.31 331.468 309.47 328.268 309.47 321.868V282.748C309.47 279.738 309.38 277.808 309.21 276.958C308.78 274.508 307.71 273.288 306 273.288C305.31 273.288 304.31 273.458 302.98 273.778C301.65 274.108 300.61 274.268 299.84 274.268C297.87 274.268 296.22 273.378 294.9 271.588C293.57 269.798 292.91 267.588 292.91 264.948C292.91 261.838 293.77 259.318 295.48 257.388C297.19 255.458 299.42 254.488 302.15 254.488H302.54C302.71 254.578 302.88 254.628 303.05 254.628C305.1 254.628 308.23 254.868 312.42 255.338C316.61 255.808 319.78 256.048 321.92 256.048C326.03 256.048 330.52 255.858 335.4 255.488C341.56 255.018 345.07 254.778 345.93 254.778C355.26 254.778 362.81 257.678 368.59 263.468C374.37 269.258 377.25 276.868 377.25 286.278C377.25 295.688 374.28 303.838 368.33 309.588C362.38 315.328 354.27 318.208 344 318.208C343.14 318.208 341.52 318.158 339.12 318.068L335.53 317.928V317.918ZM332.06 294.048C332.06 296.688 332.27 298.308 332.7 298.918C333.13 299.528 334.28 299.888 336.17 299.978L338.22 300.118C348.32 300.778 353.37 296.398 353.37 286.978C353.37 277.558 348.83 273.418 339.76 273.418C337.53 273.418 335.99 273.558 335.14 273.838C333.6 274.308 332.66 275.438 332.32 277.228C332.15 278.168 332.06 279.578 332.06 281.468V294.038V294.048Z" fill="#242278"/>
<path d="M184.671 289.508C184.671 289.508 184.611 289.518 184.581 289.528C183.461 289.738 182.451 289.168 181.811 288.388C180.911 287.298 180.411 285.878 179.831 284.638C179.171 283.228 178.651 281.768 178.311 280.268C177.611 277.178 177.711 274.008 178.241 270.898C178.921 266.898 180.591 262.968 183.531 259.878C186.471 256.788 190.781 254.628 195.321 254.498C199.091 254.388 202.981 255.798 205.411 258.388C208.271 261.428 207.961 265.168 205.771 268.548C204.101 271.128 201.551 273.168 198.941 275.038C196.331 276.908 193.601 278.678 191.361 280.898C189.971 282.278 188.591 283.688 187.571 285.308C186.761 286.598 186.531 289.098 184.661 289.508H184.671Z" fill="#242278"/>
<path d="M285.519 288.416C284.649 282.576 282.379 276.246 278.799 270.666C273.539 262.456 265.469 255.836 254.879 254.676C244.609 253.546 234.379 258.096 227.209 264.546C213.049 277.276 204.149 296.786 205.949 314.406C206.889 323.626 210.929 332.726 218.179 339.556C225.419 346.386 235.979 350.756 246.719 350.496C262.149 350.126 273.959 342.616 280.729 330.556C287.899 317.776 287.579 302.256 285.519 288.426V288.416ZM258.029 294.516C258.019 299.616 258.009 304.726 257.889 309.816C257.639 320.406 254.279 332.536 245.829 332.456C237.449 332.376 235.919 323.036 235.279 317.356C234.219 307.976 234.169 297.986 238.079 289.056C240.179 284.266 243.749 277.596 249.299 275.386C250.009 275.106 250.719 274.966 251.409 275.036C257.999 275.686 258.039 290.096 258.039 294.506L258.029 294.516Z" fill="#242278"/>
<path d="M383.639 350.499C379.289 350.499 375.639 348.079 371.779 346.559C369.039 345.479 366.029 344.269 366.029 340.929C366.029 337.379 369.659 336.039 372.569 334.949C376.119 333.629 379.679 331.359 383.639 331.359C389.909 331.359 394.999 335.639 394.999 340.919C394.999 346.199 389.909 350.479 383.639 350.479V350.499Z" fill="#242278"/>
</g>
<defs>
<clipPath id="clip0_2208_2177">
<rect width="395" height="350" fill="white"/>
</clipPath>
</defs>
</svg>
