<svg width="395" height="97" viewBox="0 0 395 97" fill="none" xmlns="http://www.w3.org/2000/svg">
<g clip-path="url(#clip0_2208_2206)">
<path d="M71.6698 41.9312C69.1498 44.1112 65.3698 45.0311 60.3298 44.7011L58.2798 44.5612C56.3998 44.4712 55.2398 44.1112 54.8098 43.5012C54.3798 42.8912 54.1698 41.2612 54.1698 38.6312V31.0212C46.1698 26.2512 38.7298 23.2112 31.5698 26.3012C31.5698 26.6312 31.5698 26.9711 31.5698 27.3311V66.4511C31.5698 72.8511 30.4098 76.0512 28.0998 76.0512C27.4998 76.0512 26.5198 75.8912 25.1498 75.5612C23.7798 75.2312 22.7098 75.0711 21.9398 75.0711C19.9698 75.0711 18.3198 75.9712 16.9998 77.7512C15.6698 79.5412 15.0098 81.7512 15.0098 84.3912C15.0098 87.5012 15.8398 89.9912 17.5098 91.8812C19.1798 93.7612 21.3798 94.7011 24.1198 94.7011C24.7198 94.7011 25.8698 94.6112 27.5898 94.4212L33.8798 93.7111C36.3598 93.4311 39.4398 93.2912 43.1198 93.2912C45.5098 93.2912 49.0698 93.5312 53.7698 94.0012C58.4798 94.4712 62.0298 94.7111 64.4198 94.7111C67.1598 94.7111 69.3798 93.7712 71.0998 91.8912C72.8098 90.0112 73.6698 87.5112 73.6698 84.4012C73.6698 81.5812 73.0298 79.3211 71.7398 77.6211C70.4598 75.9311 68.7398 75.0811 66.6098 75.0811C65.3298 75.0811 63.7398 75.2712 61.8598 75.6412C60.3198 75.9212 59.0398 76.0612 58.0098 76.0612C55.4398 76.0612 54.1598 74.4612 54.1598 71.2612V66.7411C54.1598 63.8211 55.3198 62.4112 57.6298 62.5012L61.2198 62.6412C63.6098 62.7312 65.2398 62.7812 66.0998 62.7812C76.3698 62.7812 84.4798 59.9112 90.4298 54.1612C92.0098 52.6412 93.3698 50.9712 94.5298 49.1612C93.8998 49.1412 93.2598 49.1111 92.5998 49.0711C85.1498 48.5911 78.2098 45.6212 71.6698 41.9212V41.9312Z" fill="#EE0000"/>
<path d="M90.69 8.05042C84.91 2.26042 77.36 -0.639648 68.03 -0.639648C67.17 -0.639648 63.67 -0.399687 57.5 0.0703125C52.62 0.450312 48.13 0.630371 44.02 0.630371C41.88 0.630371 38.71 0.40041 34.52 -0.0795898C30.33 -0.54959 27.2 -0.789673 25.15 -0.789673C24.98 -0.789673 24.81 -0.839687 24.64 -0.929688H24.25C21.51 -0.929688 19.29 0.040337 17.57 1.97034C15.86 3.90034 15 6.4204 15 9.5304C15 12.1704 15.66 14.3804 16.99 16.1704C18.32 17.9604 19.96 18.8503 21.93 18.8503C22.7 18.8503 23.75 18.6904 25.07 18.3604C26.4 18.0304 27.4 17.8704 28.09 17.8704C29.8 17.8704 30.87 19.0904 31.3 21.5404C31.45 22.2904 31.53 23.8804 31.55 26.3004C38.71 23.2104 46.15 26.2504 54.15 31.0204V26.0604C54.15 24.1804 54.23 22.7703 54.41 21.8203C54.75 20.0303 55.69 18.9004 57.23 18.4304C58.08 18.1504 59.62 18.0104 61.85 18.0104C70.92 18.0104 75.46 22.5303 75.46 31.5703C75.46 36.2903 74.19 39.7404 71.65 41.9304C78.19 45.6304 85.13 48.6003 92.58 49.0803C93.23 49.1203 93.87 49.1504 94.51 49.1704C97.72 44.1604 99.34 38.0604 99.34 30.8604C99.34 21.4504 96.45 13.8404 90.68 8.05042H90.69Z" fill="#006942"/>
<path d="M181.769 49.2188C178.689 49.2188 176.119 50.2288 174.069 52.2588C172.019 54.2888 170.989 56.7987 170.989 59.8187C170.989 61.1387 171.199 62.9787 171.629 65.3287C171.969 66.9287 172.139 68.4388 172.139 69.8488C172.139 74.5588 168.669 76.9088 161.739 76.9088H155.449C154.509 76.9088 153.649 76.8887 152.879 76.8387C152.109 76.7887 151.469 76.7188 150.949 76.6288C148.719 76.2488 147.269 74.8388 146.589 72.3888C146.329 71.4488 146.199 69.1388 146.199 65.4688V25.6388C146.199 20.4588 147.569 17.8688 150.309 17.8688C151.249 17.8688 152.599 18.0388 154.349 18.3588C156.099 18.6888 157.449 18.8488 158.389 18.8488C160.359 18.8488 161.979 17.9588 163.269 16.1688C164.549 14.3788 165.199 12.1188 165.199 9.38879C165.199 6.27879 164.369 3.80875 162.699 1.96875C161.029 0.12875 158.779 -0.78125 155.959 -0.78125C154.159 -0.78125 151.209 -0.501274 147.099 0.0687256C145.729 0.258726 144.359 0.39877 142.989 0.48877C141.619 0.58877 140.209 0.628784 138.749 0.628784C137.519 0.628784 136.249 0.598828 134.959 0.548828C133.509 9.53883 131.799 25.0688 123.609 36.1688V66.4487C123.609 72.8487 122.449 76.0488 120.139 76.0488C119.449 76.0488 118.449 75.8888 117.119 75.5588C115.789 75.2288 114.789 75.0687 114.099 75.0687C112.049 75.0687 110.359 75.9388 109.029 77.6788C107.699 79.4188 107.039 81.6588 107.039 84.3888C107.039 87.3988 107.869 89.8988 109.539 91.8788C111.209 93.8588 113.369 94.8488 116.019 94.8488C117.299 94.8488 118.609 94.7788 119.939 94.6388C121.269 94.4988 122.699 94.3087 124.239 94.0687C125.779 93.8387 127.469 93.6488 129.309 93.5088C131.149 93.3688 133.229 93.2988 135.539 93.2988C150.939 93.2988 162.749 93.5788 170.969 94.1488C173.709 94.3388 176.099 94.4787 178.159 94.5687C180.209 94.6587 181.969 94.7087 183.419 94.7087C188.979 94.7087 191.759 92.1187 191.759 86.9387C191.759 86.7487 191.719 86.1188 191.629 85.0288C191.539 83.9488 191.419 82.4687 191.239 80.5787C191.149 79.6387 191.089 78.6988 191.049 77.7488C191.009 76.8088 190.989 75.8688 190.989 74.9288C190.989 74.1788 191.029 73.1887 191.119 71.9587C191.199 70.7387 191.329 69.3188 191.509 67.7188C191.679 66.1187 191.809 64.7088 191.899 63.4788C191.979 62.2588 192.029 61.2188 192.029 60.3688C192.029 52.9288 188.609 49.2087 181.759 49.2087L181.769 49.2188Z" fill="#FFA500"/>
<path d="M133.441 0.48877C131.601 0.39877 129.651 0.258726 127.601 0.0687256C121.441 -0.501274 117.761 -0.78125 116.561 -0.78125C110.231 -0.78125 107.061 2.65881 107.061 9.52881C107.061 12.1688 107.721 14.3788 109.051 16.1688C110.381 17.9588 112.021 18.8488 113.991 18.8488C114.761 18.8488 115.811 18.6888 117.131 18.3588C118.461 18.0288 119.461 17.8688 120.151 17.8688C122.461 17.8688 123.621 21.0287 123.621 27.3287V36.1688C131.811 25.0688 133.521 9.53883 134.971 0.548828C134.461 0.528828 133.961 0.51877 133.441 0.48877V0.48877Z" fill="#006942"/>
<path d="M344.539 75.0704C343.259 75.0704 341.669 75.2605 339.789 75.6305C338.249 75.9105 336.969 76.0505 335.939 76.0505C333.369 76.0505 332.089 74.4505 332.089 71.2505V66.7305C332.089 63.8105 333.249 62.4005 335.559 62.4905L339.149 62.6305C341.539 62.7205 343.169 62.7705 344.029 62.7705C354.299 62.7705 362.409 59.9005 368.359 54.1505C374.309 48.4105 377.279 40.6405 377.279 30.8405C377.279 21.0405 374.389 13.8205 368.619 8.03052C363.569 2.96052 357.149 0.110469 349.379 -0.519531C350.409 6.37047 349.839 13.3205 347.799 19.7405C351.529 21.8205 353.409 25.7505 353.409 31.5405C353.409 40.9605 348.359 45.3405 338.259 44.6805L336.209 44.5405C334.329 44.4505 333.169 44.0905 332.739 43.4805C332.469 43.0905 332.279 42.2904 332.179 41.0804C325.549 45.6804 317.659 48.2105 309.499 48.5205V66.4404C309.499 72.8404 308.339 76.0405 306.029 76.0405C305.429 76.0405 304.449 75.8805 303.079 75.5505C301.709 75.2205 300.639 75.0605 299.869 75.0605C297.899 75.0605 296.249 75.9605 294.929 77.7405C293.599 79.5305 292.939 81.7405 292.939 84.3805C292.939 87.4905 293.769 89.9805 295.439 91.8705C297.109 93.7505 299.309 94.6904 302.049 94.6904C302.649 94.6904 303.799 94.6005 305.519 94.4105L311.809 93.7004C314.289 93.4204 317.369 93.2805 321.049 93.2805C323.449 93.2805 326.999 93.5205 331.699 93.9905C336.409 94.4605 339.959 94.7004 342.359 94.7004C345.099 94.7004 347.319 93.7605 349.029 91.8805C350.739 90.0005 351.599 87.5005 351.599 84.3905C351.599 81.5705 350.959 79.3105 349.669 77.6105C348.389 75.9205 346.669 75.0704 344.539 75.0704V75.0704Z" fill="#722E79"/>
<path d="M332.09 38.6304V26.0604C332.09 24.1804 332.17 22.7703 332.35 21.8203C332.69 20.0303 333.63 18.9004 335.17 18.4304C336.02 18.1504 337.57 18.0104 339.79 18.0104C343.04 18.0104 345.7 18.6004 347.79 19.7604C349.84 13.3404 350.4 6.39037 349.37 -0.499634C348.26 -0.589634 347.12 -0.639648 345.95 -0.639648C345.09 -0.639648 341.59 -0.399687 335.42 0.0703125C330.54 0.450312 326.05 0.630371 321.94 0.630371C319.8 0.630371 316.63 0.40041 312.44 -0.0795898C308.25 -0.54959 305.12 -0.789673 303.07 -0.789673C302.9 -0.789673 302.73 -0.839687 302.56 -0.929688H302.17C299.43 -0.929688 297.21 0.040337 295.5 1.97034C293.79 3.90034 292.93 6.4204 292.93 9.5304C292.93 12.1704 293.59 14.3804 294.92 16.1704C296.25 17.9604 297.89 18.8503 299.86 18.8503C300.63 18.8503 301.68 18.6904 303 18.3604C304.33 18.0304 305.33 17.8704 306.02 17.8704C307.73 17.8704 308.8 19.0904 309.23 21.5404C309.4 22.3904 309.49 24.3203 309.49 27.3303V48.5404C317.65 48.2404 325.54 45.7003 332.17 41.1003C332.11 40.4103 332.08 39.5904 332.08 38.6304H332.09Z" fill="black"/>
<path d="M179.86 29.2319C180.44 30.4719 180.94 31.8819 181.84 32.9819C182.48 33.7619 183.49 34.332 184.61 34.122C184.64 34.122 184.67 34.1119 184.7 34.1019C186.57 33.6819 186.8 31.192 187.61 29.902C188.63 28.282 190.02 26.8719 191.4 25.4919C193.64 23.2719 196.37 21.502 198.98 19.632C201.59 17.762 204.13 15.722 205.81 13.142C208 9.76197 208.31 6.02194 205.45 2.98194C203.01 0.391939 199.12 -1.01808 195.36 -0.908076C190.81 -0.778076 186.51 1.39193 183.57 4.47193C180.63 7.56193 178.97 11.4919 178.28 15.4919C177.75 18.6019 177.65 21.7719 178.35 24.8619C178.69 26.3619 179.21 27.8219 179.87 29.2319H179.86Z" fill="#0047A5"/>
<path d="M285.541 32.9985C284.671 27.1585 282.401 20.8285 278.821 15.2485C273.561 7.03845 265.491 0.418461 254.901 -0.741539C244.631 -1.87154 234.401 2.67846 227.231 9.12846C217.561 17.8285 210.341 29.6784 207.311 41.9384C216.851 37.3284 227.371 30.8784 239.341 30.9784C241.511 26.6484 244.731 21.7984 249.311 19.9784C250.021 19.6984 250.731 19.5585 251.421 19.6285C257.631 20.2485 258.031 33.0584 258.041 38.2384C265.331 44.8484 272.581 56.9884 278.821 78.2184C279.501 77.2284 280.141 76.1985 280.741 75.1285C287.911 62.3485 287.591 46.8285 285.531 32.9985H285.541Z" fill="#0047A5"/>
<path d="M258.051 38.2402C258.051 38.5602 258.051 38.8501 258.051 39.1001C258.041 44.2001 258.031 49.3102 257.911 54.4002C257.661 64.9902 254.301 77.1202 245.851 77.0402C237.471 76.9602 235.941 67.6201 235.301 61.9401C234.241 52.5601 234.191 42.5702 238.101 33.6402C238.471 32.8002 238.891 31.8901 239.351 30.9701C227.381 30.8601 216.851 37.3202 207.321 41.9302C205.911 47.6202 205.411 53.3901 205.981 58.9801C206.921 68.2001 210.961 77.3002 218.211 84.1302C225.451 90.9602 236.011 95.3301 246.751 95.0701C260.811 94.7301 271.871 88.4601 278.851 78.2201C272.611 56.9901 265.361 44.8502 258.071 38.2402H258.051Z" fill="#F1E7F2"/>
<path d="M383.661 75.9492C379.701 75.9492 376.141 78.2193 372.591 79.5393C369.681 80.6193 366.051 81.9593 366.051 85.5193C366.051 88.8493 369.071 90.0693 371.801 91.1493C375.651 92.6693 379.311 95.0892 383.661 95.0892C389.931 95.0892 395.021 90.8093 395.021 85.5293C395.021 80.2493 389.931 75.9692 383.661 75.9692V75.9492Z" fill="#722E79"/>
</g>
<defs>
<clipPath id="clip0_2208_2206">
<rect width="395" height="96.02" fill="white"/>
</clipPath>
</defs>
</svg>
