<svg width="395" height="97" viewBox="0 0 395 97" fill="none" xmlns="http://www.w3.org/2000/svg">
<g clip-path="url(#clip0_2208_2205)">
<path d="M57.62 63.469C55.31 63.379 54.15 64.789 54.15 67.709V72.229C54.15 75.429 55.43 77.0291 58 77.0291C59.03 77.0291 60.31 76.889 61.85 76.609C63.73 76.229 65.32 76.0491 66.6 76.0491C68.74 76.0491 70.45 76.899 71.73 78.589C73.01 80.289 73.66 82.549 73.66 85.369C73.66 88.479 72.8 90.969 71.09 92.859C69.38 94.739 67.15 95.6791 64.41 95.6791C62.01 95.6791 58.46 95.439 53.76 94.969C49.05 94.499 45.5 94.259 43.11 94.259C39.43 94.259 36.35 94.3991 33.87 94.6791L27.58 95.389C25.87 95.579 24.71 95.6691 24.11 95.6691C21.37 95.6691 19.17 94.729 17.5 92.849C15.83 90.969 15 88.469 15 85.359C15 82.719 15.66 80.509 16.99 78.719C18.32 76.929 19.96 76.0391 21.93 76.0391C22.7 76.0391 23.77 76.2091 25.14 76.5291C26.51 76.8591 27.49 77.019 28.09 77.019C30.4 77.019 31.56 73.8191 31.56 67.4191V28.2991C31.56 25.2891 31.47 23.359 31.3 22.509C30.87 20.059 29.8 18.839 28.09 18.839C27.4 18.839 26.4 19.009 25.07 19.329C23.74 19.659 22.7 19.819 21.93 19.819C19.96 19.819 18.31 18.929 16.99 17.139C15.66 15.349 15 13.139 15 10.499C15 7.38902 15.85 4.86896 17.57 2.93896C19.28 1.00896 21.51 0.0390625 24.25 0.0390625H24.64C24.81 0.129063 24.98 0.179077 25.15 0.179077C27.2 0.179077 30.33 0.419038 34.52 0.889038C38.71 1.35904 41.88 1.599 44.02 1.599C48.13 1.599 52.62 1.40906 57.5 1.03906C63.66 0.569063 67.17 0.328979 68.03 0.328979C77.36 0.328979 84.91 3.22904 90.69 9.01904C96.47 14.809 99.36 22.419 99.36 31.829C99.36 41.239 96.39 49.389 90.44 55.139C84.49 60.879 76.38 63.759 66.11 63.759C65.25 63.759 63.63 63.709 61.23 63.619L57.64 63.479L57.62 63.469ZM54.15 39.599C54.15 42.239 54.36 43.859 54.79 44.469C55.22 45.079 56.37 45.4391 58.26 45.5291L60.31 45.6691C70.41 46.3291 75.46 41.9491 75.46 32.5291C75.46 23.1091 70.92 18.969 61.85 18.969C59.62 18.969 58.08 19.109 57.23 19.389C55.69 19.859 54.75 20.9891 54.41 22.7791C54.24 23.7191 54.15 25.129 54.15 27.019V39.589V39.599Z" fill="#242278"/>
<path d="M150.299 18.8392C147.559 18.8392 146.189 21.4293 146.189 26.6093V66.4392C146.189 70.1092 146.319 72.4193 146.579 73.3593C147.259 75.8093 148.719 77.2192 150.939 77.5992C151.449 77.6992 152.099 77.7693 152.869 77.8093C153.639 77.8593 154.489 77.8793 155.439 77.8793H161.729C168.659 77.8793 172.129 75.5292 172.129 70.8192C172.129 69.4092 171.959 67.8993 171.619 66.2993C171.189 63.9493 170.979 62.1093 170.979 60.7893C170.979 57.7793 172.009 55.2592 174.059 53.2292C176.109 51.2092 178.679 50.1892 181.759 50.1892C188.609 50.1892 192.029 53.9092 192.029 61.3492C192.029 62.1992 191.989 63.2292 191.899 64.4592C191.809 65.6792 191.689 67.0992 191.509 68.6992C191.339 70.2992 191.209 71.7092 191.119 72.9392C191.029 74.1592 190.989 75.1493 190.989 75.9093C190.989 76.8493 191.009 77.7892 191.049 78.7292C191.089 79.6692 191.159 80.6093 191.239 81.5593C191.409 83.4393 191.539 84.9293 191.629 86.0093C191.709 87.0893 191.759 87.7293 191.759 87.9193C191.759 93.0993 188.979 95.6892 183.419 95.6892C181.959 95.6892 180.209 95.6393 178.159 95.5493C176.109 95.4593 173.709 95.3093 170.969 95.1293C162.749 94.5593 150.939 94.2793 135.539 94.2793C133.229 94.2793 131.149 94.3493 129.309 94.4893C127.469 94.6293 125.779 94.8193 124.239 95.0493C122.699 95.2793 121.269 95.4693 119.939 95.6193C118.609 95.7593 117.309 95.8292 116.019 95.8292C113.369 95.8292 111.209 94.8393 109.539 92.8593C107.869 90.8793 107.039 88.3893 107.039 85.3693C107.039 82.6393 107.699 80.3993 109.029 78.6593C110.359 76.9193 112.049 76.0493 114.099 76.0493C114.779 76.0493 115.789 76.2193 117.119 76.5393C118.449 76.8693 119.449 77.0293 120.139 77.0293C122.449 77.0293 123.609 73.8293 123.609 67.4293V28.3093C123.609 21.9993 122.449 18.8492 120.139 18.8492C119.449 18.8492 118.449 19.0192 117.119 19.3392C115.789 19.6692 114.749 19.8292 113.979 19.8292C112.009 19.8292 110.359 18.9393 109.039 17.1493C107.709 15.3593 107.049 13.1493 107.049 10.5093C107.049 3.63928 110.219 0.199219 116.549 0.199219C117.749 0.199219 121.429 0.479316 127.589 1.04932C129.639 1.23932 131.589 1.37924 133.429 1.46924C135.269 1.56924 137.039 1.60925 138.759 1.60925C140.209 1.60925 141.629 1.55924 142.999 1.46924C144.369 1.37924 145.739 1.23932 147.109 1.04932C151.219 0.479316 154.169 0.199219 155.969 0.199219C158.789 0.199219 161.039 1.11922 162.709 2.94922C164.379 4.78922 165.209 7.25926 165.209 10.3693C165.209 13.0993 164.569 15.3593 163.279 17.1493C161.999 18.9393 160.369 19.8292 158.399 19.8292C157.459 19.8292 156.109 19.6692 154.359 19.3392C152.599 19.0092 151.259 18.8492 150.319 18.8492L150.299 18.8392Z" fill="#242278"/>
<path d="M335.53 63.469C333.22 63.379 332.06 64.789 332.06 67.709V72.229C332.06 75.429 333.34 77.0291 335.91 77.0291C336.94 77.0291 338.22 76.889 339.76 76.609C341.64 76.229 343.23 76.0491 344.51 76.0491C346.65 76.0491 348.36 76.899 349.64 78.589C350.92 80.289 351.57 82.549 351.57 85.369C351.57 88.479 350.71 90.969 349 92.859C347.29 94.739 345.06 95.6791 342.33 95.6791C339.93 95.6791 336.38 95.439 331.67 94.969C326.96 94.499 323.41 94.259 321.02 94.259C317.34 94.259 314.26 94.3991 311.78 94.6791L305.49 95.389C303.78 95.579 302.62 95.6691 302.02 95.6691C299.28 95.6691 297.08 94.729 295.41 92.849C293.74 90.969 292.91 88.469 292.91 85.359C292.91 82.719 293.57 80.509 294.9 78.719C296.23 76.929 297.87 76.0391 299.84 76.0391C300.61 76.0391 301.68 76.2091 303.05 76.5291C304.42 76.8591 305.4 77.019 306 77.019C308.31 77.019 309.47 73.8191 309.47 67.4191V28.2991C309.47 25.2891 309.38 23.359 309.21 22.509C308.78 20.059 307.71 18.839 306 18.839C305.31 18.839 304.31 19.009 302.98 19.329C301.65 19.659 300.61 19.819 299.84 19.819C297.87 19.819 296.22 18.929 294.9 17.139C293.57 15.349 292.91 13.139 292.91 10.499C292.91 7.38902 293.77 4.86896 295.48 2.93896C297.19 1.00896 299.42 0.0390625 302.15 0.0390625H302.54C302.71 0.129063 302.88 0.179077 303.05 0.179077C305.1 0.179077 308.23 0.419038 312.42 0.889038C316.61 1.35904 319.78 1.599 321.92 1.599C326.03 1.599 330.52 1.40906 335.4 1.03906C341.56 0.569063 345.07 0.328979 345.93 0.328979C355.26 0.328979 362.81 3.22904 368.59 9.01904C374.37 14.809 377.25 22.419 377.25 31.829C377.25 41.239 374.28 49.389 368.33 55.139C362.38 60.879 354.27 63.759 344 63.759C343.14 63.759 341.52 63.709 339.12 63.619L335.53 63.479V63.469ZM332.06 39.599C332.06 42.239 332.27 43.859 332.7 44.469C333.13 45.079 334.28 45.4391 336.17 45.5291L338.22 45.6691C348.32 46.3291 353.37 41.9491 353.37 32.5291C353.37 23.1091 348.83 18.969 339.76 18.969C337.53 18.969 335.99 19.109 335.14 19.389C333.6 19.859 332.66 20.9891 332.32 22.7791C332.15 23.7191 332.06 25.129 332.06 27.019V39.589V39.599Z" fill="#242278"/>
<path d="M184.671 35.0706C184.671 35.0706 184.611 35.0806 184.581 35.0906C183.461 35.3006 182.451 34.7306 181.811 33.9506C180.911 32.8606 180.411 31.4406 179.831 30.2006C179.171 28.7906 178.651 27.3306 178.311 25.8306C177.611 22.7406 177.711 19.5706 178.241 16.4606C178.921 12.4606 180.591 8.53056 183.531 5.44056C186.471 2.35056 190.781 0.190675 195.321 0.0606745C199.091 -0.0493255 202.981 1.36057 205.411 3.95057C208.271 6.99057 207.961 10.7306 205.771 14.1106C204.101 16.6906 201.551 18.7306 198.941 20.6006C196.331 22.4706 193.601 24.2406 191.361 26.4606C189.971 27.8406 188.591 29.2506 187.571 30.8706C186.761 32.1606 186.531 34.6606 184.661 35.0706H184.671Z" fill="#242278"/>
<path d="M285.519 33.9672C284.649 28.1272 282.379 21.7972 278.799 16.2172C273.539 8.0072 265.469 1.38721 254.879 0.227211C244.609 -0.902789 234.379 3.64721 227.209 10.0972C213.049 22.8272 204.149 42.3372 205.949 59.9572C206.889 69.1772 210.929 78.2772 218.179 85.1072C225.419 91.9372 235.979 96.3073 246.719 96.0473C262.149 95.6773 273.959 88.1672 280.729 76.1072C287.899 63.3272 287.579 47.8072 285.519 33.9772V33.9672ZM258.029 40.0672C258.019 45.1672 258.009 50.2772 257.889 55.3672C257.639 65.9572 254.279 78.0872 245.829 78.0072C237.449 77.9272 235.919 68.5873 235.279 62.9073C234.219 53.5273 234.169 43.5372 238.079 34.6072C240.179 29.8172 243.749 23.1472 249.299 20.9372C250.009 20.6572 250.719 20.5172 251.409 20.5872C257.999 21.2372 258.039 35.6473 258.039 40.0573L258.029 40.0672Z" fill="#242278"/>
<path d="M383.639 96.0502C379.289 96.0502 375.639 93.6301 371.779 92.1101C369.039 91.0301 366.029 89.8201 366.029 86.4801C366.029 82.9301 369.659 81.5901 372.569 80.5001C376.119 79.1801 379.679 76.9102 383.639 76.9102C389.909 76.9102 394.999 81.1901 394.999 86.4701C394.999 91.7501 389.909 96.0302 383.639 96.0302V96.0502Z" fill="#242278"/>
</g>
<defs>
<clipPath id="clip0_2208_2205">
<rect width="395" height="96.02" fill="white"/>
</clipPath>
</defs>
</svg>
