<?xml version="1.0" encoding="UTF-8"?><svg xmlns="http://www.w3.org/2000/svg" viewBox="0 0 450 300"><defs><style>.c{fill:none;}.c,.d{stroke:#282828;stroke-linecap:round;stroke-linejoin:round;stroke-width:3px;}.e,.d{fill:#fff;}.f{fill:#ffcb39;}</style></defs><g id="a"/><g id="b"><g><path class="f" d="M223.21,12.84c13.37,.99,30.16,4.74,41.9,11.2,11.75,6.46,21.75,16.65,26.32,29.25,2.8,7.71,3.51,16.05,3.31,24.25-.34,14.28-6.16,23.89-11.68,37.06l5.92-4.98c11.1-18.69,18.46-29.85,17.28-51.55-.42-7.74-1.97-15.53-5.65-22.35-4.35-8.07-11.51-14.4-19.5-18.89-8-4.49-16.84-7.27-25.75-9.46-6.74-1.66-15.31-3.58-22.64-3.04-4.41,.33-9.52,2.99-9.52,8.52Z"/><path class="f" d="M270.92,77.44c2.14-14.24-13.36-19.48-25.31-21.46-9.26-1.53-18.66-2.29-28.06-2.29-4.29,0-8.58,.16-12.86,.48-6.89,.51-13.75,1.44-20.52,2.76-6.13,1.2-13.89,2.23-19.38,5.16-2.64,1.41-6.15,3.07-6.37,3.22-1.87,1.29-3.71,2.73-4.87,4.63-2.31,3.76-2.51,12.11-2.51,12.12,1.43,32.07,1.9,64.2,2.47,96.29,.26,14.28,.5,28.55,.82,42.83,.25,11.15,.15,18.22,.72,29.37,.25,4.87-.19,9.79,2.82,13.79,2.93,3.91,6.68,5.74,10.79,7.99,4.73,2.6,9.37,5.1,14.44,6.99,10.09,3.76,20.87,5.65,31.63,5.47,16.63-.28,33.15-5.51,46.98-14.87,2.42-1.63,4.81-3.45,6.37-5.93,2.6-4.12,2.39-11.45,2.33-16.14-.11-8.43-.1-11.77-.04-18.86,.11-13.64,.44-23.19,.65-36.83,.51-33.8,.81-67.62,.21-101.42-.08-4.43-.18-8.86-.31-13.28"/><path class="e" d="M214.21,105.38c-7.89,3.77-15.66,7.83-23.29,12.17-2.93,1.67-6.68,.87-8.57-1.93-4-5.94-7.34-12.38-9.91-19.15l-3.09-7.52c-.89-2.17-.54-4.66,.93-6.5l1.88-2.35c.45-.56,2.55-3.01,3.16-3.39l19.35-12.26c2.88-1.83,6.7-1.11,8.71,1.66,4.19,5.79,8.32,11.61,12.39,17.48,.13,.19,.26,.39,.37,.6l3.97,7.23c1.11,2.02,1.92,5.62,.74,7.6l-1.77,2.6c-.65,1.08-3.72,3.22-4.86,3.77Z"/><path class="c" d="M144.27,68.7c-.78,22.49-.75,45-.53,67.5,.23,23.1,.75,46.2,1.42,69.29,.48,16.53,1.05,28.97,1.71,45.49,.21,5.39,.08,11.02,1.9,16.17,2.04,5.78,6.54,8.73,11.43,11.95,22.72,14.96,50.14,17.71,76.42,12.99,15.14-2.72,29.72-8.91,39.89-20.83,1.35-1.58,2.85-6.55,2.88-8.63,.27-20.03,1-130.48-1.2-191.42l-2.21,3.82c-1.09,1.43-2.31,2.74-3.64,3.91-7.61,6.67-17.83,9.44-27.78,11.29-27.23,5.08-56.05,4.73-81.87-5.29-7.78-3.02-16.76-8.06-18.41-16.24-1.5-7.41,8.89-14.44,15.69-17.75,9.77-4.76,23.98-7.13,35.54-8.49,10.54-1.24,17.1-1.05,27.63-.81"/><path class="c" d="M174.1,78.44l25.4-16.1c5.5,7.49,10.89,15.05,16.17,22.67"/><path class="c" d="M172.14,97.62c3.29,8.66,7.84,16.78,13.42,24,9.81-5.77,19.85-11.09,30.1-15.92"/><path class="d" d="M220.83,141.65c10.76-4.01,22.13-6.64,33.69-7.77,4.65,10.64,7.17,22.05,7.39,33.5,0,0-23.99,5.47-35.28,8.93-3.19-10.21-5.79-34.67-5.79-34.67Z"/><path class="c" d="M229.96,72.46c-2.23,1.8-2.55,5.82,.17,7.35,1.57,.88,3.75,.31,5.14-.77,1.58-1.23,2.48-3.24,1.74-4.96-1.24-2.92-5.03-3.26-7.05-1.62Z"/><path class="c" d="M234.6,112.57c-.04,.17-.07,.33-.09,.5-.83,6.59,7.69,7.27,8.61,1.08,.31-2.11-.68-4.45-2.6-5.37-2.75-1.33-5.33,1.17-5.92,3.8Z"/><path class="c" d="M186.85,138.85c.42,2.61,2.84,5.44,6.06,5,1.67-.23,2.97-1.3,3.66-2.49,1.38-2.39,.36-5.63-2.67-6.8-2.07-.8-5.21-.18-6.45,1.37-.61,.76-.78,1.81-.6,2.91Z"/><path class="c" d="M210.11,182.83c-2.24,1.32-3.91,4.53-3.07,7.35,.8,2.7,3.95,3.66,6.31,2.7,2.55-1.05,4.5-4.26,3.81-7.25-.65-2.82-3.59-3.88-5.87-3.29-.4,.1-.8,.27-1.17,.49Z"/><path class="c" d="M224.67,10.39c13.37,.99,28.7,7.18,40.45,13.64,11.75,6.46,21.75,16.65,26.32,29.25,2.8,7.71,3.51,16.05,3.31,24.25-.3,12.77-9.21,27.38-14.77,39.55-.24,.52,.44,.96,.83,.55,2.87-3.02,8.3-7.16,10.31-9.77,3.4-4.4,5.9-9.32,8.22-14.36,4.92-10.69,7.43-22.38,6.98-34.14-.31-8.16-1.82-16.45-5.71-23.65-4.35-8.07-11.51-14.4-19.5-18.89-8-4.49-16.84-7.27-25.75-9.46-11.16-2.75-23.05-4.61-34.03-1.27-.28,.08-.43,.39-.34,.66,7.75,22.09,21.42,50.77,31.18,71.96"/><path class="c" d="M248.92,64.86c5.74-12.28,11.87-24.4,18.38-36.36"/><path class="c" d="M248.92,66.99c14.13-.17,32.09,2.73,45.86,8.87"/></g></g></svg>