<?xml version="1.0" encoding="UTF-8"?><svg xmlns="http://www.w3.org/2000/svg" viewBox="0 0 450 300"><defs><style>.c{fill:#fff;}.d{fill:#373737;}.e{fill:#553321;}</style></defs><g id="a"/><g id="b"><path class="e" d="M234.77,61.79c12.54,.12,25.21,.78,37.44,3.73,6.24,1.51,19.37,4.78,24.56,8.58,5.52,4.05,4.2,19.4,3.96,35.52-.2,13.54-.28,31.03-.77,44.56-.53,14.52-.88,29.05-1.19,43.58-.25,12.07,1.61,27.19-3.62,38.5-2.12,4.58-8.75,7.4-13.05,9.33-12.15,5.45-23.05,5.01-36.22,7.01-18.92,2.87-38.02,.93-57.03-2.28-7.49-1.27-19.77-4.17-25.84-9.13-9.12-7.44-5.56-18.76-6.49-29.08-1.45-16.14-.84-32.45-1.54-48.63-1.09-25.16-2.13-50.32-2.83-75.49-.22-8.02,6.93-14.59,14.1-16.99,11.63-3.9,23.66-6.62,35.84-8.11"/><g><path class="c" d="M256.98,97.48c-10.56,14.64-22.87,26.14-38.94,32.92-.86,.36-1.79,.72-2.7,.52-.85-.19-1.54-.83-2.19-1.46-9.36-9.07-26.9-25.87-35.34-35.93l-1.36-6.55,3.17-4.42c10.1-10.37,22.83-21.07,34.51-29.58,1.08-.78,2.22-1.58,3.54-1.71,1.61-.15,3.13,.73,4.5,1.6,11.56,7.4,24.6,19.82,32.98,30.75l4.23,7.49-2.41,6.36Z"/><path class="d" d="M215.9,132.47c-.29,0-.58-.03-.88-.09-1.29-.29-2.22-1.19-2.91-1.84l-2.22-2.15c-9.48-9.17-25.36-24.53-33.22-33.89l-.24-.29-1.57-7.56,3.7-5.13c9.52-9.77,22.17-20.61,34.7-29.75,1.05-.77,2.5-1.82,4.29-1.99,2.08-.2,3.9,.84,5.45,1.83,11.17,7.15,24.58,19.65,33.36,31.1l.12,.18,4.57,8.1-2.73,7.21-.12,.16c-11.84,16.41-24.41,27.03-39.57,33.42-.85,.36-1.75,.7-2.73,.7Zm-36.68-39.62c7.84,9.27,23.42,24.33,32.76,33.37l2.23,2.15c.45,.43,1,.97,1.46,1.07,.46,.1,1.11-.15,1.79-.44,14.58-6.15,26.72-16.4,38.19-32.25l2.09-5.52-3.83-6.79c-8.59-11.18-21.65-23.35-32.53-30.31-1.18-.75-2.42-1.48-3.55-1.37-.9,.09-1.8,.7-2.8,1.43-12.37,9.01-24.84,19.7-34.24,29.34l-2.72,3.79,1.15,5.53Z"/></g><path class="d" d="M222.39,93.85c-23.82,0-47.65-4.31-69.78-12.93-4.4-1.71-8.74-3.87-10.67-7.98-3.73-7.94,.67-15.9,12.08-21.83,11.79-6.13,25.15-8.74,36.66-10.48,5.23-.82,10.64-1.32,15.72-1.76,8.86-.77,20.26-1.27,28.38-1.25,12.36,.04,23.6,.98,34.35,2.87,16.64,2.93,34.35,7.96,39.47,23.1,3.38,9.98-7.91,14.17-16.98,17.54l-1.67,.62c-21.5,8.07-44.53,12.1-67.56,12.11Zm11.77-53.23c-7.99,0-18.94,.49-27.5,1.24-5.04,.44-10.38,.93-15.53,1.74-11.27,1.71-24.33,4.25-35.73,10.18-5.75,2.99-14.78,9.28-10.74,17.89,1.48,3.16,5.22,4.97,9.04,6.46,42.86,16.69,92.14,16.98,135.2,.81l1.68-.63c10.32-3.83,17.45-7.06,15.18-13.76-4.62-13.65-21.37-18.33-37.15-21.11-10.59-1.86-21.66-2.79-33.84-2.83h0c-.2,0-.4,0-.61,0Z"/><path class="d" d="M218.51,264.71c-10.98,0-28-2.12-38.27-4.79-10.62-2.76-21.45-6.2-28.78-12.61-3.02-2.64-4.85-6.45-5.02-10.44-1.13-26.61-4.83-117.14-5.03-165.12h3c.2,47.92,3.9,138.4,5.03,165,.14,3.18,1.59,6.21,4,8.31,6.86,6,17.3,9.3,27.56,11.97,10.22,2.66,27.26,4.77,38.02,4.7h1.92c33-.22,54.8-.36,80.55-19.76,.85-.64,1.36-1.82,1.41-3.23l.18-5.15c2.71-77.44,3.76-133.24,3.1-165.84l3-.06c.66,32.65-.39,88.51-3.1,166l-.18,5.15c-.08,2.32-1.03,4.34-2.6,5.52-26.54,20-48.74,20.14-82.33,20.35h-1.92c-.17,.01-.35,.01-.53,.01Z"/><path class="d" d="M229.63,277.66c-14.15,0-27.88-1.32-40.53-2.88-7.33-.91-15.71-2.27-22.29-6.96-5.63-4.01-15.06-10.73-11.6-19.14l2.77,1.14c-2.36,5.72,3.93,10.82,10.57,15.55,6.01,4.28,13.63,5.52,20.92,6.42,25.32,3.13,55.03,5.29,83.5-2.37,6.18-1.66,13.22-3.97,18.55-8.44,6.15-5.16,8.35-9.68,7.34-15.11l2.95-.55c1.55,8.39-3.65,14-8.36,17.96-5.78,4.85-13.2,7.29-19.7,9.04-14.66,3.95-29.61,5.34-44.12,5.34Z"/><path class="d" d="M255.7,85.12c-.45,0-.9-.2-1.19-.59-8.59-11.2-21.69-23.42-32.6-30.4-1.18-.75-2.42-1.48-3.55-1.37-.9,.09-1.8,.7-2.8,1.43-12.4,9.04-24.91,19.76-34.32,29.42-.58,.59-1.53,.6-2.12,.03-.59-.58-.61-1.53-.03-2.12,9.52-9.77,22.17-20.62,34.7-29.75,1.05-.77,2.5-1.82,4.29-1.99,2.08-.19,3.9,.84,5.45,1.83,11.17,7.15,24.58,19.65,33.36,31.1,.5,.66,.38,1.6-.28,2.1-.27,.21-.59,.31-.91,.31Z"/><path class="d" d="M216.43,132.47c-.29,0-.58-.03-.88-.09-1.3-.29-2.23-1.19-2.91-1.85l-2.22-2.15c-9.48-9.17-25.36-24.53-33.22-33.89-.53-.63-.45-1.58,.18-2.11,.63-.53,1.58-.45,2.11,.18,7.76,9.24,23.56,24.53,33.01,33.66l2.23,2.15c.45,.43,1,.97,1.46,1.07,.46,.1,1.11-.15,1.79-.44,14.63-6.17,26.8-16.47,38.3-32.41,.49-.67,1.42-.82,2.09-.34,.67,.48,.82,1.42,.34,2.09-11.84,16.41-24.41,27.03-39.57,33.42-.85,.36-1.75,.7-2.73,.7Z"/></g></svg>