<?xml version="1.0" encoding="UTF-8"?><svg xmlns="http://www.w3.org/2000/svg" viewBox="0 0 450 300"><defs><style>.c{fill:#eee;}.d{fill:#dd4a00;}.e{fill:#373737;}</style></defs><g id="a"/><g id="b"><path class="c" d="M145.33,212.91c17,17.09,41.84,26.54,66.45,25.91,14.46-.37,31.49-.35,45.46-3.97,7.9-2.04,16.72-4.3,23.05-9.26,7.29-5.72,12.54-8.35,15.44-15.48h-.74c7.55,.45,15.76,2.21,21.86,6.59,7.34,5.28,8.56,14.36,1.45,20.33-3.35,2.81-7.65,4.45-11.91,5.89-9.56,3.24-19.4,5.78-29.38,7.61-53.18,9.73-112.09,1.63-138.21-6.4-7.77-2.39-17.52-7.09-18.62-15.53-1.5-11.48,15.21-16.81,24.72-18.4l.45,2.71Z"/><path class="d" d="M283.97,97.77c3.61,13.88,7.38,25.95,10.58,39.92,3.07,13.41,6.27,28.31,4,41.98-2.63,15.84-7.61,29.96-21.34,38.68-16.22,10.3-35.16,11.78-53.98,12.18-9.37,.2-20.42-.4-29.69-1.73-6.84-.98-13.66-2.39-20.04-5.01-15.92-6.53-27.9-21.41-30.8-38.03-1.52-8.74,.35-20.87,1.72-29.61,1.45-9.31,3.17-13.28,4.47-22.34,1.98-13.71,4.62-23.44,8.21-35.42,10.99-14.41,23.61-17.04,33.39-18.15,18.48-2.1,29.51-3.66,47.96-1.47,9.35,1.11,12.29,1.35,21.33,3.47,8.18,1.92,17.16,6.67,24.19,15.53Z"/><path class="e" d="M275.43,159.13c-.17,0-.34-.03-.51-.09-.78-.28-1.18-1.14-.9-1.92,.16-.45,.02-1.23-.11-1.93-.05-.29-.11-.58-.14-.86l-1.07-7.93c-.95-7.01-1.9-14.03-2.84-21.04-.15-1.11-.28-2.26-.41-3.44-.71-6.25-1.44-12.71-5.41-17.02-2.46-2.67-6.33-4.03-10.11-3.55-4.62,.58-8.32,3.52-10.99,8.73-.38,.74-1.28,1.02-2.02,.65-.74-.38-1.03-1.28-.65-2.02,3.16-6.15,7.63-9.63,13.29-10.34,4.72-.6,9.59,1.13,12.69,4.5,4.63,5.03,5.45,12.3,6.18,18.71,.13,1.15,.26,2.28,.41,3.37,.95,7.02,1.89,14.03,2.84,21.04l1.07,7.94c.03,.23,.08,.47,.12,.72,.18,1.01,.42,2.28-.02,3.48-.22,.61-.8,.99-1.41,.99Z"/><g><path class="c" d="M261.8,161.07c8.02-2.82,16.52-4.31,25.02-4.38,2.24,8.78,3.1,17.91,2.55,26.95-.06,.93-.16,1.92-.77,2.62-.6,.69-1.55,.92-2.45,1.12-5.17,1.12-10.4,2.02-15.65,2.7-1.05,.14-2.15,.26-3.16-.08-2.48-.84-3.22-3.92-3.58-6.52-1.08-7.78-1.98-22.4-1.98-22.4Z"/><path class="e" d="M268.87,191.71c-.64,0-1.32-.07-1.99-.3-3.68-1.25-4.34-5.96-4.58-7.73-1.08-7.75-1.98-22.37-1.99-22.52-.04-.67,.37-1.28,1-1.51,8.22-2.89,16.8-4.39,25.51-4.47h.01c.69,0,1.28,.46,1.45,1.13,2.29,8.96,3.16,18.18,2.6,27.41-.07,1.15-.22,2.47-1.13,3.52-.96,1.1-2.34,1.4-3.26,1.6-5.19,1.13-10.5,2.04-15.77,2.72-.53,.07-1.16,.15-1.84,.15Zm-5.5-29.59c.23,3.58,1,14.76,1.89,21.15,.44,3.17,1.26,4.85,2.58,5.3,.66,.23,1.48,.15,2.48,.02,5.19-.67,10.41-1.57,15.52-2.68,.67-.15,1.35-.31,1.64-.64,.29-.33,.36-1.06,.4-1.72,.52-8.52-.23-17.04-2.22-25.34-7.6,.18-15.08,1.5-22.29,3.91Z"/></g><path class="e" d="M219.44,114.28c-6.68,0-13.35-.3-20.87-.89-13.73-1.08-29.48-3.56-42.22-13.69-3.17-2.52-5.21-5-6.23-7.59-2.52-6.39,5.19-13.04,8.89-16.23,8.61-7.43,18.33-10.11,31.21-12.03l.12-.02c9.95-1.48,14.95-2.23,25.07-2.28h0c3.64-.02,7.34,.06,10.97,.22,11.35,.52,25.58,1.49,34.98,4.34,1.03,.31,2,.6,2.92,.87,6.02,1.78,10.36,3.06,16.85,7.29,3.73,2.43,9.92,7.43,9.5,13.65-.2,3.01-1.69,6.1-4.4,9.16-5.84,6.58-14.62,10.24-20.97,12.16-8.86,2.67-18.34,3.65-25.62,4.21-7.26,.55-13.74,.83-20.21,.83Zm-4.02-49.73h0c-9.91,.05-14.83,.78-24.65,2.24l-.12,.02c-12.35,1.84-21.62,4.38-29.69,11.34-4.56,3.94-9.6,8.95-8.06,12.86,.82,2.08,2.56,4.16,5.31,6.34,9.63,7.66,21.77,11.56,40.59,13.05,14.63,1.16,26.02,1.17,40.61,.06,7.12-.54,16.4-1.5,24.98-4.09,8.56-2.59,15.34-6.49,19.59-11.28,2.27-2.55,3.5-5.03,3.65-7.37,.23-3.43-2.74-7.41-8.14-10.93-6.12-3.99-10.08-5.16-16.06-6.92-.93-.27-1.91-.56-2.95-.88-9.08-2.75-23.07-3.7-34.25-4.21-3.59-.17-7.25-.24-10.82-.22Z"/><path class="e" d="M219.07,240.52c-9.7,0-20.26-.72-28.99-2.01-9.28-1.37-16.17-3.13-22.35-5.73-17.82-7.49-31.44-24.71-34.7-43.88-1.72-10.13,.36-23.78,1.88-33.76,.95-6.21,1.84-10.33,2.78-14.69,.67-3.08,1.36-6.26,2.13-10.46,2.76-14.93,7.14-32.41,9.86-41.28,.24-.79,1.08-1.24,1.87-.99,.79,.24,1.24,1.08,.99,1.87-2.69,8.78-7.04,26.12-9.78,40.94-.78,4.24-1.48,7.45-2.15,10.55-.94,4.32-1.82,8.39-2.75,14.51-1.4,9.22-3.53,23.15-1.89,32.8,3.09,18.18,16.01,34.51,32.9,41.61,5.94,2.5,12.61,4.2,21.63,5.53,9.78,1.44,21.91,2.16,32.46,1.93,19.84-.43,40.71-1.82,58.59-13.45,15.64-10.17,20.28-27.17,22.75-42.45,2.55-15.72-1.45-33.58-4.37-46.62-2.16-9.66-4.81-19.38-7.38-28.78-1.6-5.85-3.25-11.91-4.77-17.89-.2-.8,.28-1.62,1.08-1.82,.81-.2,1.62,.28,1.82,1.08,1.51,5.96,3.16,12,4.75,17.84,2.57,9.44,5.24,19.19,7.41,28.92,3.71,16.58,6.84,32.71,4.4,47.75-2.58,15.94-7.46,33.68-24.08,44.49-18.54,12.05-40.77,13.51-60.16,13.93-1.3,.03-2.63,.04-3.97,.04Z"/><path class="e" d="M309.45,198.72c-2.79,0-5.36-.55-7.37-1.63l1.42-2.64c2.98,1.6,7.65,1.71,12.19,.28,4.15-1.31,7.46-3.72,8.83-6.45,2.46-4.87,3.57-9.44,3.83-15.78,.88-21.38-5.32-54.89-9.67-64.62-1.02-2.27-2.66-4.23-4.81-6.48-2.15-2.25-7.25-3.94-10.51-3.47-3.78,.54-6.8,2-9,4.36l-2.2-2.05c2.68-2.87,6.3-4.65,10.78-5.29,4.18-.59,10.3,1.45,13.1,4.37,2.37,2.47,4.19,4.66,5.38,7.33,4.47,9.97,10.83,44.21,9.93,65.97-.28,6.79-1.48,11.72-4.15,17.01-1.76,3.49-5.63,6.39-10.61,7.96-2.39,.75-4.84,1.13-7.14,1.13Z"/><path class="e" d="M308.8,188.76c-1.54,0-3.04-.24-4.37-.73l1.03-2.82c3.87,1.42,9.81,.14,11.67-3.62,1.87-3.78,1.86-9.21,1.85-14v-1.57c.02-6.86-.62-13.93-1.96-21.61-1.02-5.82-2.44-11.67-3.82-17.33-.69-2.86-1.41-5.81-2.07-8.73-1.81-8.03-4.66-11.4-8.92-10.62-2,.37-4.15,2.35-4.99,4.6l-2.81-1.05c1.22-3.27,4.21-5.95,7.26-6.51,9.1-1.66,11.57,9.31,12.38,12.91,.66,2.9,1.37,5.84,2.06,8.68,1.39,5.7,2.82,11.6,3.86,17.52,1.37,7.85,2.03,15.09,2.01,22.13v1.56c.01,5.12,.03,10.93-2.16,15.34-1.91,3.86-6.62,5.83-11.02,5.83Z"/><path class="e" d="M221.53,256.47c-21.45,0-43.65-2.08-66.24-6.22l-.66-.12c-12.64-2.31-33.79-6.17-35.79-22.13-1.91-15.25,17.16-19.77,23.05-20.79,.81-.14,1.59,.41,1.73,1.22,.14,.82-.41,1.59-1.22,1.73-5.23,.91-22.17,4.85-20.58,17.46,1.73,13.77,21.52,17.39,33.35,19.55l.67,.12c29.2,5.35,57.74,7.23,84.81,5.6,14.63-.88,28.97-2.81,42.6-5.73,.99-.21,1.98-.42,2.99-.63,11.41-2.4,24.33-5.11,32.83-13.11,2.2-2.07,2.54-4.65,2.44-6.45-.21-3.77-2.51-7.92-5.72-10.33-5.68-4.26-10.8-6.1-18.28-6.57-.83-.05-1.46-.76-1.4-1.59,.05-.83,.77-1.45,1.59-1.4,8.01,.5,13.78,2.58,19.89,7.16,3.94,2.95,6.66,7.88,6.92,12.56,.2,3.49-.97,6.54-3.38,8.8-9.11,8.58-22.48,11.38-34.27,13.86-1,.21-2,.42-2.98,.63-13.78,2.95-28.27,4.9-43.05,5.79-6.35,.38-12.79,.57-19.29,.57Z"/></g></svg>